<?xml version="1.0" encoding="utf-8"?>
<!-- Generator: Adobe Illustrator 22.1.0, SVG Export Plug-In . SVG Version: 6.00 Build 0)  -->
<svg version="1.1" id="Capa_1" xmlns="http://www.w3.org/2000/svg" xmlns:xlink="http://www.w3.org/1999/xlink" x="0px" y="0px"
	 viewBox="0 0 72.2 72.2" style="enable-background:new 0 0 72.2 72.2;" xml:space="preserve">
<style type="text/css">
	.st0{fill:none;stroke:#FF6D00;stroke-width:4;stroke-miterlimit:10;}
	.st1{fill:url(#SVGID_1_);}
	.st2{fill:url(#SVGID_2_);}
	.st3{fill:url(#SVGID_3_);}
	.st4{fill:url(#SVGID_4_);}
	.st5{fill:url(#SVGID_5_);}
	.st6{fill:url(#SVGID_6_);}
</style>
<g id="cajon">
	<circle class="st0" cx="36" cy="36.2" r="34.1"/>
	<g>
		<g>
			<g>
				<linearGradient id="SVGID_1_" gradientUnits="userSpaceOnUse" x1="25.7663" y1="21.0898" x2="25.7663" y2="23.3974">
					<stop  offset="0.5707" style="stop-color:#F05A24"/>
					<stop  offset="1" style="stop-color:#FBED21"/>
				</linearGradient>
				<circle class="st1" cx="25.8" cy="22.2" r="1.2"/>
			</g>
		</g>
		<g>
			<g>
				<linearGradient id="SVGID_2_" gradientUnits="userSpaceOnUse" x1="44.2278" y1="21.0898" x2="44.2278" y2="23.3974">
					<stop  offset="0.5707" style="stop-color:#F05A24"/>
					<stop  offset="1" style="stop-color:#FBED21"/>
				</linearGradient>
				<circle class="st2" cx="44.2" cy="22.2" r="1.2"/>
			</g>
		</g>
		<g>
			<g>
				<linearGradient id="SVGID_3_" gradientUnits="userSpaceOnUse" x1="44.2278" y1="46.6282" x2="44.2278" y2="48.9359">
					<stop  offset="0.5707" style="stop-color:#F05A24"/>
					<stop  offset="1" style="stop-color:#FBED21"/>
				</linearGradient>
				<circle class="st3" cx="44.2" cy="47.8" r="1.2"/>
			</g>
		</g>
		<g>
			<g>
				<linearGradient id="SVGID_4_" gradientUnits="userSpaceOnUse" x1="25.7663" y1="46.6282" x2="25.7663" y2="48.9359">
					<stop  offset="0.5707" style="stop-color:#F05A24"/>
					<stop  offset="1" style="stop-color:#FBED21"/>
				</linearGradient>
				<circle class="st4" cx="25.8" cy="47.8" r="1.2"/>
			</g>
		</g>
		<g>
			<g>
				<linearGradient id="SVGID_5_" gradientUnits="userSpaceOnUse" x1="34.997" y1="28.0898" x2="34.997" y2="44.2436">
					<stop  offset="0.5707" style="stop-color:#F05A24"/>
					<stop  offset="1" style="stop-color:#FBED21"/>
				</linearGradient>
				<path class="st5" d="M35,28.1c-4.5,0-8.1,3.6-8.1,8.1s3.6,8.1,8.1,8.1s8.1-3.6,8.1-8.1S39.5,28.1,35,28.1z M35,41.9
					c-3.2,0-5.8-2.6-5.8-5.8c0-3.2,2.6-5.8,5.8-5.8s5.8,2.6,5.8,5.8S38.2,41.9,35,41.9z"/>
			</g>
		</g>
		<g>
			<g>
				<linearGradient id="SVGID_6_" gradientUnits="userSpaceOnUse" x1="34.997" y1="16.4744" x2="34.997" y2="55.859">
					<stop  offset="0.5707" style="stop-color:#F05A24"/>
					<stop  offset="1" style="stop-color:#FBED21"/>
				</linearGradient>
				<path class="st6" d="M46.5,16.5H23.5c-1.9,0-3.5,1.6-3.5,3.5v30.2c0,1.9,1.6,3.5,3.5,3.5h1.4c0.5,1.3,1.8,2.3,3.3,2.3
					c1.5,0,2.8-1,3.3-2.3h7.3c0.5,1.3,1.8,2.3,3.3,2.3c1.5,0,2.8-1,3.3-2.3h1.4c1.9,0,3.5-1.6,3.5-3.5V19.9
					C50,18,48.4,16.5,46.5,16.5z M47.7,50.1c0,0.6-0.5,1.2-1.2,1.2h-2.3c-0.6,0-1.2,0.5-1.2,1.2c0,0.6-0.5,1.2-1.2,1.2
					s-1.2-0.5-1.2-1.2c0-0.6-0.5-1.2-1.2-1.2h-9.2c-0.6,0-1.2,0.5-1.2,1.2c0,0.6-0.5,1.2-1.2,1.2s-1.2-0.5-1.2-1.2
					c0-0.6-0.5-1.2-1.2-1.2h-2.3c-0.6,0-1.2-0.5-1.2-1.2V19.9c0-0.6,0.5-1.2,1.2-1.2h23.1c0.6,0,1.2,0.5,1.2,1.2V50.1z"/>
			</g>
		</g>
	</g>
</g>
</svg>
