<?xml version="1.0" encoding="utf-8"?>
<!-- Generator: Adobe Illustrator 22.1.0, SVG Export Plug-In . SVG Version: 6.00 Build 0)  -->
<svg version="1.1" id="Layer_1" xmlns="http://www.w3.org/2000/svg" xmlns:xlink="http://www.w3.org/1999/xlink" x="0px" y="0px"
	 viewBox="0 0 72.2 72.2" style="enable-background:new 0 0 72.2 72.2;" xml:space="preserve">
<style type="text/css">
	.Drop_x0020_Shadow{fill:none;}
	.Outer_x0020_Glow_x0020_5_x0020_pt{fill:none;}
	.Jive_GS{fill:#A6D0E4;}
	.st0{fill:none;stroke:#FF6D00;stroke-width:4;stroke-miterlimit:10;}
	.st1{fill:url(#SVGID_1_);}
	.st2{fill:url(#SVGID_2_);}
	.st3{fill:url(#SVGID_3_);}
</style>
<g id="cello">
	<circle class="st0" cx="36" cy="36.2" r="34.1"/>
	<g>
		
			<linearGradient id="SVGID_1_" gradientUnits="userSpaceOnUse" x1="30.7321" y1="-242.7582" x2="30.7321" y2="-286.7416" gradientTransform="matrix(1 0 0 -1 1.525879e-05 -228.182)">
			<stop  offset="0.5707" style="stop-color:#F05A24"/>
			<stop  offset="1" style="stop-color:#FBED21"/>
		</linearGradient>
		<path class="st1" d="M40.1,43.8c-0.2-0.1-0.4-0.2-0.7-0.1c-0.3,0.1-0.5,0.2-0.8,0.2c-0.6,0-1.3-0.3-1.7-0.8
			c-0.4-0.5-0.6-1.1-0.5-1.8c0.2-1.1,1.1-1.8,2.2-1.9c0.1,0,0.1,0,0.2,0c0.2,0,0.4-0.1,0.5-0.2c0.1-0.1,0.2-0.3,0.2-0.5v-4.1
			c0-3-2.4-5.4-5.4-5.4h-1l-0.5-8.6c0.3-0.1,0.6-0.3,0.6-0.7v-5.3c0-0.4-0.3-0.7-0.7-0.7h-3.6c-0.4,0-0.7,0.3-0.7,0.7v5.3
			c0,0.4,0.3,0.7,0.6,0.7l-0.5,8.6h-1c-3,0-5.4,2.4-5.5,5.4v4.1c0,0.2,0.1,0.4,0.2,0.5s0.3,0.2,0.5,0.2c0.1,0,0.1,0,0.2,0
			c0.9,0,1.6,0.5,2,1.3c0.4,0.8,0.2,1.7-0.3,2.3c-0.4,0.5-1,0.8-1.7,0.8c-0.3,0-0.6-0.1-0.8-0.2c-0.2-0.1-0.5-0.1-0.7,0.1
			c-0.2,0.1-0.3,0.3-0.3,0.6v3.4c0,3.8,3,6.9,6.8,7.1l0.1,1.9c0,0.4,0.3,0.7,0.7,0.7h0l4.1,0c0.4,0,0.7-0.3,0.7-0.7l0.1-1.9
			c3.8-0.2,6.8-3.3,6.8-7.1v-3.4C40.4,44.2,40.3,44,40.1,43.8z M32.1,36.9C32.1,36.9,32.1,36.9,32.1,36.9l0.2,2.6h-3.2l0.2-2.5
			c0,0,0,0,0,0l0.9-16.3h1L32.1,36.9z M29.6,15.3h2.2v3.9h-2.2V15.3z M32.1,56.1l-2.8,0l-0.2-4.7h3.3L32.1,56.1z M39,47.8
			c0,3-2.3,5.5-5.3,5.7l0.1-2.7c0-0.2-0.1-0.4-0.2-0.5c-0.1-0.1-0.3-0.2-0.5-0.2h-4.8c-0.2,0-0.4,0.1-0.5,0.2
			c-0.1,0.1-0.2,0.3-0.2,0.5l0.1,2.7c-3-0.2-5.3-2.7-5.3-5.7v-2.5c0.2,0,0.3,0,0.4,0c1.9,0,3.5-1.5,3.6-3.4c0.1-1.9-1.2-3.6-3.1-3.8
			v-3.5c0-2.2,1.8-4,4.1-4h0.9L28,36.8l-0.3,3.3c0,0.2,0,0.4,0.2,0.5c0.1,0.1,0.3,0.2,0.5,0.2h4.8c0.2,0,0.4-0.1,0.5-0.2
			c0.1-0.1,0.2-0.3,0.2-0.5l-0.3-3.3l-0.3-6.2h0.9c1.1,0,2.1,0.4,2.9,1.2c0.8,0.8,1.2,1.8,1.2,2.9v3.5c-1.9,0.3-3.2,1.9-3.1,3.8
			c0.1,1.9,1.7,3.4,3.6,3.4c0.1,0,0.3,0,0.4,0V47.8z"/>
		
			<linearGradient id="SVGID_2_" gradientUnits="userSpaceOnUse" x1="30.5957" y1="-238.5518" x2="30.5957" y2="-282.5352" gradientTransform="matrix(1 0 0 -1 1.525879e-05 -228.182)">
			<stop  offset="0.5707" style="stop-color:#F05A24"/>
			<stop  offset="1" style="stop-color:#FBED21"/>
		</linearGradient>
		<path class="st2" d="M33,39.4h-4.8c-0.4,0-0.7,0.3-0.7,0.7c0,0.4,0.3,0.7,0.7,0.7H33c0.4,0,0.7-0.3,0.7-0.7
			C33.7,39.7,33.4,39.4,33,39.4z"/>
		
			<linearGradient id="SVGID_3_" gradientUnits="userSpaceOnUse" x1="46.4253" y1="-241.361" x2="46.4253" y2="-285.3444" gradientTransform="matrix(1 0 0 -1 1.525879e-05 -228.182)">
			<stop  offset="0.5707" style="stop-color:#F05A24"/>
			<stop  offset="1" style="stop-color:#FBED21"/>
		</linearGradient>
		<path class="st3" d="M47.5,13.5h-2.2c-0.4,0-0.7,0.3-0.7,0.7v33.1c0,0.4,0.3,0.7,0.7,0.7h1.5v6.6c0,0.4,0.3,0.7,0.7,0.7
			c0.4,0,0.7-0.3,0.7-0.7V14.2C48.2,13.8,47.9,13.5,47.5,13.5z M46.8,46.5H46V14.9h0.8V46.5z"/>
	</g>
</g>
</svg>
