<?xml version="1.0" encoding="utf-8"?>
<!-- Generator: Adobe Illustrator 22.1.0, SVG Export Plug-In . SVG Version: 6.00 Build 0)  -->
<svg version="1.1" id="Layer_1" xmlns="http://www.w3.org/2000/svg" xmlns:xlink="http://www.w3.org/1999/xlink" x="0px" y="0px"
	 viewBox="0 0 72.2 72.2" style="enable-background:new 0 0 72.2 72.2;" xml:space="preserve">
<style type="text/css">
	.Drop_x0020_Shadow{fill:none;}
	.Outer_x0020_Glow_x0020_5_x0020_pt{fill:none;}
	.Jive_GS{fill:#A6D0E4;}
	.st0{opacity:0.92;fill:none;stroke:#00FF18;stroke-width:4;stroke-miterlimit:10;}
	.st1{opacity:0.69;fill:url(#SVGID_1_);}
</style>
<g>
	<circle class="st0" cx="36.3" cy="36.2" r="34.1"/>
	<linearGradient id="SVGID_1_" gradientUnits="userSpaceOnUse" x1="36.1035" y1="18.5938" x2="36.1035" y2="52.9364">
		<stop  offset="0.3933" style="stop-color:#CEFF16"/>
		<stop  offset="0.9887" style="stop-color:#00CE01"/>
	</linearGradient>
	<path class="st1" d="M50.1,21.3c-0.2-0.2-0.6-0.2-0.8,0l-7.7,7.7c-1.8-0.3-3.6-0.5-5.5-0.5c-1.1,0-2.1,0.1-3.2,0.2l-10-10
		c-0.2-0.2-0.6-0.2-0.8,0l-1,1c-0.2,0.2-0.2,0.6,0,0.8l8.7,8.7c-1.7,0.4-3.1,0.9-4.2,1.6c-1.8,1.1-2.2,2.2-2.2,3c0,0.1,0,0.3,0,0.4
		l0,3.4c0,0.9,0.5,1.7,1.4,2.5v1.2c-1.2,0.9-1.5,1.9-1.5,2.5c0,0.1,0,0.2,0,0.4l0,3.5c0,1.5,1.4,2.9,3.9,3.8
		c2.4,0.9,5.5,1.4,8.8,1.4s6.5-0.5,8.8-1.4c2.5-1,3.9-2.3,3.9-3.8l0-3.8c0,0,0,0,0,0c0,0,0,0,0,0v0h0c0-1.1-0.8-1.9-1.5-2.5v-1.1
		c1-0.8,1.5-1.6,1.5-2.6l0-3.7h0c0,0,0-0.1,0-0.1c0-1.6-1.6-3-4.4-4l6.7-6.7c0.1-0.1,0.2-0.2,0.2-0.4c0-0.1-0.1-0.3-0.2-0.4
		L50.1,21.3z M22.5,19.9L33,30.4c0,0-0.1,0.1-0.1,0.1c0,0-0.1,0.1-0.1,0.1L22.3,20.2L22.5,19.9z M34.7,31.3c0.3,0.3,0.3,0.7,0.1,1
		c-0.2,0.3-0.6,0.4-0.9,0.3c-0.3-0.1-0.5-0.5-0.5-0.8c0.1-0.4,0.4-0.6,0.7-0.6C34.4,31.1,34.6,31.2,34.7,31.3z M24.8,42.9v1.9
		c-0.2-0.2-0.3-0.4-0.3-0.7v0h0c0-0.1,0-0.2,0-0.2C24.5,43.5,24.6,43.2,24.8,42.9z M44.5,50.5c-2.2,0.9-5.2,1.3-8.4,1.3
		c-3.2,0-6.2-0.5-8.4-1.3c-2-0.8-3.2-1.8-3.2-2.8l0-1.6c0.7,0.6,1.6,1.2,2.8,1.6c2.4,0.9,5.5,1.4,8.8,1.4s6.4-0.5,8.8-1.4
		c1.2-0.5,2.2-1,2.8-1.6l0,1.7C47.8,48.7,46.6,49.7,44.5,50.5z M47.7,43.9L47.7,43.9c0,0.4-0.1,0.7-0.4,1v-2.1
		C47.6,43.1,47.7,43.5,47.7,43.9L47.7,43.9z M46.2,45.8c-0.5,0.3-1.1,0.6-1.7,0.8c-2.2,0.9-5.2,1.3-8.4,1.3s-6.2-0.5-8.4-1.3
		c-0.6-0.2-1.2-0.5-1.8-0.9v-5c0.4,0.2,0.9,0.5,1.4,0.6c2.4,0.9,5.5,1.4,8.8,1.4c3.3,0,6.5-0.5,8.8-1.4c0.4-0.2,0.9-0.4,1.3-0.6
		V45.8z M44.5,40.5c-2.2,0.9-5.2,1.3-8.4,1.3c-3.2,0-6.2-0.5-8.4-1.3c-2-0.8-3.2-1.8-3.2-2.8l0-1.6c0.7,0.6,1.6,1.1,2.8,1.6
		c2.4,0.9,5.5,1.4,8.8,1.4c3.3,0,6.4-0.5,8.8-1.4c1.2-0.5,2.2-1,2.8-1.6l0,1.7C47.8,38.6,46.6,39.7,44.5,40.5z M47.7,33.8
		c0,1-1.2,2-3.2,2.8c-2.2,0.9-5.2,1.3-8.4,1.3s-6.2-0.5-8.4-1.3c-2-0.8-3.2-1.8-3.2-2.8c0-1.5,2.5-2.9,6.2-3.6l1.6,1.6
		c0,0.8,0.4,1.5,1.1,1.7c0.7,0.3,1.5,0.1,2-0.4c0.5-0.5,0.7-1.3,0.4-2c-0.3-0.7-1-1.1-1.7-1.1l-0.3-0.3c0.7-0.1,1.5-0.1,2.2-0.1
		c1.5,0,3,0.1,4.5,0.3l-2.6,2.6c0,0,0,0,0,0c-0.8,0-1.4,0.5-1.7,1.2s-0.1,1.5,0.4,2c0.5,0.5,1.3,0.7,2,0.4s1.1-1,1.1-1.7l3.7-3.7
		C46.1,31.5,47.7,32.7,47.7,33.8z M38,33.7c0.4,0,0.7,0.3,0.7,0.6c0.1,0.4-0.1,0.7-0.5,0.8c-0.3,0.1-0.7,0-0.9-0.3
		c-0.2-0.3-0.2-0.7,0.1-1C37.6,33.7,37.8,33.7,38,33.7L38,33.7z M39.4,33.2c0,0-0.1-0.1-0.1-0.1S39.2,33,39.2,33l10.5-10.5l0.3,0.3
		L39.4,33.2z"/>
</g>
</svg>
