<?xml version="1.0" encoding="utf-8"?>
<!-- Generator: Adobe Illustrator 22.1.0, SVG Export Plug-In . SVG Version: 6.00 Build 0)  -->
<svg version="1.1" id="Capa_1" xmlns="http://www.w3.org/2000/svg" xmlns:xlink="http://www.w3.org/1999/xlink" x="0px" y="0px"
	 viewBox="0 0 72.2 72.2" style="enable-background:new 0 0 72.2 72.2;" xml:space="preserve">
<style type="text/css">
	.st0{opacity:0.92;fill:none;stroke:#FF00CF;stroke-width:4;stroke-miterlimit:10;}
	.st1{fill:url(#SVGID_1_);}
	.st2{fill:url(#SVGID_2_);}
	.st3{fill:url(#SVGID_3_);}
	.st4{fill:url(#SVGID_4_);}
</style>
<g id="electro_guitar">
	<circle class="st0" cx="36.2" cy="36.2" r="34.1"/>
	<g>
		
			<linearGradient id="SVGID_1_" gradientUnits="userSpaceOnUse" x1="35.7699" y1="58.7523" x2="35.7699" y2="18.3122" gradientTransform="matrix(0.9988 0 0 -0.9988 0.14 73.4396)">
			<stop  offset="0.209" style="stop-color:#EC1E79"/>
			<stop  offset="0.8785" style="stop-color:#662D90"/>
		</linearGradient>
		<path class="st1" d="M50.9,16.1c-0.1-0.2-0.4-0.3-0.7-0.3c-0.3,0.1-0.4,0.2-0.5,0.5l-0.6,3.2c-0.1,0.6-0.4,1.2-0.9,1.6l-13,12
			c-0.1-0.7,0-1.4,0.3-2l1.9-4.8c0.1-0.2,0-0.5-0.1-0.7c-0.2-0.2-0.5-0.2-0.7-0.1l-5.2,2.2c-1.2,0.5-2.1,1.4-2.7,2.5l-2.4,4.5
			c-0.4,0.8-1.1,1.5-2,1.8L21.1,38c-1.4,0.7-2.5,1.9-3,3.4l-0.1,0.2c-0.6,1.9,0,4,1.4,5.4l5.7,5.7c1.4,1.4,3.5,2,5.4,1.4l0.1,0
			c1.6-0.5,2.9-1.6,3.5-3.2l1-2.5c0.4-0.9,1-1.6,1.9-2.1l2.5-1.4c1.1-0.6,2-1.6,2.5-2.8l1.3-3.3c0.1-0.2,0-0.5-0.1-0.7
			c-0.2-0.2-0.4-0.3-0.6-0.2l-3.5,0.7c-0.7,0.1-1.3,0.1-2-0.1l0.1-0.1l14-15.2l2.5-2.5c0.2-0.2,0.3-0.6,0.1-0.8L50.9,16.1z M39.4,40
			l2.4-0.5l-0.8,2.2c-0.4,0.9-1,1.7-1.9,2.2l-2.5,1.4c-1.1,0.6-2,1.6-2.4,2.7l-1,2.5c-0.5,1.2-1.5,2.1-2.7,2.4l-0.1,0
			c-1.5,0.4-3.1,0-4.2-1.1l-5.7-5.7c-1.1-1.1-1.5-2.7-1.1-4.2l0.1-0.2c0.3-1.2,1.2-2.1,2.3-2.6l3.2-1.4c1.1-0.5,2-1.3,2.6-2.4
			l2.4-4.5c0.5-0.8,1.2-1.5,2.1-1.9l3.8-1.6l-1.3,3.4c-0.4,1-0.5,2.1-0.3,3.1l0.1,0.4l-0.7,0.6l-4.1,3.7c-0.1,0.1-0.2,0.3-0.2,0.5
			c0,0.2,0.1,0.3,0.2,0.5l3.2,3.2c0.1,0.1,0.3,0.2,0.5,0.2h0c0.2,0,0.3-0.1,0.5-0.2l2.7-3C37.2,40.1,38.3,40.2,39.4,40z M36.2,37.7
			C36.2,37.7,36.2,37.7,36.2,37.7L33,41.4l-2.3-2.3l3.6-3.3l0,0l11.9-11.1l1,1L36.2,37.7z M50.3,22.5C50.3,22.5,50.3,22.5,50.3,22.5
			l-2.1,2.3l-0.9-0.9l1.9-1.8c0,0,0,0,0,0c0.6-0.6,1.1-1.4,1.2-2.3l0.4-1.7l1.7,2.3L50.3,22.5z"/>
		
			<linearGradient id="SVGID_2_" gradientUnits="userSpaceOnUse" x1="25.8176" y1="58.7523" x2="25.8176" y2="18.3122" gradientTransform="matrix(0.9988 0 0 -0.9988 0.14 73.4396)">
			<stop  offset="0.209" style="stop-color:#EC1E79"/>
			<stop  offset="0.8785" style="stop-color:#662D90"/>
		</linearGradient>
		<path class="st2" d="M25.4,43.3c-0.7-0.7-1.8-0.7-2.4,0c-0.7,0.7-0.7,1.8,0,2.4l3.5,3.5c0.7,0.7,1.8,0.7,2.4,0l0,0
			c0.7-0.7,0.7-1.8,0-2.4L25.4,43.3z M28,48.3L28,48.3c-0.2,0.2-0.4,0.2-0.6,0l-3.5-3.5c-0.2-0.2-0.2-0.4,0-0.6
			c0.2-0.2,0.4-0.2,0.6,0l3.5,3.5C28.2,47.9,28.2,48.2,28,48.3z"/>
		
			<linearGradient id="SVGID_3_" gradientUnits="userSpaceOnUse" x1="28.2924" y1="58.7523" x2="28.2924" y2="18.3122" gradientTransform="matrix(0.9988 0 0 -0.9988 0.14 73.4396)">
			<stop  offset="0.209" style="stop-color:#EC1E79"/>
			<stop  offset="0.8785" style="stop-color:#662D90"/>
		</linearGradient>
		<path class="st3" d="M26.9,41.4c-0.3-0.2-0.7-0.2-0.9,0c-0.2,0.2-0.3,0.6,0,0.9l3.9,3.9c0.3,0.3,0.7,0.3,0.9,0
			c0.3-0.3,0.3-0.7,0-0.9L26.9,41.4z"/>
		
			<linearGradient id="SVGID_4_" gradientUnits="userSpaceOnUse" x1="29.4292" y1="58.7523" x2="29.4292" y2="18.3122" gradientTransform="matrix(0.9988 0 0 -0.9988 0.14 73.4396)">
			<stop  offset="0.209" style="stop-color:#EC1E79"/>
			<stop  offset="0.8785" style="stop-color:#662D90"/>
		</linearGradient>
		<path class="st4" d="M28,40.2c-0.3-0.3-0.7-0.3-0.9,0c-0.3,0.3-0.3,0.7,0,0.9l3.9,3.9c0.3,0.3,0.7,0.3,0.9,0
			c0.3-0.3,0.3-0.7,0-0.9L28,40.2z"/>
	</g>
</g>
</svg>
