<?xml version="1.0" encoding="utf-8"?>
<!-- Generator: Adobe Illustrator 22.1.0, SVG Export Plug-In . SVG Version: 6.00 Build 0)  -->
<svg version="1.1" id="Layer_1" xmlns="http://www.w3.org/2000/svg" xmlns:xlink="http://www.w3.org/1999/xlink" x="0px" y="0px"
	 viewBox="0 0 72.2 72.2" style="enable-background:new 0 0 72.2 72.2;" xml:space="preserve">
<style type="text/css">
	.Drop_x0020_Shadow{fill:none;}
	.Outer_x0020_Glow_x0020_5_x0020_pt{fill:none;}
	.Jive_GS{fill:#A6D0E4;}
	.st0{fill:none;stroke:#00F3FF;stroke-width:4;stroke-miterlimit:10;}
	.st1{fill:url(#SVGID_1_);}
	.st2{fill:url(#SVGID_2_);}
</style>
<g id="guitar">
	<circle class="st0" cx="36.1" cy="36.2" r="34.1"/>
	
		<linearGradient id="SVGID_1_" gradientUnits="userSpaceOnUse" x1="27.2888" y1="-242.6493" x2="27.2888" y2="-287.2954" gradientTransform="matrix(0.9995 0 0 -0.9995 -0.2985 -228.2088)">
		<stop  offset="0" style="stop-color:#00EED0"/>
		<stop  offset="0.9992" style="stop-color:#2E3191"/>
	</linearGradient>
	<path class="st1" d="M24.1,41.7c-1.6,1.6-1.6,4.1,0,5.7c1.6,1.6,4.1,1.6,5.7,0c1.6-1.6,1.6-4.1,0-5.7
		C28.2,40.1,25.7,40.1,24.1,41.7z M28.8,46.4c-1,1-2.6,1-3.6,0c-1-1-1-2.6,0-3.6c1-1,2.6-1,3.6,0c0.5,0.5,0.8,1.1,0.8,1.8
		C29.6,45.2,29.3,45.9,28.8,46.4z"/>
	
		<linearGradient id="SVGID_2_" gradientUnits="userSpaceOnUse" x1="37.2474" y1="-241.4175" x2="37.2474" y2="-283.7637" gradientTransform="matrix(0.9995 0 0 -0.9995 -0.2985 -228.2088)">
		<stop  offset="0.2908" style="stop-color:#00EED0"/>
		<stop  offset="1" style="stop-color:#0000FF"/>
	</linearGradient>
	<path class="st2" d="M55.2,19.9l0.7-0.7c0.3-0.3,0.3-0.7,0-1l-2.8-2.8c-0.3-0.3-0.7-0.3-1,0l-0.7,0.7L50.4,15c-0.3-0.3-0.7-0.3-1,0
		c-0.3,0.3-0.3,0.7,0,1l1.1,1.1l-0.4,0.4l-1.1-1.1c-0.3-0.3-0.7-0.3-1,0c-0.3,0.3-0.3,0.7,0,1l1.1,1.1l-0.4,0.4l-1.1-1.1
		c-0.3-0.3-0.7-0.3-1,0c-0.3,0.3-0.3,0.7,0,1l1.1,1.1l-0.7,0.7c-0.3,0.3-0.3,0.7,0,1l0.2,0.2L39,29.9c-1.9-1.2-4.3-1.4-6.5-0.6
		c-2.1,0.8-3.8,2.6-4.4,4.8c-0.2,0.6-0.7,1-1.4,1c-5.2,0-9.4,4.2-9.3,9.4s4.2,9.4,9.4,9.3h0c5.2,0,9.4-4.1,9.4-9.3
		c0-0.6,0.4-1.2,1-1.4c2.2-0.6,4-2.3,4.8-4.4c0.8-2.1,0.6-4.5-0.6-6.5l8.4-8.4l0.2,0.2c0.3,0.3,0.7,0.3,1,0l0.7-0.7l1,1
		c0.3,0.3,0.7,0.2,0.9,0c0.3-0.3,0.3-0.7,0-0.9l-1-1l0.4-0.4l1,1c0.3,0.3,0.7,0.3,1,0c0.3-0.3,0.3-0.7,0-1l-1-1l0.4-0.4l1,1
		c0.2,0.2,0.4,0.2,0.7,0.2c0.2-0.1,0.4-0.2,0.5-0.5c0.1-0.2,0-0.5-0.2-0.7L55.2,19.9z M39.6,40.3c-0.7,0.8-1.7,1.4-2.7,1.7
		c-1.2,0.3-2,1.4-2,2.6c0,4.4-3.6,8-8.1,7.9h0c-4.4,0-8-3.6-8-8c0-4.4,3.5-8,8-8.1c1.2,0,2.3-0.8,2.7-2c0.5-1.7,1.8-3.1,3.4-3.8
		c1.7-0.7,3.6-0.6,5.1,0.2l-2.3,2.3c-0.3,0.3-0.3,0.7,0,1l1.5,1.5c0.3,0.3,0.7,0.3,1,0l2.3-2.3C41.7,35.6,41.3,38.4,39.6,40.3z
		 M37.6,34.3l-0.6-0.6l11.2-11.2l0.6,0.6L37.6,34.3z M50.5,22.7l-1.9-1.9l4-4l1.9,1.9L50.5,22.7z"/>
</g>
</svg>
