<?xml version="1.0" encoding="utf-8"?>
<!-- Generator: Adobe Illustrator 21.1.0, SVG Export Plug-In . SVG Version: 6.00 Build 0)  -->
<svg version="1.1" id="Capa_1" xmlns="http://www.w3.org/2000/svg" xmlns:xlink="http://www.w3.org/1999/xlink" x="0px" y="0px"
	 viewBox="0 0 854.8 533" style="enable-background:new 0 0 854.8 533;" xml:space="preserve">
<style type="text/css">
	.st0{opacity:0.3;}
	.st1{fill:#494949;}
</style>
<g id="non-active" class="st0">
	<g>
		<polygon class="st1" points="76.5,89.1 76.5,88.9 77.7,84.3 77.8,83.9 77.4,83.9 75.1,83.9 74.9,83.9 74.8,84.2 73.7,88.8 
			73.6,89.1 74,89.1 76.3,89.1 		"/>
		<polygon class="st1" points="13.2,77.2 13.1,76.9 12.8,77.1 9.3,79.4 9,79.6 9.3,79.8 10.4,81 10.6,81.1 10.8,81 14.2,79.9 
			14.5,79.8 14.4,79.5 		"/>
		<polygon class="st1" points="0.3,81.6 0,81.6 0,81.9 5.1,83.3 0,83.3 0.3,83.3 4.9,83.3 5,83.3 5.1,83.3 6.2,82.1 6.7,81.6 
			6,81.6 		"/>
		<circle class="st1" cx="395.5" cy="317.9" r="2.9"/>
	</g>
	<polygon class="st1" points="698.4,234.4 698.4,234.6 696.1,239.2 695.9,239.5 696.2,239.6 698.5,240.7 698.7,240.8 698.8,240.7 
		702.3,237.2 702.4,237.1 702.4,237 702.4,234.7 702.4,234.4 702.1,234.4 698.6,234.4 	"/>
	<g>
		<polygon class="st1" points="244,137.4 244.4,137.4 245.5,137.4 245.6,137.4 245.7,137.3 248,135 248.1,135 248.1,134.8 
			248.1,133.7 248.1,133.5 247.9,133.4 245.8,132.4 246.9,129.2 247,128.9 246.8,128.8 242.5,126.7 246.9,121.2 247.4,120.6 
			246.6,120.7 240.8,121.9 240.7,121.9 240.7,122 232.6,128.8 232.4,129 232.6,129.3 233.7,130.3 232.6,133.6 232.4,133.9 
			232.8,133.9 238.4,135.1 239.5,137.2 239.6,137.4 239.7,137.4 240.9,137.4 241,137.4 241.1,137.3 243.3,134 244,134 244,137.1 		
			"/>
		<polygon class="st1" points="227.4,136 227.4,134.9 226.8,135.8 223.4,141.6 223.1,142 223.6,142 227.1,142 227.2,142 
			227.3,141.9 228.4,140.8 228.6,140.5 228.4,140.3 227.4,139.3 227.4,137.1 		"/>
		<polygon class="st1" points="156.9,33.9 156.9,33.9 157,33.9 165,28.1 170.7,27 171.1,27 170.9,26.6 168.6,23.1 168.5,23 
			168.4,23 161.5,23 161.4,23 161.3,23.1 153.2,28.8 153.2,28.8 153.1,28.9 150.8,33.5 150.6,33.9 151.1,33.9 		"/>
		<polygon class="st1" points="171.6,20 171.6,20.1 171.8,20.1 173,20.1 173,20.1 173.1,20.1 185.7,15.5 185.9,15.4 185.9,15.2 
			185.9,12.9 185.9,12.6 185.6,12.6 175.2,13.8 175.1,13.8 175.1,13.8 170.5,17.3 170.3,17.5 170.4,17.7 		"/>
		<polygon class="st1" points="197.3,24.7 197.3,24.6 199.7,22.3 199.9,22.1 199.7,21.9 198.5,20.8 198.4,20.7 198.3,20.7 
			197.3,20.7 196.4,19.8 197.3,18.9 197.8,18.4 197.2,18.4 196,18.4 195.9,18.4 195.9,18.4 189.1,20.7 184.6,18.4 184.5,18.4 
			184.4,18.4 178.6,20.7 178.4,20.8 178.4,21 178.4,22.1 178.4,22.3 178.6,22.4 181.6,23.4 179.7,25.4 178.5,26.5 178,27 178.7,27 
			182.2,27 182.2,27 182.3,27 186.9,24.7 197.2,24.7 		"/>
		<polygon class="st1" points="197,15.5 197.1,15.5 197.2,15.5 200.7,14.3 200.7,14.3 200.8,14.3 203.1,12 203.4,11.7 203,11.5 
			200.7,10.4 200.5,10.3 200.4,10.4 198.2,12.6 194.9,11.5 194.5,11.4 194.5,11.8 194.5,14.1 194.5,14.3 194.7,14.3 		"/>
		<polygon class="st1" points="209.7,25.8 209.9,26 210,25.8 213.5,21.2 213.6,20.9 213.5,20.8 211.2,18.5 211,18.3 210.8,18.5 
			208.7,20.6 205.4,17.3 205,17 204.9,17.5 203.8,22.1 203.7,22.3 203.9,22.4 		"/>
		<polygon class="st1" points="215.3,16.4 215.5,17.5 215.8,16.5 217,13 217,12.9 217,12.9 215.8,8.2 215.7,7.5 215.3,8.2 
			214.1,10.5 214.1,10.6 214.1,10.7 		"/>
		<polygon class="st1" points="238.6,15.5 238.9,15.5 238.9,15.2 238.9,8.3 238.9,8.2 238.8,8.2 235.4,2.4 234.8,1.5 234.8,2.6 
			234.8,3.6 231.5,8.2 231.4,8.2 231.4,8.3 230.2,15.2 230.2,15.5 230.5,15.5 		"/>
		<polygon class="st1" points="222.2,24.6 222.2,26.7 222.2,26.9 222.3,27 229.2,30.4 229.3,30.5 229.5,30.5 234,29.3 239.7,30.5 
			239.9,30.5 240,30.3 241.2,26.8 241.2,26.6 241,26.4 235.2,24.2 235.1,24.1 235,24.2 232.8,25.3 226.2,23.1 226.2,21 226.2,20.7 
			226,20.7 220.3,19.6 219.2,18.5 218.7,18 218.7,18.7 218.7,22.1 218.7,22.3 218.8,22.4 		"/>
		<polygon class="st1" points="199.5,37.4 199.6,37.3 199.7,37.3 203.1,33.8 203.2,33.8 203.2,33.6 203.2,30.2 203.2,29.8 
			202.9,29.9 195.9,31 195.7,31.1 195.7,31.3 194.5,38.2 194.5,38.6 194.9,38.5 		"/>
		<polygon class="st1" points="212.2,28.7 212,28.7 211.9,28.8 208.4,33.5 208.3,33.7 208.4,33.8 209.6,35 209.8,35.2 209.9,35 
			213.3,32.8 216.7,32.8 216.9,32.8 217,32.6 218.1,30.3 218.3,29.9 217.9,29.9 216.7,29.9 		"/>
		<polygon class="st1" points="158,40.3 157.4,40.3 157.8,40.7 161.2,45.3 161.3,45.4 161.5,45.4 174.1,45.4 178.7,46.6 178.7,46.6 
			178.8,46.5 186.9,44.2 187.1,44.2 187.1,43.9 185.9,38.2 185.9,33.6 185.9,33.3 185.6,33.3 182.3,33.3 176.6,29.9 176.4,29.8 
			176.2,30 174.2,32 173.2,28.9 173.2,28.7 172.9,28.7 164.6,31 164.3,31.1 164.3,31.4 164.6,34.5 161.5,34.5 161.2,34.5 
			161.2,34.8 161.2,37.1 161.2,37.4 161.5,37.4 167,37.4 168,40.3 		"/>
		<polygon class="st1" points="207.7,63.3 207.6,63.3 204.2,62.1 204.1,62.1 204,62.1 202.9,62.1 202.7,62.1 202.7,62.2 199.2,68 
			199.1,68.1 199.2,68.3 200.3,70.5 200.4,70.7 200.6,70.7 202.9,70.7 203,70.7 203,70.7 205.2,69.6 209.7,70.7 210.2,70.8 
			210.1,70.3 207.8,63.4 		"/>
		<polygon class="st1" points="248.9,67.4 249.1,67.2 256,61.5 256.3,61.3 256.1,61 248.1,52 250.4,46.4 250.4,46.2 250.3,46.1 
			243.4,38 243.4,38 243.3,38 237.5,35.7 237.4,35.6 237.2,35.7 236.1,36.9 228.5,41.2 228.5,40.6 235.3,33.8 235.5,33.6 
			235.3,33.4 234.2,32.3 234,32.1 233.9,32.2 228.1,34.5 228,34.6 228,34.6 223.6,42.2 222.8,40.5 227.3,32.6 227.6,32.2 
			227.1,32.2 220.2,32.2 220,32.2 220,32.3 216.5,35.7 216.5,35.8 216.4,35.8 215.3,39.3 215.3,39.4 215.3,39.5 217.6,45.2 
			217.6,45.4 217.8,45.4 233.5,51 229.1,58.8 229.1,58.8 229.1,58.8 228,63.2 221.3,63.2 221.2,63.2 221.1,63.3 220,64.5 
			219.9,64.5 219.9,64.6 218.7,68 218.6,68.5 219.1,68.4 224.7,67.3 230.2,70.5 229.1,73.8 229,74 229.2,74.1 236.1,78.7 236.5,79 
			236.6,78.5 237.6,72.1 240.7,74.1 240.8,74.2 240.9,74.2 242,74.2 242.2,74.2 242.3,74 245.7,67.1 245.8,66.9 245.7,66.8 
			243.5,64.6 244.5,60.8 248.7,67.1 		"/>
		<polygon class="st1" points="242.8,17.7 241.9,19.5 237.5,18.4 237.4,18.4 237.3,18.4 232.7,20.7 232.2,21 232.7,21.2 235,22.4 
			235.1,22.4 235.1,22.4 240.8,22.4 244.2,24.7 244.4,24.8 244.6,24.6 251.4,17.8 253.5,17.8 253.6,17.8 253.6,17.8 257.1,16.7 
			257.3,16.6 257.3,16.4 257.3,14.3 262.8,13.2 267.4,13.2 267.5,13.2 267.6,13.1 268.7,12 287,5.2 287.1,5.1 287.1,5.1 290.6,1.6 
			291.1,1.1 290.4,1.1 247.8,1.1 247.5,1.1 247.5,1.4 247.5,4.9 247.5,5.1 247.7,5.1 252.3,7.4 252.3,7.5 252.4,7.5 260.9,7.5 
			259.2,9.2 250.2,10.3 246.8,8.1 246.6,8 246.4,8.2 240.7,16.2 240.4,16.5 240.8,16.6 		"/>
		<polygon class="st1" points="72.7,106.6 72.5,107.2 71.4,111.8 71.4,111.9 71.4,112 74.9,117.7 74.9,117.9 75.1,117.9 76.3,117.9 
			76.5,117.9 76.5,117.6 76.5,111.8 76.5,111.7 76.5,111.6 73,107.1 		"/>
		<polygon class="st1" points="70.3,94.4 70,94.6 70.4,94.8 72.7,96 73.1,96.2 73.1,95.7 73.1,92.3 73.1,91.6 72.6,92.1 		"/>
		<polygon class="st1" points="69.6,101.7 71.9,99.4 72.1,99.2 71.9,99 70.7,97.8 70.2,97.3 70.2,98 70.2,99.1 69.1,101.3 		"/>
		<polygon class="st1" points="170.7,247.8 170.9,247.8 170.9,247.8 179.9,247.8 180.3,247.8 180.1,247.4 179,245.1 178.9,245 
			178.9,244.9 174.2,242.6 174.2,242.6 174.2,242.6 170.9,241.5 170.9,241.5 170.7,241.5 170.4,241.3 170.4,241.5 168.4,241.5 
			168.3,241.5 168.2,241.5 165.9,242.6 163.6,243.8 163.1,244 163.6,244.3 165.3,245.1 162.5,246.1 162.5,246.7 170.4,247.7 
			170.4,247.8 		"/>
		<polygon class="st1" points="333.7,75.2 334,75.3 342.1,78.8 342.2,78.8 342.3,78.7 353.8,73 354,72.9 354,72.7 354,70.4 
			354,70.3 353.9,70.3 350.5,65.7 350.4,65.5 350.2,65.5 340,67.8 337.8,65.6 337.7,65.5 337.5,65.5 332.9,66.7 332.4,66.8 
			332.8,67.2 336.1,70.5 333.9,74.9 		"/>
		<polygon class="st1" points="155.5,222.5 155.7,222.5 158,222.5 158.4,222.5 158.3,222.1 157.1,218.7 157.1,218.5 156.9,218.5 
			154.5,218.5 154.3,218.5 154.3,218.7 154.3,219.9 154.3,220 154.3,220 155.5,222.3 		"/>
		<polygon class="st1" points="150.4,246.9 150.3,247 149.2,248.1 148.9,248.5 149.2,248.6 153.8,250.9 154,251 154,250.9 
			157.5,249.8 157.7,249.7 157.7,249.5 157.7,248.3 157.7,248.1 157.5,248.1 150.6,246.9 		"/>
		<polygon class="st1" points="207.5,285.7 207.8,285.8 207.8,285.4 207.8,282.1 210,279.9 210.5,279.4 209.8,279.4 202.9,279.4 
			202.6,279.4 202.6,279.7 202.6,283 201.5,284.1 201.2,284.5 201.7,284.6 		"/>
		<polygon class="st1" points="241.1,521 240.6,520.5 240.6,521.2 240.6,525.7 240.6,525.9 240.7,526 241.8,527.1 242.3,527.6 
			242.3,526.9 242.3,522.3 242.3,522.2 242.2,522.1 		"/>
		<polygon class="st1" points="237.2,524.5 237,524.9 237.4,524.9 238.6,524.9 238.9,524.9 238.9,524.6 238.9,521.2 238.3,521.1 		
			"/>
		<polygon class="st1" points="358.1,119.7 358.1,119.7 358.1,119.8 356.9,123.2 356.7,123.7 357.2,123.6 361.8,122.5 361.9,122.5 
			361.9,122.4 366.5,120.1 366.6,120.1 366.6,119.9 367.7,114.4 368.7,114.4 369,114.4 369,114.1 369,111.8 369,111.7 368.9,111.6 
			366.6,109.3 366.5,109.3 366.4,109.3 364.3,109.3 364.3,109.1 364,109.3 363.7,109.3 363.7,109.4 361.6,110.4 361.6,110.4 
			361.6,110.5 360.5,111.5 359.5,111.5 359.3,111.5 359.3,111.6 358.1,112.7 358,112.8 358,113 358,115.3 358,115.4 358.1,115.5 
			359.2,116.5 359.2,118.6 		"/>
	</g>
	<g>
		<polygon class="st1" points="472.3,185.7 472.4,185.7 475.9,183.3 475.7,182.8 469.9,184 469.1,184.1 469.8,184.5 472.1,185.7 		
			"/>
		<polygon class="st1" points="529.8,381.2 530.2,381.3 530.1,380.8 529,368.2 529,368.1 528.9,368 526.6,365.7 526.5,365.6 
			526.4,365.6 525.2,365.6 525.1,365.6 525,365.8 518.1,378.4 517,379.5 511.3,381.8 511.2,381.8 511.1,381.9 508.8,390 
			508.8,390.1 508.8,390.1 510,395.8 510,396.9 505.4,402.5 505.4,402.7 505.4,402.7 507.7,414.3 507.7,414.4 507.8,414.5 
			511.2,416.8 511.4,416.8 511.5,416.8 518.4,414.5 518.6,414.4 518.6,414.3 526.7,387.9 526.7,387.8 526.7,387.8 526.7,380.1 		"/>
		<polygon class="st1" points="618.7,281.8 618.4,281.2 618.2,281.9 617.1,286.5 615.9,290 615.9,290 615.9,290.1 617,297 
			617.1,297.4 617.5,297.2 623.2,293.7 623.4,293.7 623.4,293.5 623.4,290 623.4,290 623.3,289.9 		"/>
		<path class="st1" d="M769.3,40.7l0.6,0.1l-0.3-0.5l-4.6-8l-0.1-0.2h-0.2l-10.3,1.2l-20.7-6.9h-0.1h-0.1l-13.8,1.2h-0.3v2.3
			l-4.2,1.1l-1-2.1l-0.1-0.2l-0.2,0.1l-13.7,3.4l-8-5.7l-0.1-0.1H692l-10.3,2.3l-11.4-3.4h-14L644.8,31l-0.2,0.1v2.1l-26.1-4.5
			l-13.8-1.2h-0.3v3.3l-6.5-3.2l-0.2-0.1l-0.1,0.1l-7.3,6.2l0.8-2.5l0.1-0.3l-0.3-0.1l-2.8-0.9l6.3-3.2l0.2-0.1v-6.1l-0.2-0.1
			l-7-3.4l-0.1,0.1l-0.1,0.1l-5.6,2.2l-3.3-3.3l-0.1-0.1h-3.7l-0.1,0.1l-2.3,3.4l-0.1,0.1V21l0.1,0.1L573,23h-14.6l-0.1,0.1
			l-13.8,9.2l-0.2,0.1l0.1,0.2l1.2,2.3l1.1,3.4l0.1,0.2l0.2,0.1l5.6,1.1l3,5l-2.7-0.9l-0.2-0.1l-0.1,0.2l-0.9,1.8l-2.1-4.1v-0.1
			h-0.1l-8.1-2.3l-0.2-0.1l-0.1,0.1l-1,1l-5.6-2.3l-0.4-0.2V44l0.1,0.1L540,50l0.1,0.1h4.7l17,9.1v1.6l-5.3-3.2l-0.4-0.3v4.3
			l-5.3-6.3l0,0h-0.1L545,53l-0.2-0.1l-0.1,0.1l-2.3,2.3l-0.1,0.1v3.3l-5,1l2.1-4.1v-0.1V53l-0.2-0.1l-2.2-1.1l-3.4-5.7l0,0l0,0
			l-1.1-1.1l-3.4-6.9L529,38h-6.2l-0.1,0.2l-2.3,5.7l-0.1,0.2l0.2,0.1l6.6,7.7l-2.9,1l-4.5-3.4v-0.1h-6.2V53l-1,1h-2.1l-1.2-1.2
			l-0.2,0.1l-9.1,3.4l-2.2-2.2l-0.2-0.2l-0.2,0.2L486.1,62l-0.9-0.9v-2.3l-0.1-0.1l-4.6-3.4l-0.4-0.4v9.5h-3.3l-0.1,0.1l-3.5,3.5
			l-0.1,0.1v2.1l-5.4-1.1l-0.2-0.1l-0.1,0.1l-1.1,1.1l-0.3,0.2l0.3,0.2l3.2,2.1l-1.9,1.9l-5.5-3.3l-4.3-8.5l10.9,3.3h0.1l0.1-0.1
			l2.3-1.1h0.1l0.1-0.1l2.3-3.4l0.1-0.2l-0.2-0.2l-9.2-6.9l-0.1-0.1h-0.1l-6.9-1.2h-0.1l-0.1,0.1L455,54l-5.6-2.2l-2.3-2.3l-0.1-0.1
			h-0.1l-5.7-1.1h-4.8l-0.1,0.1l-4.6,3.4L426,53h-0.1l-0.1,0.1l-1.2,1.1l-3.4,2.3l0,0l0,0l-1.2,1.2l-3.4,2.3h-0.1l-0.1,0.1l-1.1,2.3
			l-8,11.5l-0.1,0.1v3h-3.3l-0.1,0.1L396,84l-0.1,0.1v0.2l2.3,11.5v2.5l0.2,0.1l4.6,1.2l0.2,0.1l0.1-0.1l5.5-5.4l5.6,12.3l0.1,0.2
			l0.2-0.1l4.6-1.1l0.1-0.1l0.1-0.1l2.3-5.7l2.3-2.3l0,0l0,0l4.6-5.7l0.2-0.2l-0.3-0.2l-4.5-3.3l2.2-6.6l5.7-4.5l0.1-0.1v-0.1l3.4-9
			h1.9l1,2l-2.2,4.5l0,0l0,0l-1.1,3.4l-2.2,2.3l-0.1,0.1l0.1,0.2l1.2,8v0.2l0.1,0.1l4.6,2.3l0.1,0.1l0.1-0.1l9.2-3.4h2.1l0.9,1.9
			l-4.4,3.3l-5.7,1.1l-0.2,0.1v2.7l0.2,0.1l3.2,1l-1,3h-3.5v0.3l-0.1,2.6l-0.4,2.2l-1.7,3.3l-0.1,0.2l-3.5,1l-0.5-1.3l-0.1-0.2h-0.3
			l-6.9,1.2l0,0l-6.9,2.3l-0.2,0.1v1l-5.4-1.1h-0.1h-0.1l-3.3,1.1l-3.2-2.1v-3.3l1.1-3.4v-0.1V99l-0.5,0.5l-3.4,3.4h-0.1v0.1
			l-2.3,4.6l-0.1,0.1l0.1,0.1l1.1,2.2v2.3l0.1,0.1l0.9,0.9l-0.9,0.9l-3.4,1.1l-0.2,0.1l-3.3,1.1H396l-0.1,0.1l-3.3,3.4h-1.2
			l-0.1,0.1l-0.9,0.9l-0.1-0.1l-0.2,0.3l-0.2,0.2h0.1l-2.1,3.2l-2.2,1.1h-0.1v0.1l-2.3,3.4l-3.3,2.2l-2-1.4l-0.1-0.1h-1.4l-0.1,0.2
			l-1.1,3.3h-2l-1.1-1.1l-0.1-0.1h-1.5l-0.1,0.2l-1.2,3.5l0,0v2.6h3.6l4.4,5.5l-1.1,3.3v0.1v6.5c-1.4-0.3-4.9-1-4.9-1l-6.5-1.1
			l-3.1-0.7l-0.2-0.1l-0.1,0.2l-1.1,1.9l-2.1,0.5H358v0.2l-0.1,4.5v4.7l-2.2,7.9l0,0v1.3l0.1,0.1l1,1.1l1.1,5.5l0.1,0.3l0.3-0.1
			l4.2-1.1l2.1,3.2v0.1h0.1l2.2,1.1l0.2,0.1l0.2-0.2l2.1-3.3l4.9-0.8h0.1l0.1-0.1l3.6-3.2l2.7-2.8l0.1-0.1v-0.1l-0.9-5.2l1.4-3
			l3.3-1.5h1.1l0.1-0.1l2.2-1.1l0.1-0.1l0.1-0.1l1-4.2h0.5l0.1-0.2l1.1-2.1l6.7,1.1h0.1l0.1-0.1l3.4-2.3h2.3h0.1l2.2-1.1l2.1,1.1
			l5.7,8l0,0v0.1l6.9,4.6l1.1,1.1l1.2,6.8v0.3h1.6l0.1-0.2l2.3-3.4l0.1-0.1l-0.1-0.1l-1.1-3.2l2-1h2.5v-1.6l-0.1-0.1l-4.6-3.5
			l-0.1-0.1H424l-1.1-1.1l0,0l0,0l-5.7-3.4l-2.2-6.7l1-3l0.3,0.2l0.1,0.1h0.2h0.1l1.4,1.8l0.2,0.3l0.3-0.3l0.8-0.8l1.1,2.4v0.1h0.1
			l2.5,2.5l2,1.7l0,0l0,0l4.4,2.7l0.1,0.1l0.9,0.6l-0.1-0.2l0.3,0.2l0,0l2.3,1.2v4.5l0,0l1.2,4.6v0.2h1.2l2.2,4.4l0.1,0.2h3.5
			l0.8,0.8l-0.8,0.8h-1.4l0.1,0.4l1.2,3.5l0.1,0.2h2.6l0.1-0.1l3.5-2.3l0.2-0.1v-1.4l-0.1-0.1l-3.4-4.5v-3.3l3.3-3.3h5.9V163
			l1.7-1.2l3.2-1.3l0.3-0.1l-0.2-0.3l-2.7-3.9v-3.1h1.1l0.1-0.2l1.1-3.3l0.9-0.2l0.1,0.3l0.2-0.4h0.2l-0.1-0.2l4.4-7.2l5,1.1
			l-0.4,1.7l-0.1,0.2l0.1,0.1l2.7,3l0.2,0.2l0.2-0.1l4.6-2.9l0.3-0.2l-0.2-0.2l-3-3.8l8.2-1.3l-1.6,7v0.2l0.2,0.1l7.3,4.9l4.8,3.5
			l-0.1,3.3l-12.3,1.1l-3.4-2.2l-0.1-0.1l-0.1,0.1l-13.8,3.4l-3.1-0.2h-0.1l-0.1,0.1l-2.6,2.5l-4.6,4.6l-0.2,0.2l0.1,0.2l3.4,5.7
			l1.1,4.5l0.1,0.2h2.4l2.2,2.2l0.1,0.1h0.1l4.6-1.1h0.1l0.1-0.1l1-1l5.6,2.2h0.1h0.1l6.7-1.1l1,2v6.8l-1.1,2.1l0,0L479,191
			l-0.2,0.4l0,0l-3.2,8.6h-1h-0.1l-2.1,1l-1-2l-0.1-0.1h-0.1l-5.8-1.2l-0.2-0.1l-0.1,0.1l-3.3,3.3l-10-3.3v-0.1h-0.3l-0.3-0.1v0.1
			H446l-1.2-2.3h-6h-0.1l-2.3,1.2l-0.1,0.1l-0.1,0.1l-1.1,3.5v0.1l0.1,0.1l1,2.1l-1.9,0.9l-11.4-6.8l0,0h-0.1l-9.2-2.3l-5.6-2.2v-2
			l2.1-1l0.2-0.1v-8.4l-0.2-0.1l-3.4-2.3l-0.1-0.1h-0.2l-3.4,1.1l-17.2,1.2h-0.1l-11.4,4.6H364l-0.1,0.1l-10.4,10.3l-0.1,0.1v0.1
			l-2.3,9.1l-8,6.8l-2.2,1.1h-0.1l-0.1,0.1l-0.8,0.4h0.6l-7.9,15.8l0,0l-3.4,9h-0.1v0.2l-0.1,0.3h0.1v2.1v0.1l1.1,2.2l1.2,10.2
			l-2.3,5.7l-2.3,5.8l-0.1,0.2l0.1,0.1l2.2,2.2v5.3h-0.2l0.2,0.4v0.2h0.1l1.1,2.2l2.3,3.4l0,0l4.5,7.9l-0.1,0.1l0.2,0.2l0.2,0.3
			l0.1-0.1l3.2,3.2l2.3,3.5l0,0l1.1,1.1l0,0l0.2,0.1l0.4,0.4v-0.1l7.7,5.5l2.3,2.3l0.2,0.1l0.2-0.1l2.3-1.1l5.7-1.2h7.8l0,0h0.3h0.3
			l0,0l8.6-1.1v0.2l0.4-0.3h0.2v-0.1l3.2-2.2h3.1v0.1l0.3-0.1h0.3V297l4.1-1l3.4,7.8l0.1,0.2h0.2l6.7-1.1l4.5,5.6l1.1,2.2l-1.1,4.5
			l0,0l-2.3,8.1l-0.1,0.1l0.1,0.1L411,335l0,0l1.9,3.3l0.8,2.4h-0.1l0.1,0.2l0.1,0.4l0.1-0.1l0.3,0.5l0.1,0.2l1.3,2.3l1.1,2.2v5.7
			L419,367l-3.4,4.5l-0.1,0.1v6.8l-2.2,1.1l-0.2,0.1v8.3l0.1,0.1l4.6,6.9l7.9,31.7l0,0l0,0l1.3,2.7l2.3,6.9c0,0,2,8.1,2.3,9.1
			l-1.1,2.2l-0.1,0.1v0.1l2.3,8.1l0.1,0.2h3.8l2.3-2.3l16-3.4l0,0l2.3-1.2l0,0l0,0l4.6-3.5l0,0l0,0l1.2-1.2l0,0l0,0l5.7-9.2l3.4-4.6
			l0.1-0.1v-0.1l1.1-8l1.1-3.4l2.2-2.1h3.5l0.1-0.2l1.2-2.3l0,0l2.3-6.9v-0.1v-0.1l-2.3-9.2V396l1-1h2.4l0.1-0.2l1.1-2.3l1.1-1.1
			c0,0,8.3-7.2,9.1-8h2.4l0.1-0.2l1.1-2.3v-0.1l0,0l1.2-11.5v-0.1v-0.1l-2.3-4.5v-8.1l-0.1-0.1l-1.1-1.1l-1.1-9.1l0,0v-0.1l-1.1-3.3
			l2.2-5.6l1.1-1.1l0.1-0.1v-4.6l2.3-4.5l2.2-3.3h1.2l0.1-0.1l8-11.4l4.5-1.2h0.1l0.1-0.1l4.6-9.2l5.8-10.3l0,0v-0.1l3.5-17.2v-0.2
			l-0.1-0.1l-1.2-1.2l-0.1-0.1l-0.2,0.1l-17.1,5.7l-2-2l0.1-0.1l-0.3-0.1l-0.3-0.2l-0.1,0.1l-1.9-1v-2.2v-0.1l-1-2.1l-0.1-0.2
			l-0.2-0.3l-1-2l-0.1-0.1l-0.1-0.1l-3.4-2.3l-4.6-4.6l-0.1-0.1h-2.2l-2.2-8.8l0,0l-0.1-0.2l-0.1-0.4h-0.1l-2.1-5.3V244v-0.1
			l-3.4-6.9l-1-3.1h0.1l-0.2-0.4l-0.1-0.2l0,0l-12.5-22.8l-0.9-3.5l3.9,3.8l0.4,0.4l0.1-0.5l1.1-5.5h1.8v9.1l0.2,0.1l2.2,1.1
			l5.7,11.4l0.1,0.1l0.1,0.1l2.2,1.1l2.3,10.2v0.1l0.1,0.1l12.6,16v4.4l-0.1,0.1l0.1,0.1v0.8l0.2-0.3l2.1,4.2v2.3v0.1l1.2,2.3v0.1
			v0.1l1.2,1.2l0.1,0.1h1.3h0.1l12.6-4.6l0,0l0,0l10.4-6.9l0.2-0.1v-2.3l0.9-1h2l0.1,0.2l0.3-0.2h0.3l-0.1-0.2l6.7-4.5l0.1-0.1v-0.1
			l10.4-16.1l0.1-0.2l-0.2-0.2l-9.2-10.4L545,222l-2.3-2.3l-0.1-0.1h-1.4l-0.1,0.1l-3.4,5.6h-7.6v-4.4l-0.1-0.1l-2.3-2.3l-0.3-0.3
			l-0.2,0.4l-1.7,5.2v-2.9l-0.1-0.1l-1.5-2.3l2,0.3l0.4,0.1v-0.4l-0.2-2.4l-0.1-0.2l-0.2-0.1l-2.4-0.4l-0.4-0.1l0.1,0.4l0.2,2
			l-0.2-0.3l-4.6-9.2l-1-4.2h4.1l4.5,6.8v0.1h0.1l3.5,2.3l0.1,0.1h2.3l5.7,4.5l0.2,0.2l0.2-0.2l4.4-3.3l0.9,0.9l2.3,4.5l0.1,0.2h5.9
			l6.6,1.1v0.1h0.3l0.3,0.1v-0.1h12.3l5.5,5.5l-0.2,0.3h0.5l0.2,0.2l0.1-0.2h3.2l0.8,0.9l-2.1,2.1l-0.2,0.2l0.2,0.2l5.7,5.7l0.1,0.1
			h2.5l0.1-0.1l1.2-1.1V235v-0.1l1.1-3.3h1.8l1.1,12.4v0.1l0,0l6.9,18.4c0,0,2.1,6.4,2.3,6.9v3.5l0.1,0.1l3.4,2.2l2.3,9.1v0.1
			l0.1,0.1l1.2,1.1l0.1,0.1h2.6l0.1-0.1l3.4-5.7l1.1-1.1l0.1-0.1v-0.1l1.2-11.5v-1.2v-0.1l-1.1-9l2.1-1.1h0.1l0,0l1.1-1.2l0.1-0.1
			l2.3-3.5l1.1-1.1l0,0l0,0l4.6-9.2l2.1-2.1l0.9,0.9l0.3,0.3l0.2-0.4l2.3-4.6l1.2-1.2v-2.1h6.9V228h1.9l2.1,1v4.5v0.1l1.1,2.1
			l-0.1,0.1l0.1,0.2l0.1,0.4l0.2-0.2l8.9,10v7l0.2,0.1l3.5,1.2h0.2l0.1-0.2l3.3-4.3l0.8,0.9l2.3,4.5l1.1,4.6l0,0l3.5,8l1.1,11.4
			l-1.1,3.4l-0.1,0.1l0.1,0.1l1.2,2.3l0,0v0.1l3.4,3.4v2.3l0.1,0.1l0.9,0.7l0.1,4.5h-1.5l0.4,0.5l5.7,6.9l3.4,5.7l0.1,0.1h0.1
			l3.4,1.1l2.3,1.2l0.4,0.2v-2.8v-0.1l-1.1-2.2v-2l-1.2-6.9l0,0V298l-0.9-1.8l0.3,0.1l-0.6-0.6v-0.1h-0.1l-4.5-4.5l-0.1-0.1H682
			l-3.3-4.4v-1.1l-0.1-0.1l-2.3-3.4v-16l1-1h0.8l1.1,3.3l0.1,0.2h3.5l8,7.9l1.1,2.2l-1.1,4.5l-0.1,0.4h1.6l0.1-0.1l11.5-10.4
			l0.1-0.1v-0.2l-1.1-13.8v-0.1l-0.1-0.1l-12.6-16l1.1-5.6l3.3-5.6h3.1l1.1,2.1l0.1,0.2h2.8v-3.5l11.3-5.6h4.7l0.1-0.1l1.2-1.2l0,0
			l0,0l6.9-12.6v-0.1v-0.1l1.2-11.5V199l-0.1-0.1l-9.2-16.1v-0.1l-5.7-5.7l1.1-11.1h2.4l-0.1-0.4l-1.2-3.5l-0.1-0.2h-4.9l-0.1,0.1
			l-2.1,2.1l-6.5-4.3l5.5-8.7l1.9,0.9v3.5l0.2,0.1l3.5,1.1l0.1,0.1l0.1-0.1l3.5-2.3l0.1-0.1v-0.1l0.6,1.2l0.1,0.2h3.4v4.4l0.1,0.1
			l1.2,1.2l0.2,0.2l1.2-1.2l3.7,2.7l0.6,5.1v0.1l0.1,0.1l2.2,2.2l1.1,3.4l0.1,0.1l0.1,0.1l1.1,1.2l0.1,0.1h2.5l0.1-0.1l3.5-3.5
			l0.1-0.1v-3.7l-0.1-0.1l-5.6-8.5l0,0l-0.2-0.2l-0.2-0.2l0,0l-1-1.4l0,0l0,0l-1.1-1.1l-0.1-0.1H727l-1.1-4.3l1.1-2.2l0.1-0.1v-0.1
			l-1.1-4.5l1.1-3.4l0.1-0.1l-0.1-0.1l-1-1.6l0.8-0.3l0.3-0.1l3.1-1l4.5,1.1l0.3,0.1l0.1-0.3l2.3-11.5v-0.1l-1.1-12.7V115v-0.1
			L726,97.7l-0.1-0.1l-0.1-0.1l-8.1-3.5l-0.2-0.1l-0.1,0.1l-3.3,2.2l-7.6-5.4l3.3-3.3v-0.1L708.6,75l16.9-4.5l2.2,2.2l0.2,0.2
			l0.2-0.1l6.9-4.6l0.5-0.3l-0.6-0.2l-3.2-1.1l2.1-7.4l4.3,3.2l0.5,0.3v-6.5l6.3,9.5v9.2L745,75l8.1,11.5l0,0l0,0L765.8,98l0.5,0.4
			v-5.3V93l-2.3-6.9v-3.5v-0.1l-2.2-3.2l1-1l0.3-0.3l-0.3-0.2l-3.5-2.3l-0.1-0.1H757v-2.2l-0.1-0.1l-4.5-3.4l-1.1-5.4l5.5-3.3h2.5
			v-0.2l1.1-9.2l2.3-3.4l0.1-0.1v-2.8l-0.4,0.1l-3.3,1.1l-6.6-3.3l1.1-3.2l0.1-0.1l-0.1-0.1l-0.9-1.9h4.1L769.3,40.7z M466.8,342.9
			v-9.1l0,0l0.1-0.6l1.6,0.8v6.8l1.9,7.6L466.8,342.9z M474.7,324.9L474.7,324.9l0.1-0.1l0.5-0.5H475l2-4.1l3.2-1.1l2.1,1l1,2
			l-0.9,0.9h-0.1l-0.1,0.2l-0.3,0.3l0.1,0.1l-2.1,4.2l-2.2,1.1h-3.2l-1-3.1L474.7,324.9z M522.9,175.9h-4.4l-3.3-5.5l1.1-8.1v-0.1
			l-0.1-0.1l-2.9-4.1l0,0l-6.3-10.6l-1-4.4l2.6-2l7.3-3.6l6.6,3.5l-1.4,3.5l-3.1-0.9l-0.2-0.1l-0.1,0.1l-3.2,3.6l-0.2,0.2l0.1,0.2
			l6.3,8.3l1.2,1.7l0.1,0.2h0.2l2.3-0.4l2.7,3.3l-2.7,1.4l-0.2,0.1l0.1,0.2l3.1,12.5L522.9,175.9z M541.3,146.6L541.3,146.6
			l-0.1,0.2l-0.2,0.3h0.1l-0.5,3.3l-4.8-0.9l0.3-5.3l1.1-1.4l2.2-1.9l2.7,4.2L541.3,146.6z"/>
		<polygon class="st1" points="732.7,215.2 732.7,215.1 732.6,215.1 730.3,213.9 730,213.7 729.9,214.1 728.7,218.7 728.7,218.7 
			728.7,218.8 729.9,223.4 729.9,223.5 729.9,223.5 731,225.8 731.3,226.3 731.5,225.8 733.9,221.2 733.9,221.1 733.9,221 		"/>
	</g>
	<g>
		<polygon class="st1" points="361.2,181.2 361.3,181.3 361.4,181.3 362.7,181.3 362.7,183.3 362.7,183.4 362.7,183.4 363.4,185.4 
			361.4,185.4 361.2,185.4 361.2,185.6 361.2,188.6 361.2,188.7 361.3,188.7 362.5,189.3 359.8,191.4 359.8,191.4 359.7,191.5 
			359,193 358.9,193.2 359.2,193.2 359.9,193.2 359.9,193.2 360,193.2 362.9,191.8 364.4,191.8 364.6,191.8 364.6,191.6 364.6,191 
			368.1,191 368.2,191 368.3,190.9 369,190.2 369,190.2 369.1,190.1 370.6,186.4 370.6,186.3 370.5,186.2 365.3,178.1 366.1,175.2 
			366.1,175.2 366.1,175.1 366.1,174.4 366.1,174.3 366,174.2 363.8,172.8 363.8,171.4 363.8,171.2 363.6,171.2 362.1,171.2 
			362,171.2 362,171.3 359.7,176.5 359.7,176.6 359.7,176.7 		"/>
		<polygon class="st1" points="383.1,214.1 383.2,214.1 383.2,214 384,212.5 384,212.5 384,212.4 384,211 384,210.5 383.7,210.8 
			382.2,212.3 382.1,212.4 382.1,212.4 382.1,214 382.1,214.1 382.3,214.1 		"/>
	</g>
	<g>
		<polygon class="st1" points="656.6,332.8 656.6,332.8 656.6,332.8 658.9,333.6 659,333.6 659.1,333.5 662,329.8 662.1,329.7 
			662.1,329.7 662.1,328.2 662.1,328 661.9,328 660.4,328 660.2,328 660.2,328.2 660.2,328.9 658.2,330.9 657.6,330.3 657.5,330.2 
			657.3,330.3 655.1,331.8 654.8,331.9 655.1,332.1 		"/>
		<polygon class="st1" points="661.3,323.6 661,323.3 661,323.7 661,325.2 661,325.3 661,325.3 662.5,327.6 662.7,327.8 
			662.8,327.5 663.6,326 663.6,325.9 663.5,325.8 		"/>
	</g>
	<g>
		<polygon class="st1" points="247.9,443.8 247.9,443.7 247.8,443.7 247.5,443.7 247.2,443.1 246.8,443.2 246.8,443.9 246.8,444.1 
			247,444.1 247.3,444.1 248.3,446.3 248.7,446.2 248.7,445.4 248.7,445.4 248.7,445.3 		"/>
		<polygon class="st1" points="245.1,429.9 244.9,429.6 243.4,427.4 243.1,427.6 243.9,429.8 243.9,429.9 244,429.9 244.8,429.9 		
			"/>
		<polygon class="st1" points="245.9,435.5 245.7,434.9 245,432.7 244.8,432.1 244.6,432.7 244.2,434 244.2,434.1 244.3,434.2 
			245.4,435.1 		"/>
		<polygon class="st1" points="256,456.4 255.6,456.5 255.9,456.7 258.1,459 258.2,459 258.2,459 259.7,459 259.9,459 259.9,458.9 
			259.9,456.6 259.9,455.9 259.9,455.6 259.7,455.7 		"/>
		<polygon class="st1" points="252.4,451.3 252.3,451.2 252.2,451.2 250.8,451.2 250.3,451.2 250.6,451.5 252.9,453.8 253,453.9 
			253.1,453.8 253.9,453 254,452.9 253.9,452.7 		"/>
		<polygon class="st1" points="262.1,458.7 262.1,458.7 262,458.7 260.5,458.7 260.3,458.7 260.3,458.9 260.3,459.6 260.3,459.8 
			260.5,459.8 262.7,459.8 263.2,459.8 262.9,459.5 		"/>
		<polygon class="st1" points="262.9,452.8 262.9,452.6 262.7,452.7 262.5,452.5 262.5,452.8 260.4,453.5 260.3,453.5 260.3,453.6 
			260.3,454.4 260.3,454.4 260.3,454.5 261,455.8 260.4,456.5 260.3,456.6 260.3,456.7 261.1,458.2 261.1,458.3 261.2,458.3 
			263.3,458.3 263.3,458.3 263.5,458.3 263.7,458.3 263.7,458.3 268.7,457.6 268.9,457.5 268.9,457.4 268.9,456.6 268.9,456.5 
			268.8,456.5 		"/>
		<polygon class="st1" points="397.2,120 397.2,120.1 397.3,120.1 401.8,120.1 401.9,120.1 401.9,120 403.4,117.7 403.5,117.6 
			403.3,117.5 401.8,116.7 401.8,116.7 401.7,116.7 397.2,117.5 397.2,117.5 397.2,117.5 395,118.2 394.6,118.3 394.9,118.5 		"/>
		<polygon class="st1" points="386.6,120.7 386.7,120.7 386.7,120.8 388.2,122.2 388.3,122.4 388.4,122.3 389.8,121.6 390.4,122.2 
			390.4,123.6 389.6,125.8 389.6,125.9 389.7,126 392.7,127.5 392.9,127.6 393,127.4 393.7,124.4 395.9,121.5 396.1,121.3 
			395.9,121.2 392.2,118.2 392.1,118.2 392,118.2 390.5,118.9 386.1,118.9 385.8,118.9 385.9,119.2 		"/>
		<polygon class="st1" points="398.1,121.9 398,122.3 398,122.3 397.9,122.3 397.9,124.3 397.8,124.6 398,124.6 400.3,124.6 
			400.7,124.6 400.4,124.2 398.3,122.2 		"/>
	</g>
	<g>
		<polygon class="st1" points="717.3,304.8 717.3,304.8 711.6,310.5 708.3,310.5 708,310.5 708,310.7 708,311.8 705.8,314 
			705.6,314.1 705.7,314.2 706.8,318.9 710.3,329.2 710.3,329.3 710.5,329.4 713.8,330.5 714.9,332.7 715,332.9 715.2,332.9 
			723.1,332.9 724.2,333.9 724.3,334 724.4,334 726.7,334 726.8,334 726.9,333.9 731.5,329.3 731.6,329.3 731.6,329.1 731.6,325.7 
			732.7,323.5 732.7,323.5 732.7,323.5 735,314.2 735,314.2 735,314.1 732.8,302.8 736.1,299.5 736.1,299.4 736.2,299.4 
			737.3,297.1 737.4,296.9 737.2,296.7 730.3,291 730.1,290.8 729.9,291 725.5,296.6 725.2,296.5 725.2,296.8 725.1,297 
			725.2,297.1 725.2,299.1 723.2,300.1 723.2,300.1 723.1,300.1 722.4,300.5 722.6,300.5 717.3,304.7 		"/>
		<polygon class="st1" points="806.2,462.8 806.3,462.8 806.4,462.7 816.7,447.7 816.8,447.7 816.8,447.6 819.1,433.8 819.1,433.8 
			819.1,433.7 817.9,423.4 817.9,420 817.9,419.9 817.9,419.8 815.6,416.4 815.6,406.2 815.6,406.1 815.5,406 809.9,400.3 
			809.9,382 809.9,381.8 809.6,381.8 806.4,380.7 805.3,367.1 805.2,366.9 805.1,366.8 802.8,365.7 802.5,365.5 802.4,365.8 
			795.5,392.1 793.6,392.1 782.3,382 788,370.6 788.1,370.4 787.8,370.3 776.3,366.8 776,366.7 775.9,366.9 774.8,369.1 
			770.4,370.3 770.2,370.3 770.2,370.4 763.4,380.5 755.6,377.2 755.4,377.1 755.3,377.2 735.8,399 732.5,399 732.4,399 732.3,399 
			714,408.2 712.9,408.2 712.7,408.2 712.6,408.4 708,422.2 708,422.2 708,422.3 709.1,426.6 707.1,426.6 706.9,426.6 706.9,426.8 
			705.7,430.2 705.7,430.3 705.7,430.4 708,440.7 705.7,453.2 701.1,458.9 700.9,459.1 701.2,459.3 705.8,462.8 705.9,462.8 
			706,462.8 714.1,460.5 724.4,460.5 724.4,460.5 724.5,460.5 736,454.7 748.5,453.6 756.3,456.9 756.3,466 756.3,466.5 
			756.8,466.2 764.9,461.1 759.8,469.2 759.6,469.7 760.1,469.7 763.5,469.7 763.7,469.7 763.8,469.6 766.6,465.8 765.6,475 
			763.3,477.2 763.1,477.5 763.3,477.7 771.4,485.7 771.6,485.9 771.8,485.7 773.8,483.6 776,486.8 776.1,487 776.3,486.9 
			787.8,483.5 787.9,483.5 787.9,483.4 802.8,463.9 		"/>
		<polygon class="st1" points="771.8,495.6 770.6,492.8 770.4,492.5 770.1,492.8 767.9,494.5 767.9,494.5 767.8,494.6 766.7,499.2 
			765.6,502.7 765.5,502.8 765.6,502.9 767.9,505.2 768.1,505.4 768.3,505.3 770.6,504.1 770.6,504.1 770.6,504.1 775.2,500.7 
			775.3,500.6 775.3,500.4 775.3,495.9 775.3,495.6 775,495.6 		"/>
		<polygon class="st1" points="832.8,502.6 832.7,502.3 832.4,502.5 820.9,511.7 820.9,511.8 820.8,511.8 819.8,514 816.5,514 
			816.4,514 816.3,514 806,520.9 805.8,521 805.8,521.2 805.8,525.7 805.8,526 806.1,526 813,526 813.1,526 813.2,526 815.5,523.7 
			823.5,517.9 826.9,516.8 827.1,516.8 827.1,516.7 828.3,513.3 835.1,507.6 835.3,507.4 835.2,507.2 		"/>
		<polygon class="st1" points="854.7,493.4 851.3,490 852.5,480.9 852.5,480.9 852.4,480.8 851.3,477.4 851.2,477.2 851,477.2 
			849.9,477.2 849.6,477.2 849.6,477.4 848.4,490 842.8,496.7 840.6,496.7 840.4,496.7 840.4,497 838.1,507.3 838,507.6 
			838.4,507.6 839.5,507.6 839.6,507.6 839.7,507.6 850,497.3 853.3,497.3 853.5,497.3 853.6,497.1 854.8,493.6 854.8,493.5 		"/>
		<polygon class="st1" points="763.8,171.8 763.8,171.7 764.9,167.3 765.7,167.3 766.8,168.4 767.1,168.7 767.2,168.3 768.4,166 
			768.4,165.9 768.4,165.8 767.3,160 767.2,160 767.2,159.9 765,157.7 765,156.8 766,155.7 766.2,155.6 766.1,155.4 762.6,147.4 
			762.6,147.3 762.6,147.3 756.8,141.5 756.5,141.1 756.3,141.6 755.2,146.2 755.2,146.3 755.2,146.4 757.5,152.1 757.5,158.8 
			754.1,162.2 754,162.3 754,162.4 754,164.6 751.8,166.8 749.6,167.9 749.5,167.9 749.5,168 744.9,173.7 744.3,174.4 745.2,174.2 
			754.2,171.9 755.2,174 755.3,174.3 755.5,174.2 763.6,171.9 		"/>
		<polygon class="st1" points="747.5,177 747.3,177.1 742.7,178.2 742.5,178.3 742.5,178.5 742.5,182 742.5,182.2 742.8,182.2 
			744.8,182.2 744.8,185.4 744.8,185.5 744.9,185.5 746,187.8 746.1,188.1 746.4,188 749.8,186.8 749.9,186.8 750,186.7 
			751.1,183.2 751.2,183.1 751.1,182.9 747.7,177.2 		"/>
		<polygon class="st1" points="752.2,174.9 752,174.6 751.8,174.9 749.5,177.2 749.3,177.3 749.5,177.5 751.8,181 752.1,181.5 
			752.3,180.9 753.4,176.3 753.5,176.1 753.4,176 		"/>
		<polygon class="st1" points="750.6,135.9 750.6,136 750.6,140.5 750.6,140.8 750.9,140.8 753.2,140.8 753.3,140.8 753.4,140.7 
			754.5,138.5 758.9,138.5 759.1,138.5 759.2,138.4 762.6,133.8 762.8,133.6 762.6,133.5 758,128.9 757.9,128.8 757.9,128.8 
			749.8,126.5 749.4,126.4 749.4,126.8 749.4,130.2 749.4,130.3 749.5,130.3 751.7,134.8 750.6,135.8 		"/>
	</g>
	<g>
		<polygon class="st1" points="339.7,51.9 338.8,51.8 327.9,49.6 333,45.5 333.9,46.5 334,46.5 334,46.5 340.9,51.1 341.1,51.3 
			341.3,51 344.8,45.3 344.9,45.1 344.7,44.9 340.1,41.5 339.9,41.3 339.8,41.4 337.9,42.4 337.9,39.7 346.8,39.7 347,39.7 
			347.1,39.5 351.7,29.2 351.8,28.7 351.4,28.7 343.8,28.7 345.8,23.6 352.5,25.9 352.8,26 352.8,25.6 352.8,18.7 352.8,18.4 
			352.6,18.4 347.1,18.4 347.1,16.6 357.2,13.2 357.4,13.1 357.4,12.9 357.4,11.9 358.4,10.9 360.5,10.9 362.8,12 362.9,12.1 
			363.1,12 366.5,9.7 366.9,9.5 366.5,9.2 360.8,5.8 360.6,5.7 360.5,5.8 346.9,10.3 346.2,9.6 352.6,7.5 352.6,6.9 339.7,6.9 
			353.8,2.9 354.1,2.8 354,2.5 352.8,0.2 352.7,0 352.6,0 300.8,0 300.7,0 300.6,0.1 293.8,5.7 290.5,4.6 290.3,4.6 290.2,4.6 
			276.5,13.8 263.9,14.9 263.5,15 263.6,15.3 264.8,18.8 264.8,18.8 264.9,18.9 266,20 266.1,20.1 266.2,20.1 270.5,20.1 
			270.5,21.8 266.2,21.8 265.9,21.8 265.9,22.1 265.9,24.4 265.9,24.5 266,24.6 267.1,26.9 267.2,27 267.4,27 274.2,27 278.7,28.1 
			280.9,33.7 279.7,41.6 279.7,42.1 280.1,42 283.3,40.9 284.3,46 281.2,46 280.7,46 280.9,46.4 282.1,48.7 282.1,48.8 282.2,48.8 
			284.3,49.9 283.2,53.1 282.2,55.2 277.7,55.2 277.6,55.2 277.5,55.3 274,59.9 274,60 274,60.1 274,65.8 274,66 274.1,66 
			275.1,67.1 275.1,71.4 273,72.5 272.8,72.6 272.8,72.8 276.3,84.3 276.3,84.5 276.6,84.5 279.8,84.5 282.1,89 282.2,89.2 
			282.4,89.1 285.9,87.9 286,87.9 286,87.8 296.4,71.8 303.2,68.4 303.2,68.3 303.3,68.3 305.4,66.2 307.5,67.2 307.7,67.3 
			307.9,67.2 311.3,63.8 319.2,58.1 323.7,59.2 323.8,59.2 323.9,59.2 338.9,52.3 		"/>
		<polygon class="st1" points="412.7,109.9 412.7,109.5 412.7,107.2 412.7,107.1 412.6,107 410.3,104.7 410,104.4 409.9,104.8 
			408.7,108.3 408.6,108.5 408.9,108.7 412.3,109.8 		"/>
		<polygon class="st1" points="420.6,180.2 420.7,179.7 422,174.3 422.1,174 421.8,173.9 413.6,172.5 413.3,172.4 413.3,172.8 
			413.3,173.9 413.3,174 413.4,174.1 420.3,179.9 		"/>
		<polygon class="st1" points="402.9,164.7 402.9,169.3 402.9,169.7 403.3,169.6 405.9,168.6 406.1,168.5 406.1,168.3 405.8,164.7 
			405.8,164.4 405.5,164.4 403.2,164.4 402.9,164.4 		"/>
	</g>
	<g>
		<polygon class="st1" points="446,183.8 446.2,183.8 453.2,185.1 453.5,185.2 453.6,184.9 454,182.9 454.1,182.6 453.7,182.5 
			445.8,182 445.4,181.9 445.5,182.3 446,183.6 		"/>
		<polygon class="st1" points="735.9,240.2 735.7,240.4 734.5,241.5 734.5,241.6 734.5,241.7 734.5,252 733.4,253 733.2,253.2 
			733.4,253.4 738,259.2 738,259.2 738,259.2 739.2,260.3 739.2,260.4 739.2,260.4 742.7,262.7 742.7,262.7 742.8,262.7 
			747.4,262.7 747.8,262.7 747.7,262.4 746.5,258.9 746.5,258.7 746.3,258.7 744,258.7 741.9,257.7 740.8,253.3 743,249.9 
			743.1,249.8 743.1,249.7 740.8,242.8 740.7,242.7 740.6,242.6 736,240.3 		"/>
		<polygon class="st1" points="743.7,268.6 743.7,269.3 743.7,273.9 743.7,274.6 744.1,274.1 746.5,271.9 746.6,271.6 746.5,271.4 
			744.1,269.1 		"/>
		<polygon class="st1" points="746.8,268.1 746.8,268.1 748.4,269.6 748.9,270 748.9,269.3 748.9,268.2 748.9,268.1 748.8,268.1 
			747.7,265.8 747.5,265.4 747.2,265.7 746,266.8 745.9,267 746,267.2 		"/>
		<polygon class="st1" points="753.5,269.3 753.5,265.9 753.5,265.4 753,265.6 750.7,266.8 750.5,266.9 750.6,267.2 751,267.9 
			751.1,267.9 751.1,268 753,269.6 753.5,270 		"/>
		<polygon class="st1" points="748.4,279.9 749,280.2 748.8,279.6 747.7,275 747.4,274.1 747.1,275 746,278.5 745.9,278.7 
			746.1,278.8 		"/>
		<polygon class="st1" points="751.7,292.6 751.9,292.6 756.6,293.8 756.9,293.8 756.9,293.5 756.9,290.5 758.8,291.5 759,291.6 
			759.2,291.3 760.3,289 760.4,288.9 760.3,288.8 758.1,279.6 758,279.5 757.9,279.4 755.6,278.3 755.4,278.2 755.2,278.4 
			751.8,282.9 748.5,284 748.3,284.1 748.3,284.3 748.3,287.7 748.3,288 748.6,288 751.7,288 751.7,292.3 		"/>
		<polygon class="st1" points="734.5,271.9 734.5,272.8 734.5,277.3 730,281.8 729.8,281.9 729.9,282.1 731,284.4 731.2,284.8 
			731.5,284.5 735,279.9 735,279.9 735,279.8 736.1,277.6 737.3,276.4 737.4,276.3 737.3,276.1 735,272.6 		"/>
		<polygon class="st1" points="752,271 751.8,271.5 750.8,273.2 750.6,273.4 750.8,273.5 752.9,276.4 753.5,277.1 753.5,276.2 
			753.5,273.9 753.5,273.9 753.4,273.8 752.3,271.5 		"/>
		<polygon class="st1" points="693.3,342.1 693.5,342 696.9,339.7 697,339.6 697,339.5 697,331.4 697,331.3 697,331.3 684.3,312.9 
			678.6,305.9 678.5,305.9 678.5,305.9 676.2,304.8 672.8,299.1 672.7,299 672.6,299 664.6,297.8 664.2,297.8 664.2,298.1 
			664.2,299.2 664.2,299.3 664.3,299.5 671.1,306.3 671.1,309.6 671.1,309.8 671.3,309.8 673.5,310.9 675.8,316.6 675.8,316.6 
			675.8,316.6 681.5,325.8 681.5,330.3 681.5,330.4 681.6,330.5 693.1,342 		"/>
		<polygon class="st1" points="696.6,323.8 696.5,324.5 696,326.5 696,326.7 696.2,326.8 698.9,328.2 699.3,327.8 697,324.4 		"/>
		<polygon class="st1" points="750.3,322 749.8,321.9 743.2,320.8 744.2,317.7 745.3,315.7 752,316.8 752.1,316.8 752.2,316.7 
			755.6,314.4 755.8,314.3 755.8,314.2 755.8,311.9 755.8,311.4 755.3,311.6 753.1,312.8 744,312.8 743.9,312.8 743.8,312.8 
			741.5,313.9 741.5,314 741.4,314.1 739.1,318.6 739.1,318.7 739.1,318.8 739.1,321 735.6,332.5 735.6,332.7 735.7,332.8 
			737.9,335 739.1,343 739.1,343.4 739.5,343.2 741.8,342 741.9,342 741.9,341.8 743.1,332.6 743.1,332.6 743.1,332.6 743.1,332.5 
			746,337.3 746.1,337.5 746.3,337.5 747.4,337.5 747.7,337.5 747.7,337.2 748.9,330.3 748.9,330.2 748.8,330.1 745.5,326.8 
			749.9,322.4 		"/>
		<polygon class="st1" points="764.4,320 765.1,323.5 765.3,324.3 765.7,323.5 767.2,320.1 767.3,320 767.3,319.9 767.3,315.3 
			767.3,315.3 767.3,315.2 764.9,309.5 764.8,309.1 764.5,309.4 763.3,310.5 763.2,310.6 763.2,310.8 		"/>
		<polygon class="st1" points="768.2,331.1 768,331.1 764.6,332.3 764.2,332.5 764.5,332.8 765.6,333.9 765.7,334 765.8,334 
			768.9,333.9 772.7,335.2 772.8,335.2 772.9,335.1 774.1,333.9 774.4,333.6 774,333.5 		"/>
		<polygon class="st1" points="736,353.6 736,353 730.2,351.9 729.9,351.8 729.9,352.1 729.9,354.4 729.9,354.8 730.2,354.7 		"/>
		<polygon class="st1" points="746.5,354.7 746.5,354.4 746.5,353.3 746.5,353 746.3,353 739.4,353 739.2,353 739.2,353.1 
			738,354.2 737.5,354.7 738.2,354.7 746.3,354.7 		"/>
		<polygon class="st1" points="735.7,358.8 735.8,359 735.9,359 739.2,360.4 739.6,360.6 739.6,360.2 739.6,359 739.6,358.8 
			739.4,358.7 736,357.6 735.5,357.4 735.6,357.9 		"/>
		<polygon class="st1" points="700,328.3 700.2,328.3 701.4,328.3 701.8,328.3 701.6,327.9 699.3,323.2 699.2,323.1 699.1,323.1 
			697.9,323.1 697.5,323.1 697.7,323.5 699.9,328.1 		"/>
		<polygon class="st1" points="715.1,353.5 715.1,353.6 715.2,353.6 721,352.4 721.1,352.4 721.1,352.3 722.3,351.2 722.4,351.1 
			722.4,351 722.4,349.8 722.4,349.6 722.2,349.5 717.7,348.4 716.6,346.2 716.5,346.2 716.5,346.1 711.9,343.8 711.7,343.8 
			711.6,343.8 709.4,344.9 698,342.6 697.9,342.6 697.9,342.6 696.7,342.6 696.6,342.6 696.6,342.7 693.1,346.2 692.7,346.5 
			693.2,346.7 697.7,347.8 698.8,349.9 698.9,350.1 699.1,350.1 708.2,350.1 		"/>
		<polygon class="st1" points="778.3,328.2 778.4,328.3 778.5,328.3 779.4,328.3 779.4,329 777.2,330 776.9,330.2 777.1,330.5 
			779.3,332.6 778.2,334.7 778.1,334.9 778.3,335.1 779.4,336.2 779.6,336.4 779.8,336.2 782,334.1 794.3,341.9 795.6,352.6 
			795.6,352.8 795.8,352.8 800.2,354.7 806,358.1 806.4,358.4 806.4,357.9 806.4,355.7 809.7,353.5 811.9,352.5 816.3,355.8 
			819.7,362.6 819.7,362.7 819.9,362.8 826.8,363.9 827.4,364 827.1,363.5 820.3,351 822.5,346.5 822.6,346.3 822.4,346.2 
			816.8,341.6 816.8,338.3 816.8,338.2 816.7,338.1 813.2,334.7 813.2,334.6 813.2,334.6 803,329 803,328.8 802.7,328.8 
			802.4,328.7 802.4,328.8 799.3,328.8 797.1,327.8 794.8,325.5 794.7,325.4 794.6,325.4 793.5,325.4 793.3,325.4 793.2,325.5 
			788.8,331.1 783.4,328.9 783.4,323.4 783.4,323.2 783.3,323.2 778.7,319.7 778.4,319.5 778.2,319.8 776,323.2 775.9,323.3 
			775.9,323.4 775.9,325.7 775.9,325.8 776,325.9 		"/>
		<polygon class="st1" points="761.5,335 761.7,334.8 762.9,333.6 763.1,333.4 762.9,333.2 761.7,332.1 761.6,332 761.5,332 
			759.2,332 758.5,332 759,332.5 761.3,334.8 		"/>
		<polygon class="st1" points="760.2,355.9 761.2,355.4 760.1,355.3 757.1,355 757,355 756.9,355 749.6,358.8 749.4,358.8 
			749.4,359 749.4,360.2 749.4,360.6 749.8,360.4 		"/>
		<polygon class="st1" points="531.9,401.5 531.8,401.1 531.4,401.3 529.1,402.5 529,402.6 529,402.7 529.3,405.3 529.3,405.6 
			529.5,405.6 531.8,405.9 532.2,405.9 532.1,405.6 		"/>
		<polygon class="st1" points="546.1,388.7 545.8,388.5 545.7,388.8 545,392.5 544.9,392.8 545.2,392.8 547.5,393.1 547.7,393.1 
			547.8,392.9 549.1,390.5 549.2,390.2 548.9,390.1 		"/>
		<polygon class="st1" points="506.7,368.6 506.9,368.7 509.2,368.9 509.4,369 509.5,368.8 511.3,366.1 511.7,365.7 511.1,365.7 
			506.7,365.5 506.3,365.5 506.4,365.8 506.7,368.4 		"/>
	</g>
	<g>
		<polygon class="st1" points="415.7,182.9 415.9,183.5 416.5,186 416.6,186.6 417,186.2 418.4,184.4 418.7,184.1 418.3,184 
			416.3,183.1 		"/>
		<path class="st1" d="M275.7,340.6v-0.1l-0.1-0.1l-13.8-9.2h-0.1h-0.1l-12.6-2.3l-4.5-2.3l-4.6-4.6v-0.1l0,0l-2.3-1.1l-0.2-0.1
			l-0.1,0.1l-3.4,2.2h-3.4h-0.1l-0.1,0.1l-1.9,0.9v-0.6l2.2-2.2l0,0v-0.1l1.1-2.2l4.5-2.3l0.4-0.2l-0.3-0.3l-3.4-3.4l-4.5-9l0.1-0.1
			l-0.2-0.1l-0.1-0.3l-0.1,0.2l-7.8-4.5l-2.3-2.3l-0.1-0.1l-0.1,0.1l-5.6,1.1l-7.7-8.8l0,0l-0.3-0.3l0,0l-0.2-0.2l0,0l-9-9l-0.1-0.1
			h-0.1l-5.8-1.2h0h-0.1l-2.2,1.1l-9-2.3l-4.6-5.7l-0.2-0.2l-0.2,0.2l-1.1,1.1l-0.1,0.1v0.1v1.1v0.1l0.1,0.1l0.8,0.8l-3,1l-0.1,0.1
			l-0.1,0.1l-1.1,2.3v0.1v0.1v3.3l-1.7,0.9v-5.1v-0.2v-0.5v-0.5l2.3-3.4l0.2-0.3l-0.3-0.2l-2.3-1.1l-0.1-0.1l-0.1,0.1l-9.2,4.6h-0.1
			l-0.1,0.1l-5.6,9l-5.5-3.3l-0.1-0.1h-0.1l-9,1.1l-3.3-5.5l2.3-17l0.2-0.1l-0.2-0.2l0.1-0.4l-0.3,0.2l-4.4-4.4l-0.1-0.1h-0.1
			l-8-1.1l0,0l-1.7-0.4l0.7-1.5V252v-0.1v-4.5l6.9-13.7l0.2-0.4l-0.5,0.1l-11.5,1.1h-0.2l-0.1,0.2l-1.2,4.6c0,0-0.8,2.6-1.1,3.3
			l-10,1.1l-6.7-8.9l2.3-13.7l2.3-6.8l11.4-14.8h7.9l8,4.6l0.3,0.2l0.1-0.4l1.1-5.4l4.3,1.1l9,2.2l2.3,17.1v0.3h0.2h2.3h0.1l0.1-0.1
			l2.3-2.3l0.1-0.1v-0.1l1.1-5.8l0,0l0,0v-10.3l4.5-10.1h2.1h0.1h0.1l13.8-10.4l0.1-0.1v-0.1v-8l2.9-5.8l0,0l1.2,4.6l0.1,0.6
			l0.4-0.5l5.8-8.1l0,0l0,0l1.1-3.3l10.2-1.1h0.1l0.1-0.2l1.1-2.3v-0.2l-0.1-0.2l-1-1l2.2-5.4h3.2h0.1l0.1-0.1l9.1-5.7h1.9v0.8
			l-1.1,2.2v0.1v0.1v3.4v0.5l0.4-0.2l11.5-5.8l0.3-0.2l-0.3-0.3l-5.7-5.6v-4.5v-0.1v-0.1l-0.9-1.9h3h0.2l0.1-0.2l1.1-2.3l0.2-0.3
			l-0.3-0.1l-4.6-1.2h-0.1l-0.1,0.1L200.4,138l-2,1l-1-3l18.2-12.5h17.2h0.1h0.1l12.7-6.9l0.1-0.1l0.1-0.1l1.1-3.4l0.1-0.3l-0.3-0.1
			l-5.8-1.1l-0.1-0.1l-0.1,0.1l-3.3,2.2l-0.8-0.8l4.4-5.5l0.1-0.1v-0.1v-4.6v-0.2l-0.2-0.1l-2.1-1.1v-4.4l-1.1-11.5l-0.1-0.5
			l-0.4,0.3l-6.7,5.6l-5.4-4.3l2.2-4.4l0.1-0.2l-0.2-0.1l-6.9-5.8l0,0l0,0l-6.9-3.4l-0.3-0.1l-0.1,0.3l-5.7,13.7l-4.5,2.3l-0.2,0.1
			V89l-1.1,10.2l-10.2,4.5l-0.2,0.1v0.2v6.8l-2.3,5.6l-1.1,1.1l-2.1,1l-0.9-0.9v-3.3v-0.1l-0.1-0.1l-2.2-2.2l3.4-7.9l0.1-0.2
			l-0.2-0.1l-5.7-4.6l-5.7-6.9l-0.1-0.1h-0.1h-4.4l-1-2l2.2-3.3l0.1-0.2l-0.2-0.2l-1.1-1.1v-2.1l5.6-6.8l12.6-6.9l0.6-0.3L188,69
			l-6.8-2.2l-0.9-2.8l7.5,2.2l0,0h0.1h8.1h0.2l0.1-0.2l1.1-2.3l0.1-0.3l-0.3-0.1l-4.2-2.1l2.9-1.9l4.4,2.2l0.1,0.1h0.1l5.7-2.3h1.1
			l0,0l0,0l9.2-2.3l0.1-0.1l0.1-0.1l3.5-8.1l0.1-0.3l-0.3-0.1l-5.8-1.1l-0.2-0.1l-0.1,0.1l-6.6,6.6l-3.2-8.6l2.2-2.2l0.1-0.1v-0.1
			v-6.9v-0.5l-0.4,0.3l-10.3,5.7l-0.2,0.1l0.1,0.2l1.1,3.4v1l-7.5,8.5v-3.8v-0.1l-0.1-0.1l-1.1-1.1h-0.1h-0.1l-3.5-1.2h-0.2
			l-0.1,0.1l-2.2,2.2l-9-3.4h-0.1h-0.1h-5.7h-0.1l-0.1,0.1l-4.4,4.4l-2.1-3.2l-0.1-0.1H160l-6.5-1.1l2-3.1l0.2-0.3l-0.3-0.2
			l-9.9-5.7l-0.1-0.1h-0.1L142,39l-2.2-3.3l-0.2-0.3l-0.2,0.3l-1,1l-4.4-1.1h-0.1h-0.1L119,37.9l-4.2-3.2v-0.1l-0.3-0.2l-0.2-0.1
			l0,0l-13.6-8h-0.1h-0.1l-15,1.2h-0.1l0,0L74,32.1l-5.6-4.5l-0.3-0.2l-0.2,0.3L66.8,30v0.1v0.1v7.9l-3.1,2l-2.1-3.2l-0.2-0.2
			l-0.3,0.2l-10.3,6.9l-0.5,0.3l0.6,0.2l7.6,2.2l-4.2,4.1l-5.6-1.1h-0.1l-0.1,0.1L37,55.2l-0.1,0.1l-0.1,0.1l-3.5,10.4l0,0.2
			l0.3,0.1l5.2,2.1l-11,6.6L18.6,77h-0.1l-0.1,0.1l-1.2,1.1l-0.5,0.5h0.7h11.5H29h0.1l20.7-10.4l0.2-0.1V68v-2l11.3-4.5h1l0.8,0.8
			l-7.7,3.3l-0.1,0.1v0.1L54.1,68L54,68.3l0.3,0.1l2.3,1.2l0.1,0.1l0.1-0.1l9.1-4.5l7.9,4.5l3.4,8l0.1,0.3l0.3-0.1l4.2-2.1v1.8
			l-2.3,9.2c0,0-0.9,4.8-1.1,5.6l0,0v0.1l0,0L78.3,93l0,0l-1.1,6.3l-1.2,8.1v0.1l0.1,0.1l4.5,7.9l-4.3,7.5l-2-3.1l-0.1-0.1H74h-2.3
			h-0.2l-0.1,0.1l-17.3,31l0,0v0.1v8v0.1v0.1l1.1,3.2l-3.2,1l-0.2,0.1v0.2v10.4v0.1l0.1,0.1l5.7,6.8v3.1v0.3v0.3v7.7l0,0l0,0l1.1,9
			l-2.1,1.1l-0.3,0.1l0.2,0.3l2.3,3.4c0,0,3,3.9,3.4,4.5v10.3v0.1v0.1l2.3,4.6l0.2,0.4l0.3-0.3l2.3-2.3l0.1-0.1l-0.1-0.2l-2.3-6.9
			v-10.3l0,0V206l-3.4-11.4l2.1-6.3l2,2.9l2.3,13.7l0,0l0,0l3.5,11.5l0,0l0,0l4.6,10.3L75,237v0.1l0.1,0.1L86.6,251l0,0l0,0l9.2,4.6
			l0.1,0.1l0.1-0.1l3.4-1.1c0,0,3.5-0.9,4.4-1.1l4.4,6.6v0.1l0.1,0.1l0.3,0.4l0.1-0.1l2,2l0,0l0,0l3.2,2.2v0.1l0.3,0.1l0.2,0.2V265
			l5.5,2.2l0.1,0.1l0.1-0.1l1.9-1v0.6l-1.1,2.2l-0.1,0.1v0.1l3.5,9.2l1.2,3.4v0.1l0,0l1.1,1.1l0.2,0.1l0.2-0.1l2.1-1.1l4.3,4.3
			l-0.2,0.2h0.4l0.2,0.2l0.1-0.2h0.8l3.4,4.5l0.1,0.2l0.2-0.1l2.3-1.2l0.2-0.1v0.3v-2.1l3-1l3.3,5.5v17.1l-2.3,4.5
			c0,0.1-2.3,3.4-2.3,3.4l-4.6,8.1v0.1v0.1v5.7v0.5l0.4-0.2l1.9-0.9v2.8l-2,2.1l-0.3-0.2l0.1,0.5l-0.2,0.2l0.2,0.1l1.1,9.1v0.1
			l0.1,0.1l6.9,6.8l2.3,6.8l9.2,21.9v0.1h0.1l10.4,6.9c0,0,5.2,4.2,5.7,4.5l1.1,2.2l3.4,29.9l5.8,50.6l0,0v0.1l2.3,5.7v4.5v0.2
			l0.2,0.1l3.5,1.1l2.1,1.1l3.4,15.6h-1.9h-0.2l-0.1,0.2l-1.1,2.3l-0.1,0.2l0.2,0.2l4.5,3.4v3.3v0.1l0.1,0.1l2.3,3.4l1.1,4.5v0.1
			l0.1,0.1l3.4,3.4v1v0.1l0.1,0.1l2.3,2.3l0.1,0.1h0.1h2.1l1,2.1v1.1v0.2l0.2,0.1l2.3,1.1h0.1h0.1h2.3h0.3v-0.4v-3.3l2.2-2.2
			l0.1-0.1v-0.1V526v-0.3v-0.3v-0.9v-0.1v-0.1l-2.3-4.5l3.4-10.3l0,0v-0.1V506v0l-0.2-0.1l-6.5-3.3l4.2-3.2l0.1-0.1v-0.2v-12.6v-0.1
			l-0.1-0.1l-1.1-1.2l-0.1-0.1h-0.1h-2.1l-1-4h3l1.1,1.1l0.2,0.2l0.2-0.2l2.3-2.3l0.1-0.1v-0.1v-2.3v-0.1l-0.1-0.1l-1.1-1.1v-1.9
			h4.3h0.1l0.1-0.1l5.8-3.4l0.1-0.1v-0.1l2.3-6.9l0.1-0.2l-0.2-0.1l-5.7-3.4l-2.3-6.8l-0.6-3.2l1.1,3.4l0,0l0,0l1.2,2.3l0.1,0.1
			l0.1,0.1l3.4,1.1h0.1l0,0h2.3h0.1h0.1l3.5-1.1l0.1-0.1v-0.1l3.4-5.7l1-1l0.1,0.1l0.1-0.3l0.2-0.2l-0.1-0.1l3.3-6.6l1.1-1.1
			l0.1-0.1v-0.1l1.1-4.5l1.1-1.1l0.1-0.1v-0.1l-1.1-15.9l18.3-11.4l0.1-0.1v-0.1l4.6-20.7v-0.1l0,0l-1.1-14.8l2.2-3.3l2.2-1.1h0.1
			V367l6.9-14.9V352v-0.1L275.7,340.6z M175.6,383.1v-1.9h0.8l3.1,2.1l-1.9,1.9L175.6,383.1z"/>
		<polygon class="st1" points="232.9,319.4 232.9,319.5 231.3,321.3 230.8,321.9 231.6,321.8 232.9,321.6 232.9,321.6 232.9,321.6 
			236.4,320.5 236.5,320.5 236.5,320.3 237.7,318.1 238,317.4 237.3,317.7 233,319.4 		"/>
	</g>
	<g>
		<path class="st1" d="M507.9,45.9l-0.2,0.1l-1.1,1.1l-0.2,0.2l0.2,0.2l3.4,3.4l0.5,0.5v-0.7v-3.4v-0.2l-0.2-0.1L507.9,45.9
			L507.9,45.9z M508,46.6l1.9,1v2.6l-2.8-2.7L508,46.6z"/>
		<path class="st1" d="M746.5,112.1v-0.3v-1.2v-0.1l-0.1-0.1l-5.8-4.6c0,0-4.2-3.2-4.6-3.4l-8.1-10.3L728,92h-0.1h-1.1h-0.3v0.3v4.6
			V97l0.1,0.1l4.6,5.8l0,0l0,0l5.7,5.7l4.6,10.3v0.1l0.1,0.1l5.8,4.6l0.3,0.3l0.1-0.4l1.1-4.6l0.1-0.2l-0.1-0.1l-5.4-6.4h2.8
			L746.5,112.1L746.5,112.1z"/>
		<path class="st1" d="M727.9,21.3L727.9,21.3l0.1-0.1l1.2-1.1l0.5-0.5H729h-4.6h-0.1l-0.1,0.1l-2.3,2.3l-0.7,0.7l0.9-0.2
			L727.9,21.3z M724.5,20.1h3.8l-0.6,0.6l-4.7,0.9L724.5,20.1z"/>
		<polygon class="st1" points="497.4,47.7 497.5,47.7 497.7,47.7 504.6,46.6 505.6,46.4 504.6,46 499,43.8 497.9,38.2 497.8,38 
			497.7,38 495.4,36.8 495.2,36.7 495.1,36.9 490.5,41.5 490.3,41.7 490.5,41.9 		"/>
		<polygon class="st1" points="499.8,35.1 500,35.1 500.1,35 507,28.1 515,25.9 515.6,25.7 515,25.3 511.6,23 511.4,23 511.3,23 
			505.6,25.3 502.3,24.2 502.1,24.1 502,24.3 496.2,33.5 496,33.8 496.4,33.9 		"/>
		<polygon class="st1" points="551.5,13.1 551.5,13.2 551.7,13.2 557.4,14.4 557.6,14.4 557.7,14.2 560,9.6 560.1,9.4 560,9.3 
			557.7,7 557.5,6.8 557.3,6.9 555.2,8 551.9,5.8 551.7,5.7 551.5,5.8 549.2,8.1 549.1,8.3 549.1,8.5 		"/>
		<polygon class="st1" points="565.3,15.4 565.5,15.6 565.7,15.4 570.3,10.8 570.5,10.6 570.3,10.4 569.2,9.3 569.1,9.2 569,9.2 
			564.4,9.2 564.2,9.2 564.1,9.4 562.9,12.8 562.9,13 563,13.1 		"/>
		<polygon class="st1" points="658.7,17.8 659.1,17.9 659.1,17.5 657.9,12.9 657.8,12.6 657.6,12.6 650.7,13.8 650.4,13.8 
			650.4,14.1 650.4,16.4 650.4,16.6 650.7,16.7 		"/>
		<polygon class="st1" points="641.3,20 641.4,20.2 641.6,20.1 645,18.9 645.4,18.8 645.2,18.5 642.9,15.1 642.8,14.8 642.5,15 
			640.2,16.1 640.1,16.2 640.1,16.4 640.1,18.7 640.1,18.8 640.2,18.9 		"/>
	</g>
	<g>
		<circle class="st1" cx="143.3" cy="241" r="3.2"/>
		<polygon class="st1" points="162.8,240.9 162.9,240.7 164,238.4 164.1,238.2 163.9,238 143.2,226.5 143.1,226.5 143,226.5 
			136.1,227.7 135.9,227.7 135.9,227.8 133.6,232.4 133.4,232.9 133.8,232.9 137.3,232.9 137.4,232.9 137.4,232.8 140.8,230.5 
			141.8,230.5 153.1,238.5 153.1,241.7 153.1,242.1 153.4,242 162.6,240.9 		"/>
		<polygon class="st1" points="136.4,233.9 136.2,234.4 135,236.7 135,236.8 135,236.9 135.3,237.9 135.4,238.3 135.7,238.1 
			137.7,237.1 138,237 137.8,236.7 136.7,234.4 		"/>
		<polygon class="st1" points="202.7,276.5 203,276.5 202.9,276.2 202.3,274.1 202.3,273.9 202,273.9 200.9,273.9 200.6,273.9 
			200.6,274.2 200.6,276.5 200.6,276.9 200.9,276.8 		"/>
		<polygon class="st1" points="201.4,269.2 201.2,269.2 201.2,269.5 201.2,271.8 201.2,272.1 201.5,272.1 203.2,271.8 203.6,271.7 
			203.4,271.4 202.9,269.4 202.8,269.2 202.6,269.2 		"/>
		<polygon class="st1" points="202.3,268.2 202.7,268.1 202.6,267.8 202,265.8 202,265.6 201.7,265.6 200.6,265.6 200.3,265.6 
			200.3,265.9 200.3,268.2 200.3,268.5 200.6,268.5 		"/>
		<polygon class="st1" points="201.9,259.2 202.2,259.1 201.9,258.8 199.7,256.5 199.2,256 199.2,256.7 199.2,260.1 199.2,260.6 
			199.6,260.4 		"/>
		<polygon class="st1" points="203.6,255.7 203,253.7 203,253.5 202.8,253.5 201.6,253.5 201.3,253.5 201.3,253.8 201.3,256.1 
			201.3,256.5 201.7,256.4 203.4,256.1 203.7,256.1 		"/>
		<polygon class="st1" points="203,263.2 202.5,261.2 202.4,261 202.2,261 201,261 200.7,261 200.7,261.3 200.7,263.6 200.7,263.9 
			201.1,263.9 202.8,263.6 203.1,263.5 		"/>
		<polygon class="st1" points="199.4,252.4 199.6,252.4 199.7,252.3 200.8,251.1 201.3,250.7 200.6,250.7 198.3,250.7 198,250.7 
			198,251 198,252.1 198,252.4 198.3,252.4 		"/>
		<polygon class="st1" points="197.2,248.4 191.5,247.2 190.5,247 191.2,247.7 193.5,250 193.6,250.1 193.8,250.1 197.2,248.9 
			198.3,248.6 		"/>
		<polygon class="st1" points="183,244.6 183,245.2 183,248.7 183,248.9 183.3,248.9 187.9,248.9 188.8,248.9 188.1,248.4 
			183.5,245 		"/>
		<polygon class="st1" points="168.4,236.3 168.8,236.3 168.6,235.9 167.5,233.6 167.2,233.1 167,233.6 165.8,235.9 165.6,236.3 
			166.1,236.3 		"/>
	</g>
</g>
</svg>
