<?xml version="1.0" encoding="utf-8"?>
<!-- Generator: Adobe Illustrator 22.1.0, SVG Export Plug-In . SVG Version: 6.00 Build 0)  -->
<svg version="1.1" id="Layer_1" xmlns="http://www.w3.org/2000/svg" xmlns:xlink="http://www.w3.org/1999/xlink" x="0px" y="0px"
	 viewBox="0 0 855.9 534" style="enable-background:new 0 0 855.9 534;" xml:space="preserve">
<style type="text/css">
	.Drop_x0020_Shadow{fill:none;}
	.Outer_x0020_Glow_x0020_5_x0020_pt{fill:none;}
	.Jive_GS{fill:#A6D0E4;}
	.st0{opacity:0.31;}
	.st1{stroke:#83EAF2;stroke-miterlimit:10;}
</style>
<g class="st0">
	<g>
		<polygon class="st1" points="77,89.6 77,89.4 78.2,84.8 78.3,84.4 77.9,84.4 75.6,84.4 75.4,84.4 75.3,84.7 74.2,89.3 74.1,89.6 
			74.5,89.6 76.8,89.6 		"/>
		<polygon class="st1" points="13.7,77.7 13.6,77.4 13.3,77.6 9.8,79.9 9.5,80.1 9.8,80.3 10.9,81.5 11.1,81.6 11.3,81.5 14.7,80.4 
			15,80.3 14.9,80 		"/>
		<polygon class="st1" points="0.8,82.1 0.5,82.1 0.5,82.4 5.6,83.8 0.5,83.8 0.8,83.8 5.4,83.8 5.5,83.8 5.6,83.8 6.7,82.6 
			7.2,82.1 6.5,82.1 		"/>
		<circle class="st1" cx="396" cy="318.4" r="2.9"/>
	</g>
	<polygon class="st1" points="698.9,234.9 698.9,235.1 696.6,239.7 696.4,240 696.7,240.1 699,241.2 699.2,241.3 699.3,241.2 
		702.8,237.7 702.9,237.6 702.9,237.5 702.9,235.2 702.9,234.9 702.6,234.9 699.1,234.9 	"/>
	<g>
		<polygon class="st1" points="244.5,137.9 244.9,137.9 246,137.9 246.1,137.9 246.2,137.8 248.5,135.5 248.6,135.5 248.6,135.3 
			248.6,134.2 248.6,134 248.4,133.9 246.3,132.9 247.4,129.7 247.5,129.4 247.3,129.3 243,127.2 247.4,121.7 247.9,121.1 
			247.1,121.2 241.3,122.4 241.2,122.4 241.2,122.5 233.1,129.3 232.9,129.5 233.1,129.8 234.2,130.8 233.1,134.1 232.9,134.4 
			233.3,134.4 238.9,135.6 240,137.7 240.1,137.9 240.2,137.9 241.4,137.9 241.5,137.9 241.6,137.8 243.8,134.5 244.5,134.5 
			244.5,137.6 		"/>
		<polygon class="st1" points="227.9,136.5 227.9,135.4 227.3,136.3 223.9,142.1 223.6,142.5 224.1,142.5 227.6,142.5 227.7,142.5 
			227.8,142.4 228.9,141.3 229.1,141 228.9,140.8 227.9,139.8 227.9,137.6 		"/>
		<polygon class="st1" points="157.4,34.4 157.4,34.4 157.5,34.4 165.5,28.6 171.2,27.5 171.6,27.5 171.4,27.1 169.1,23.6 169,23.5 
			168.9,23.5 162,23.5 161.9,23.5 161.8,23.6 153.7,29.3 153.7,29.3 153.6,29.4 151.3,34 151.1,34.4 151.6,34.4 		"/>
		<polygon class="st1" points="172.1,20.5 172.1,20.6 172.3,20.6 173.5,20.6 173.5,20.6 173.6,20.6 186.2,16 186.4,15.9 186.4,15.7 
			186.4,13.4 186.4,13.1 186.1,13.1 175.7,14.3 175.6,14.3 175.6,14.3 171,17.8 170.8,18 170.9,18.2 		"/>
		<polygon class="st1" points="197.8,25.2 197.8,25.1 200.2,22.8 200.4,22.6 200.2,22.4 199,21.3 198.9,21.2 198.8,21.2 197.8,21.2 
			196.9,20.3 197.8,19.4 198.3,18.9 197.7,18.9 196.5,18.9 196.4,18.9 196.4,18.9 189.6,21.2 185.1,18.9 185,18.9 184.9,18.9 
			179.1,21.2 178.9,21.3 178.9,21.5 178.9,22.6 178.9,22.8 179.1,22.9 182.1,23.9 180.2,25.9 179,27 178.5,27.5 179.2,27.5 
			182.7,27.5 182.7,27.5 182.8,27.5 187.4,25.2 197.7,25.2 		"/>
		<polygon class="st1" points="197.5,16 197.6,16 197.7,16 201.2,14.8 201.2,14.8 201.3,14.8 203.6,12.5 203.9,12.2 203.5,12 
			201.2,10.9 201,10.8 200.9,10.9 198.7,13.1 195.4,12 195,11.9 195,12.3 195,14.6 195,14.8 195.2,14.8 		"/>
		<polygon class="st1" points="210.2,26.3 210.4,26.5 210.5,26.3 214,21.7 214.1,21.4 214,21.3 211.7,19 211.5,18.8 211.3,19 
			209.2,21.1 205.9,17.8 205.5,17.5 205.4,18 204.3,22.6 204.2,22.8 204.4,22.9 		"/>
		<polygon class="st1" points="215.8,16.9 216,18 216.3,17 217.5,13.5 217.5,13.4 217.5,13.4 216.3,8.7 216.2,8 215.8,8.7 214.6,11 
			214.6,11.1 214.6,11.2 		"/>
		<polygon class="st1" points="239.1,16 239.4,16 239.4,15.7 239.4,8.8 239.4,8.7 239.3,8.7 235.9,2.9 235.3,2 235.3,3.1 235.3,4.1 
			232,8.7 231.9,8.7 231.9,8.8 230.7,15.7 230.7,16 231,16 		"/>
		<polygon class="st1" points="222.7,25.1 222.7,27.2 222.7,27.4 222.8,27.5 229.7,30.9 229.8,31 230,31 234.5,29.8 240.2,31 
			240.4,31 240.5,30.8 241.7,27.3 241.7,27.1 241.5,26.9 235.7,24.7 235.6,24.6 235.5,24.7 233.3,25.8 226.7,23.6 226.7,21.5 
			226.7,21.2 226.5,21.2 220.8,20.1 219.7,19 219.2,18.5 219.2,19.2 219.2,22.6 219.2,22.8 219.3,22.9 		"/>
		<polygon class="st1" points="200,37.9 200.1,37.8 200.2,37.8 203.6,34.3 203.7,34.3 203.7,34.1 203.7,30.7 203.7,30.3 203.4,30.4 
			196.4,31.5 196.2,31.6 196.2,31.8 195,38.7 195,39.1 195.4,39 		"/>
		<polygon class="st1" points="212.7,29.2 212.5,29.2 212.4,29.3 208.9,34 208.8,34.2 208.9,34.3 210.1,35.5 210.3,35.7 210.4,35.5 
			213.8,33.3 217.2,33.3 217.4,33.3 217.5,33.1 218.6,30.8 218.8,30.4 218.4,30.4 217.2,30.4 		"/>
		<polygon class="st1" points="158.5,40.8 157.9,40.8 158.3,41.2 161.7,45.8 161.8,45.9 162,45.9 174.6,45.9 179.2,47.1 179.2,47.1 
			179.3,47 187.4,44.7 187.6,44.7 187.6,44.4 186.4,38.7 186.4,34.1 186.4,33.8 186.1,33.8 182.8,33.8 177.1,30.4 176.9,30.3 
			176.7,30.5 174.7,32.5 173.7,29.4 173.7,29.2 173.4,29.2 165.1,31.5 164.8,31.6 164.8,31.9 165.1,35 162,35 161.7,35 161.7,35.3 
			161.7,37.6 161.7,37.9 162,37.9 167.5,37.9 168.5,40.8 		"/>
		<polygon class="st1" points="208.2,63.8 208.1,63.8 204.7,62.6 204.6,62.6 204.5,62.6 203.4,62.6 203.2,62.6 203.2,62.7 
			199.7,68.5 199.6,68.6 199.7,68.8 200.8,71 200.9,71.2 201.1,71.2 203.4,71.2 203.5,71.2 203.5,71.2 205.7,70.1 210.2,71.2 
			210.7,71.3 210.6,70.8 208.3,63.9 		"/>
		<polygon class="st1" points="249.4,67.9 249.6,67.7 256.5,62 256.8,61.8 256.6,61.5 248.6,52.5 250.9,46.9 250.9,46.7 250.8,46.6 
			243.9,38.5 243.9,38.5 243.8,38.5 238,36.2 237.9,36.1 237.7,36.2 236.6,37.4 229,41.7 229,41.1 235.8,34.3 236,34.1 235.8,33.9 
			234.7,32.8 234.5,32.6 234.4,32.7 228.6,35 228.5,35.1 228.5,35.1 224.1,42.7 223.3,41 227.8,33.1 228.1,32.7 227.6,32.7 
			220.7,32.7 220.5,32.7 220.5,32.8 217,36.2 217,36.3 216.9,36.3 215.8,39.8 215.8,39.9 215.8,40 218.1,45.7 218.1,45.9 
			218.3,45.9 234,51.5 229.6,59.3 229.6,59.3 229.6,59.3 228.5,63.7 221.8,63.7 221.7,63.7 221.6,63.8 220.5,65 220.4,65 
			220.4,65.1 219.2,68.5 219.1,69 219.6,68.9 225.2,67.8 230.7,71 229.6,74.3 229.5,74.5 229.7,74.6 236.6,79.2 237,79.5 237.1,79 
			238.1,72.6 241.2,74.6 241.3,74.7 241.4,74.7 242.5,74.7 242.7,74.7 242.8,74.5 246.2,67.6 246.3,67.4 246.2,67.3 244,65.1 
			245,61.3 249.2,67.6 		"/>
		<polygon class="st1" points="243.3,18.2 242.4,20 238,18.9 237.9,18.9 237.8,18.9 233.2,21.2 232.7,21.5 233.2,21.7 235.5,22.9 
			235.6,22.9 235.6,22.9 241.3,22.9 244.7,25.2 244.9,25.3 245.1,25.1 251.9,18.3 254,18.3 254.1,18.3 254.1,18.3 257.6,17.2 
			257.8,17.1 257.8,16.9 257.8,14.8 263.3,13.7 267.9,13.7 268,13.7 268.1,13.6 269.2,12.5 287.5,5.7 287.6,5.6 287.6,5.6 
			291.1,2.1 291.6,1.6 290.9,1.6 248.3,1.6 248,1.6 248,1.9 248,5.4 248,5.6 248.2,5.6 252.8,7.9 252.8,8 252.9,8 261.4,8 
			259.7,9.7 250.7,10.8 247.3,8.6 247.1,8.5 246.9,8.7 241.2,16.7 240.9,17 241.3,17.1 		"/>
		<polygon class="st1" points="73.2,107.1 73,107.7 71.9,112.3 71.9,112.4 71.9,112.5 75.4,118.2 75.4,118.4 75.6,118.4 76.8,118.4 
			77,118.4 77,118.1 77,112.3 77,112.2 77,112.1 73.5,107.6 		"/>
		<polygon class="st1" points="70.8,94.9 70.5,95.1 70.9,95.3 73.2,96.5 73.6,96.7 73.6,96.2 73.6,92.8 73.6,92.1 73.1,92.6 		"/>
		<polygon class="st1" points="70.1,102.2 72.4,99.9 72.6,99.7 72.4,99.5 71.2,98.3 70.7,97.8 70.7,98.5 70.7,99.6 69.6,101.8 		"/>
		<polygon class="st1" points="171.2,248.3 171.4,248.3 171.4,248.3 180.4,248.3 180.8,248.3 180.6,247.9 179.5,245.6 179.4,245.5 
			179.4,245.4 174.7,243.1 174.7,243.1 174.7,243.1 171.4,242 171.4,242 171.2,242 170.9,241.8 170.9,242 168.9,242 168.8,242 
			168.7,242 166.4,243.1 164.1,244.3 163.6,244.5 164.1,244.8 165.8,245.6 163,246.6 163,247.2 170.9,248.2 170.9,248.3 		"/>
		<polygon class="st1" points="334.2,75.7 334.5,75.8 342.6,79.3 342.7,79.3 342.8,79.2 354.3,73.5 354.5,73.4 354.5,73.2 
			354.5,70.9 354.5,70.8 354.4,70.8 351,66.2 350.9,66 350.7,66 340.5,68.3 338.3,66.1 338.2,66 338,66 333.4,67.2 332.9,67.3 
			333.3,67.7 336.6,71 334.4,75.4 		"/>
		<polygon class="st1" points="156,223 156.2,223 158.5,223 158.9,223 158.8,222.6 157.6,219.2 157.6,219 157.4,219 155,219 
			154.8,219 154.8,219.2 154.8,220.4 154.8,220.5 154.8,220.5 156,222.8 		"/>
		<polygon class="st1" points="150.9,247.4 150.8,247.5 149.7,248.6 149.4,249 149.7,249.1 154.3,251.4 154.5,251.5 154.5,251.4 
			158,250.3 158.2,250.2 158.2,250 158.2,248.8 158.2,248.6 158,248.6 151.1,247.4 		"/>
		<polygon class="st1" points="208,286.2 208.3,286.3 208.3,285.9 208.3,282.6 210.5,280.4 211,279.9 210.3,279.9 203.4,279.9 
			203.1,279.9 203.1,280.2 203.1,283.5 202,284.6 201.7,285 202.2,285.1 		"/>
		<polygon class="st1" points="241.6,521.5 241.1,521 241.1,521.7 241.1,526.2 241.1,526.4 241.2,526.5 242.3,527.6 242.8,528.1 
			242.8,527.4 242.8,522.8 242.8,522.7 242.7,522.6 		"/>
		<polygon class="st1" points="237.7,525 237.5,525.4 237.9,525.4 239.1,525.4 239.4,525.4 239.4,525.1 239.4,521.7 238.8,521.6 		
			"/>
		<polygon class="st1" points="358.6,120.2 358.6,120.2 358.6,120.3 357.4,123.7 357.2,124.2 357.7,124.1 362.3,123 362.4,123 
			362.4,122.9 367,120.6 367.1,120.6 367.1,120.4 368.2,114.9 369.2,114.9 369.5,114.9 369.5,114.6 369.5,112.3 369.5,112.2 
			369.4,112.1 367.1,109.8 367,109.8 366.9,109.8 364.8,109.8 364.8,109.6 364.5,109.8 364.2,109.8 364.2,109.9 362.1,110.9 
			362.1,110.9 362.1,111 361,112 360,112 359.8,112 359.8,112.1 358.6,113.2 358.5,113.3 358.5,113.5 358.5,115.8 358.5,115.9 
			358.6,116 359.7,117 359.7,119.1 		"/>
	</g>
	<g>
		<polygon class="st1" points="472.8,186.2 472.9,186.2 476.4,183.8 476.2,183.3 470.4,184.5 469.6,184.6 470.3,185 472.6,186.2 		
			"/>
		<polygon class="st1" points="530.3,381.7 530.7,381.8 530.6,381.3 529.5,368.7 529.5,368.6 529.4,368.5 527.1,366.2 527,366.1 
			526.9,366.1 525.7,366.1 525.6,366.1 525.5,366.3 518.6,378.9 517.5,380 511.8,382.3 511.7,382.3 511.6,382.4 509.3,390.5 
			509.3,390.6 509.3,390.6 510.5,396.3 510.5,397.4 505.9,403 505.9,403.2 505.9,403.2 508.2,414.8 508.2,414.9 508.3,415 
			511.7,417.3 511.9,417.3 512,417.3 518.9,415 519.1,414.9 519.1,414.8 527.2,388.4 527.2,388.3 527.2,388.3 527.2,380.6 		"/>
		<polygon class="st1" points="619.2,282.3 618.9,281.7 618.7,282.4 617.6,287 616.4,290.5 616.4,290.5 616.4,290.6 617.5,297.5 
			617.6,297.9 618,297.7 623.7,294.2 623.9,294.2 623.9,294 623.9,290.5 623.9,290.5 623.8,290.4 		"/>
		<path class="st1" d="M769.8,41.2l0.6,0.1l-0.3-0.5l-4.6-8l-0.1-0.2l-0.2,0l-10.3,1.2l-20.7-6.9l-0.1,0h-0.1L720.3,28l-0.3,0v2.3
			l-4.2,1.1l-1-2.1l-0.1-0.2l-0.2,0.1l-13.7,3.4l-8-5.7l-0.1-0.1l-0.1,0l-10.3,2.3l-11.4-3.4h-14l-11.5,5.8l-0.2,0.1v2.1L619,29.1
			c0,0-13.8-1.2-13.8-1.2l-0.3,0v3.3l-6.5-3.2l-0.2-0.1l-0.1,0.1l-7.3,6.2l0.8-2.5l0.1-0.3l-0.3-0.1l-2.8-0.9l6.3-3.2l0.2-0.1v-6.1
			l-0.2-0.1l-7-3.4l-0.1,0.1l-0.1,0.1l-5.6,2.2l-3.3-3.3l-0.1-0.1h-3.7l-0.1,0.1l-2.3,3.4l-0.1,0.1v1.3l0.1,0.1l0.9,1.9H559
			l-0.1,0.1l-13.8,9.2l-0.2,0.1l0.1,0.2l1.2,2.3l1.1,3.4l0.1,0.2l0.2,0.1l5.6,1.1l3,5l-2.7-0.9l-0.2-0.1l-0.1,0.2l-0.9,1.8l-2.1-4.1
			l0-0.1l-0.1,0l-8.1-2.3l-0.2-0.1l-0.1,0.1l-1,1l-5.6-2.3l-0.4-0.2v6.3l0.1,0.1l5.8,5.7l0.1,0.1h4.7l17,9.1v1.6l-5.3-3.2l-0.4-0.3
			v4.3l-5.3-6.3l0,0l-0.1,0l-5.7-2.3l-0.2-0.1l-0.1,0.1l-2.3,2.3l-0.1,0.1v3.3l-5,1l2.1-4.1l0-0.1v-2.5l-0.2-0.1l-2.2-1.1l-3.4-5.7
			l0,0l0,0l-1.1-1.1l-3.4-6.9l-0.1-0.1h-6.2l-0.1,0.2l-2.3,5.7l-0.1,0.2l0.2,0.1l6.6,7.7l-2.9,1l-4.5-3.4l0-0.1h-6.2v3.6l-1,1h-2.1
			l-1.2-1.2l-0.2,0.1l-9.1,3.4l-2.2-2.2l-0.2-0.2l-0.2,0.2l-11.3,7.9l-0.9-0.9v-2.3l-0.1-0.1l-4.6-3.4l-0.4-0.4v9.5h-3.3l-0.1,0.1
			l-3.5,3.5l-0.1,0.1v2.1l-5.4-1.1l-0.2-0.1l-0.1,0.1l-1.1,1.1l-0.3,0.2l0.3,0.2l3.2,2.1l-1.9,1.9l-5.5-3.3l-4.3-8.5l10.9,3.3l0.1,0
			l0.1-0.1l2.3-1.1l0.1,0l0.1-0.1l2.3-3.4l0.1-0.2l-0.2-0.2l-9.2-6.9l-0.1-0.1h-0.1l-6.9-1.2h-0.1l-0.1,0.1l-2.2,1.1l-5.6-2.2
			l-2.3-2.3l-0.1-0.1l-0.1,0l-5.7-1.1H437l-0.1,0.1l-4.6,3.4l-5.7,1.2h-0.1l-0.1,0.1l-1.2,1.1l-3.4,2.3l0,0v0l-1.2,1.2l-3.4,2.3
			l-0.1,0l-0.1,0.1l-1.1,2.3l-8,11.5l-0.1,0.1v3.3h-3.3l-0.1,0.1l-8.1,6.9l-0.1,0.1l0,0.2l2.3,11.5v2.5l0.2,0.1l4.6,1.2l0.2,0.1
			l0.1-0.1l5.5-5.4l5.6,12.3l0.1,0.2l0.2-0.1l4.6-1.1l0.1-0.1l0.1-0.1l2.3-5.7l2.3-2.3h0l0,0l4.6-5.7l0.2-0.2l-0.3-0.2l-4.5-3.3
			l2.2-6.6l5.7-4.5l0.1-0.1l0-0.1l3.4-9h1.9l1,2l-2.2,4.5v0h0l-1.1,3.4l-2.2,2.3l-0.1,0.1l0.1,0.2l1.2,8l0,0.2l0.1,0.1l4.6,2.3
			l0.1,0.1l0.1-0.1l9.2-3.4h2.1l0.9,1.9l-4.4,3.3l-5.7,1.1l-0.2,0.1v2.7l0.2,0.1l3.2,1l-1,3h-3.5l0,0.3l-0.1,2.6l-0.4,2.2l-1.7,3.3
			l-0.1,0.2l-3.5,1l-0.5-1.3l-0.1-0.2l-0.3,0l-6.9,1.2h0l-6.9,2.3l-0.2,0.1v1l-5.4-1.1l-0.1,0l-0.1,0l-3.3,1.1l-3.2-2.1v-3.3
			l1.1-3.4l0-0.1V99l-0.5,0.5l-3.4,3.4l-0.1,0l0,0.1l-2.3,4.6l-0.1,0.1l0.1,0.1l1.1,2.2v2.3l0.1,0.1l0.9,0.9l-0.9,0.9l-3.4,1.1
			l-0.2,0.1l-3.3,1.1l-0.1,0l-0.1,0.1l-3.3,3.4h-1.2l-0.1,0.1l-0.9,0.9l-0.1-0.1l-0.2,0.3l-0.2,0.2l0.1,0l-2.1,3.2l-2.2,1.1l-0.1,0
			l0,0.1l-2.3,3.4l-3.3,2.2l-2.1-1.1l-0.1-0.1H377l-0.1,0.2l-1.1,3.3h-2l-1.1-1.1l-0.1-0.1h-1.5l-0.1,0.2l-1.2,3.5l0,0v2.6h3.6
			l4.4,5.5l-1.1,3.3l0,0.1v6.5c-1.4-0.3-4.9-1-4.9-1l-6.5-1.1l-3.1-0.7l-0.2-0.1l-0.1,0.2l-1.1,1.9l-2.1,0.5l-0.2,0v0.2l-0.1,4.5
			v4.7l-2.2,7.9l0,0v1.3l0.1,0.1l1,1.1l1.1,5.5l0.1,0.3l0.3-0.1l4.2-1.1l2.1,3.2l0,0.1l0.1,0l2.2,1.1l0.2,0.1l0.2-0.2l2.1-3.3
			l4.9-0.8h0.1l0.1-0.1l3.6-3.2l2.7-2.8l0.1-0.1l0-0.1l-0.9-5.2l1.4-3l3.3-1.5h1.1l0.1-0.1l2.2-1.1l0.1-0.1l0.1-0.1l1-4.2h0.5
			l0.1-0.2l1.1-2.1l6.7,1.1l0.1,0l0.1-0.1l3.4-2.3h2.3l0.1,0l2.2-1.1l2.1,1.1l5.7,8l0,0l0,0.1l6.9,4.6l1.1,1.1l1.2,6.8l0,0.3h1.6
			l0.1-0.2l2.3-3.4l0.1-0.1l-0.1-0.1l-1.1-3.2l2-1h2.5V165l-0.1-0.1l-4.6-3.5l-0.1-0.1h-1.1l-1.1-1.1l0,0l0,0l-5.7-3.4l-2.2-6.7l1-3
			l0.3,0.2l0.1,0.1l0.2,0l0.1,0l1.4,1.8l0.2,0.3l0.3-0.3l0.8-0.8l1.1,2.4l0,0.1l0.1,0l2.5,2.5l2,1.7h0l0,0l4.4,2.7l0.1,0.1l0.9,0.6
			l-0.1-0.2l0.3,0.2h0l2.3,1.2v4.5l0,0l1.2,4.6l0,0.2h1.2l2.2,4.4l0.1,0.2h3.5l0.8,0.8l-0.8,0.8h-1.4l0.1,0.4l1.2,3.5l0.1,0.2h2.6
			l0.1-0.1l3.5-2.3l0.2-0.1v-1.4l-0.1-0.1l-3.4-4.5v-3.3l3.3-3.3h5.9v-0.5l1.7-1.2l3.2-1.3l0.3-0.1l-0.2-0.3l-2.7-3.9V154h1.1
			l0.1-0.2l1.1-3.3l0.9-0.2l0.1,0.3l0.2-0.4l0.2,0l-0.1-0.2l4.4-7.2l5,1.1l-0.4,1.7l-0.1,0.2l0.1,0.1l2.7,3l0.2,0.2l0.2-0.1l4.6-2.9
			l0.3-0.2l-0.2-0.2l-2.9-4.1l8.2-1.3l-1.6,7l0,0.2l0.2,0.1l7.3,4.9l4.8,3.5l-0.1,3.3l-12.3,1.1l-3.4-2.2l-0.1-0.1l-0.1,0.1
			l-13.8,3.4l-3.1-0.2h-0.1l-0.1,0.1l-2.6,2.5l-4.6,4.6l-0.2,0.2l0.1,0.2l3.4,5.7l1.1,4.5l0.1,0.2h2.4l2.2,2.2l0.1,0.1l0.1,0
			l4.6-1.1l0.1,0l0.1-0.1l1-1l5.6,2.2l0.1,0h0.1l6.7-1.1l1,2v6.8l-1.1,2.1h0l-0.1,0.2l-0.2,0.4h0l-3.2,8.6h-1l-0.1,0l-2.1,1l-1-2
			l-0.1-0.1l-0.1,0l-5.8-1.2l-0.2-0.1l-0.1,0.1l-3.3,3.3l-10-3.3v-0.1h-0.3l-0.3-0.1v0.1h-5.3l-1.2-2.3h-6l-0.1,0l-2.3,1.2l-0.1,0.1
			l-0.1,0.1l-1.1,3.5l0,0.1l0.1,0.1l1,2.1l-1.9,0.9l-11.4-6.8l0,0h-0.1l-9.2-2.3l-5.6-2.2v-2l2.1-1l0.2-0.1v-8.4l-0.2-0.1l-3.4-2.3
			l-0.1-0.1l-0.2,0l-3.4,1.1l-17.2,1.2h-0.1l-11.4,4.6h-10.4l-0.1,0.1L354,196l-0.1,0.1v0.1l-2.3,9.1l-8,6.8l-2.2,1.1l-0.1,0
			l-0.1,0.1l-0.8,0.4l0.6,0l-7.9,15.8v0l-3.4,9h-0.1v0.2l-0.1,0.3h0.1v2.1l0,0.1l1.1,2.2l1.2,10.2l-2.3,5.7l-2.3,5.8l-0.1,0.2
			l0.1,0.1l2.2,2.2v5.3h-0.2l0.2,0.4v0.2h0.1l1.1,2.2l2.3,3.4h0l4.5,7.9l-0.1,0.1l0.2,0.2l0.2,0.3l0.1-0.1l3.2,3.2l2.3,3.5h0
			l1.1,1.1l0,0l0.2,0.1l0.4,0.4l0-0.1l7.7,5.5l2.3,2.3l0.2,0.1l0.2-0.1l2.3-1.1l5.7-1.2h7.8v0l0.3,0h0.3v0l8.6-1.1v0.2l0.4-0.3
			l0.2,0v-0.1l3.2-2.2h3.1v0.1l0.3-0.1h0.3l0-0.1l4.1-1l3.4,7.8l0.1,0.2l0.2,0l6.7-1.1l4.5,5.6l1.1,2.2l-1.1,4.5l0,0l-2.3,8.1
			l-0.1,0.1l0.1,0.1l6.9,11.5v0l1.9,3.3l0.8,2.4l-0.1,0l0.1,0.2l0.1,0.4l0.1-0.1l0.3,0.5l0.1,0.2l1.3,2.3l1.1,2.2v5.7l2.3,14.8
			l-3.4,4.5l-0.1,0.1v6.8l-2.2,1.1l-0.2,0.1v8.3l0.1,0.1l4.6,6.9l7.9,31.7v0l0,0l1.3,2.7l2.3,6.9c0,0,2,8.1,2.3,9.1l-1.1,2.2
			l-0.1,0.1l0,0.1l2.3,8.1l0.1,0.2h3.8l2.3-2.3l16-3.4h0l2.3-1.2l0,0h0l4.6-3.5h0l0,0l1.2-1.2l0,0h0l5.7-9.2l3.4-4.6l0.1-0.1l0-0.1
			l1.1-8l1.1-3.4l2.2-2.1h3.5l0.1-0.2l1.2-2.3l0,0l2.3-6.9l0-0.1l0-0.1l-2.3-9.2v-2.1l1-1h2.4l0.1-0.2l1.1-2.3l1.1-1.1
			c0,0,8.3-7.2,9.1-8h2.4l0.1-0.2l1.1-2.3l0-0.1v0l1.2-11.5v-0.1l0-0.1l-2.3-4.5v-8.1l-0.1-0.1l-1.1-1.1l-1.1-9.1v0l0-0.1l-1.1-3.3
			l2.2-5.6l1.1-1.1l0.1-0.1V332l2.3-4.5l2.2-3.3h1.2l0.1-0.1l8-11.4l4.5-1.2l0.1,0l0.1-0.1l4.6-9.2l5.8-10.3v0l0-0.1l3.5-17.2l0-0.2
			l-0.1-0.1l-1.2-1.2l-0.1-0.1l-0.2,0.1l-17.1,5.7l-2-2l0.1-0.1l-0.3-0.1l-0.3-0.2l-0.1,0.1l-1.9-1v-2.2l0-0.1l-1-2.1l-0.1-0.2
			l-0.2-0.3l-1-2l-0.1-0.1l-0.1-0.1l-3.4-2.3l-4.6-4.6l-0.1-0.1H496l-2.2-8.8l0,0l-0.1-0.2l-0.1-0.4l-0.1,0l-2.1-5.3v-2.3l0-0.1
			l-3.4-6.9l-1-3.1h0.1l-0.2-0.4l-0.1-0.2h0l-12.5-22.8l-0.9-3.5l3.9,3.8l0.4,0.4l0.1-0.5l1.1-5.5h1.8v9.1l0.2,0.1l2.2,1.1l5.7,11.4
			l0.1,0.1l0.1,0.1l2.2,1.1l2.3,10.2v0.1l0.1,0.1l12.6,16v4.4l-0.1,0.1l0.1,0.1v0.8l0.2-0.3l2.1,4.2v2.3l0,0.1l1.2,2.3l0,0.1l0,0.1
			l1.2,1.2l0.1,0.1h1.3l0.1,0l12.6-4.6h0l0,0l10.4-6.9l0.2-0.1v-2.3l0.9-1h2l0.1,0.2l0.3-0.2h0.3l-0.1-0.2l6.7-4.5l0.1-0.1l0-0.1
			l10.4-16.1l0.1-0.2l-0.2-0.2l-9.2-10.4l-1.2-1.1l-2.3-2.3l-0.1-0.1h-1.4l-0.1,0.1l-3.4,5.6h-7.6v-4.4l-0.1-0.1l-2.3-2.3l-0.3-0.3
			l-0.2,0.4l-1.7,5.2v-2.9l-0.1-0.1l-1.5-2.3l2,0.3l0.4,0.1l0-0.4l-0.2-2.4l-0.1-0.2l-0.2-0.1L524,216l-0.4-0.1l0.1,0.4l0.2,2
			l-0.2-0.3l-4.6-9.2l-1-4.2h4.1l4.5,6.8l0,0.1l0.1,0l3.5,2.3l0.1,0.1h2.3l5.7,4.5l0.2,0.2l0.2-0.2l4.4-3.3l0.9,0.9l2.3,4.5l0.1,0.2
			h5.9l6.6,1.1v0.1h0.3l0.3,0.1v-0.1h12.3l5.5,5.5l-0.2,0.3h0.5l0.2,0.2l0.1-0.2h3.2l0.8,0.9l-2.1,2.1l-0.2,0.2l0.2,0.2l5.7,5.7
			l0.1,0.1h2.5l0.1-0.1l1.2-1.1l0-0.1l0-0.1l1.1-3.3h1.8l1.1,12.4v0.1l0,0l6.9,18.4c0,0,2.1,6.4,2.3,6.9v3.5l0.1,0.1l3.4,2.2
			l2.3,9.1l0,0.1l0.1,0.1l1.2,1.1l0.1,0.1h2.6l0.1-0.1l3.4-5.7l1.1-1.1l0.1-0.1l0-0.1l1.2-11.5c0,0,0-1.2,0-1.2v-0.1l-1.1-9l2.1-1.1
			l0.1,0l0,0l1.1-1.2l0.1-0.1l2.3-3.5l1.1-1.1l0,0l0,0l4.6-9.2l2.1-2.1l0.9,0.9l0.3,0.3l0.2-0.4l2.3-4.6l1.2-1.2v-2.1h6.9v-3.4h1.9
			l2.1,1v4.5l0,0.1l1.1,2.1l-0.1,0.1l0.1,0.2l0.1,0.4l0.2-0.2l8.9,10v7l0.2,0.1l3.5,1.2l0.2,0l0.1-0.2l3.3-4.3l0.8,0.9l2.3,4.5
			l1.1,4.6l0,0l3.5,8l1.1,11.4l-1.1,3.4l-0.1,0.1l0.1,0.1l1.2,2.3l0,0l0,0.1l3.4,3.4v2.3l0.1,0.1l0.9,0.7l0.1,4.5h-1.5l0.4,0.5
			l5.7,6.9l3.4,5.7l0.1,0.1l0.1,0l3.4,1.1l2.3,1.2l0.4,0.2v-2.8l0-0.1l-1.1-2.2v-2.3l-1.2-6.9v0l0-0.1l-0.9-1.8l0.3,0.1l-0.6-0.6
			l0-0.1h-0.1l-4.5-4.5l-0.1-0.1h-1.1l-3.3-4.4v-1.1l-0.1-0.1l-2.3-3.4v-15.9l1-1h0.8l1.1,3.3l0.1,0.2h3.5l8,7.9l1.1,2.2l-1.1,4.5
			l-0.1,0.4h1.6l0.1-0.1l11.5-10.4l0.1-0.1l0-0.2l-1.1-13.8v-0.1l-0.1-0.1l-12.6-16l1.1-5.6l3.3-5.6h3.1l1.1,2.1l0.1,0.2h2.8v-3.5
			l11.3-5.6h4.7l0.1-0.1l1.2-1.2l0,0l0,0l6.9-12.6l0-0.1v-0.1l1.2-11.5v-0.1l-0.1-0.1l-9.2-16.1l0-0.1l-5.7-5.7l1.1-11.1h2.4
			l-0.1-0.4l-1.2-3.5l-0.1-0.2h-4.9l-0.1,0.1l-2.1,2.1l-6.5-4.3l5.5-8.7l1.9,0.9v3.5l0.2,0.1l3.5,1.1l0.1,0.1l0.1-0.1l3.5-2.3
			l0.1-0.1v-0.1l0.6,1.2l0.1,0.2h3.4v4.4l0.1,0.1l1.2,1.2l0.2,0.2l1.2-1.2l3.7,2.7l0.6,5.1l0,0.1l0.1,0.1l2.2,2.2l1.1,3.4l0.1,0.1
			l0.1,0.1l1.1,1.2l0.1,0.1h2.5l0.1-0.1l3.5-3.5l0.1-0.1v-3.7l-0.1-0.1l-5.6-8.5h0l-0.2-0.2l-0.2-0.2h0l-1-1.4v0l0,0l-1.1-1.1
			l-0.1-0.1h-2.2l-1.1-4.3l1.1-2.2l0.1-0.1l0-0.1l-1.1-4.5l1.1-3.4l0.1-0.1l-0.1-0.1l-1-1.6l0.8-0.3l0.3-0.1l3.1-1l4.5,1.1l0.3,0.1
			l0.1-0.3l2.3-11.5v-0.1l-1.1-12.7l0-0.1l0-0.1l-10.4-17.2l-0.1-0.1l-0.1-0.1l-8.1-3.5l-0.2-0.1l-0.1,0.1l-3.3,2.2l-7.6-5.4
			l3.3-3.3v-0.1l-1.2-12.4l16.9-4.5l2.2,2.2l0.2,0.2l0.2-0.1l6.9-4.6l0.5-0.3l-0.6-0.2l-3.2-1.1l2.1-7.4l4.3,3.2l0.5,0.3v-6.5
			l6.3,9.5v9.2l0.1,0.1l8.1,11.5l0,0l0,0l12.7,11.5l0.5,0.4v-5.3l0-0.1l-2.3-6.9v-3.5l0-0.1l-2.2-3.2l1-1l0.3-0.3l-0.3-0.2l-3.5-2.3
			l-0.1-0.1h-2.2v-2.2l-0.1-0.1l-4.5-3.4l-1.1-5.4l5.5-3.3h2.5l0-0.2l1.1-9.2l2.3-3.4l0.1-0.1v-2.8l-0.4,0.1l-3.3,1.1l-6.6-3.3
			l1.1-3.2l0.1-0.1l-0.1-0.1l-0.9-1.9h4.1L769.8,41.2z M467.3,343.4v-9.1h0l0.1-0.6l1.6,0.8v6.8l1.9,7.6L467.3,343.4z M475.2,325.4
			L475.2,325.4l0.1-0.1l0.5-0.5h-0.2l2-4.1l3.2-1.1l2.1,1l1,2l-0.9,0.9l-0.1,0l-0.1,0.2l-0.3,0.3l0.1,0.1l-2.1,4.2l-2.2,1.1h-3.2
			l-1-3.1L475.2,325.4z M523.4,176.4H519l-3.3-5.5l1.1-8.1l0-0.1l-0.1-0.1l-2.9-4.1v0l-6.3-10.6l-1.1-4.4l2.6-2l7.3-3.6l6.6,3.5
			l-1.4,3.5l-3.1-0.9l-0.2-0.1l-0.1,0.1l-3.2,3.6l-0.2,0.2l0.1,0.2l6.3,8.3l1.2,1.7l0.1,0.2l0.2,0l2.3-0.4l2.7,3.3l-2.7,1.4
			l-0.2,0.1l0.1,0.2l3.1,12.5L523.4,176.4z M541.8,147.1L541.8,147.1l-0.1,0.2l-0.2,0.3l0.1,0l-0.5,3.3l-4.8-0.9l0.3-5.3l1.1-1.4
			l2.2-1.9l2.7,4.2L541.8,147.1z"/>
		<polygon class="st1" points="733.2,215.7 733.2,215.6 733.1,215.6 730.8,214.4 730.5,214.2 730.4,214.6 729.2,219.2 729.2,219.2 
			729.2,219.3 730.4,223.9 730.4,224 730.4,224 731.5,226.3 731.8,226.8 732,226.3 734.4,221.7 734.4,221.6 734.4,221.5 		"/>
	</g>
	<g>
		<polygon class="st1" points="361.7,181.7 361.8,181.8 361.9,181.8 363.2,181.8 363.2,183.8 363.2,183.9 363.2,183.9 363.9,185.9 
			361.9,185.9 361.7,185.9 361.7,186.1 361.7,189.1 361.7,189.2 361.8,189.2 363,189.8 360.3,191.9 360.3,191.9 360.2,192 
			359.5,193.5 359.4,193.7 359.7,193.7 360.4,193.7 360.4,193.7 360.5,193.7 363.4,192.3 364.9,192.3 365.1,192.3 365.1,192.1 
			365.1,191.5 368.6,191.5 368.7,191.5 368.8,191.4 369.5,190.7 369.5,190.7 369.6,190.6 371.1,186.9 371.1,186.8 371,186.7 
			365.8,178.6 366.6,175.7 366.6,175.7 366.6,175.6 366.6,174.9 366.6,174.8 366.5,174.7 364.3,173.3 364.3,171.9 364.3,171.7 
			364.1,171.7 362.6,171.7 362.5,171.7 362.5,171.8 360.2,177 360.2,177.1 360.2,177.2 		"/>
		<polygon class="st1" points="383.6,214.6 383.7,214.6 383.7,214.5 384.5,213 384.5,213 384.5,212.9 384.5,211.5 384.5,211 
			384.2,211.3 382.7,212.8 382.6,212.9 382.6,212.9 382.6,214.5 382.6,214.6 382.8,214.6 		"/>
	</g>
	<g>
		<polygon class="st1" points="657.1,333.3 657.1,333.3 657.1,333.3 659.4,334.1 659.5,334.1 659.6,334 662.5,330.3 662.6,330.2 
			662.6,330.2 662.6,328.7 662.6,328.5 662.4,328.5 660.9,328.5 660.7,328.5 660.7,328.7 660.7,329.4 658.7,331.4 658.1,330.8 
			658,330.7 657.8,330.8 655.6,332.3 655.3,332.4 655.6,332.6 		"/>
		<polygon class="st1" points="661.8,324.1 661.5,323.8 661.5,324.2 661.5,325.7 661.5,325.8 661.5,325.8 663,328.1 663.2,328.3 
			663.3,328 664.1,326.5 664.1,326.4 664,326.3 		"/>
	</g>
	<g>
		<polygon class="st1" points="248.4,444.3 248.4,444.2 248.3,444.2 248,444.2 247.7,443.6 247.3,443.7 247.3,444.4 247.3,444.6 
			247.5,444.6 247.8,444.6 248.8,446.8 249.2,446.7 249.2,445.9 249.2,445.9 249.2,445.8 		"/>
		<polygon class="st1" points="245.6,430.4 245.4,430.1 243.9,427.9 243.6,428.1 244.4,430.3 244.4,430.4 244.5,430.4 245.3,430.4 
					"/>
		<polygon class="st1" points="246.4,436 246.2,435.4 245.5,433.2 245.3,432.6 245.1,433.2 244.7,434.5 244.7,434.6 244.8,434.7 
			245.9,435.6 		"/>
		<polygon class="st1" points="256.5,456.9 256.1,457 256.4,457.2 258.6,459.5 258.7,459.5 258.7,459.5 260.2,459.5 260.4,459.5 
			260.4,459.4 260.4,457.1 260.4,456.4 260.4,456.1 260.2,456.2 		"/>
		<polygon class="st1" points="252.9,451.8 252.8,451.7 252.7,451.7 251.3,451.7 250.8,451.7 251.1,452 253.4,454.3 253.5,454.4 
			253.6,454.3 254.4,453.5 254.5,453.4 254.4,453.2 		"/>
		<polygon class="st1" points="262.6,459.2 262.6,459.2 262.5,459.2 261,459.2 260.8,459.2 260.8,459.4 260.8,460.1 260.8,460.3 
			261,460.3 263.2,460.3 263.7,460.3 263.4,460 		"/>
		<polygon class="st1" points="263.4,453.3 263.4,453.1 263.2,453.2 263,453 263,453.3 260.9,454 260.8,454 260.8,454.1 
			260.8,454.9 260.8,454.9 260.8,455 261.5,456.3 260.9,457 260.8,457.1 260.8,457.2 261.6,458.7 261.6,458.8 261.7,458.8 
			263.8,458.8 263.8,458.8 264,458.8 264.2,458.8 264.2,458.8 269.2,458.1 269.4,458 269.4,457.9 269.4,457.1 269.4,457 269.3,457 
					"/>
		<polygon class="st1" points="397.7,120.5 397.7,120.6 397.8,120.6 402.3,120.6 402.4,120.6 402.4,120.5 403.9,118.2 404,118.1 
			403.8,118 402.3,117.2 402.3,117.2 402.2,117.2 397.7,118 397.7,118 397.7,118 395.5,118.7 395.1,118.8 395.4,119 		"/>
		<polygon class="st1" points="387.1,121.2 387.2,121.2 387.2,121.3 388.7,122.7 388.8,122.9 388.9,122.8 390.3,122.1 390.9,122.7 
			390.9,124.1 390.1,126.3 390.1,126.4 390.2,126.5 393.2,128 393.4,128.1 393.5,127.9 394.2,124.9 396.4,122 396.6,121.8 
			396.4,121.7 392.7,118.7 392.6,118.7 392.5,118.7 391,119.4 386.6,119.4 386.3,119.4 386.4,119.7 		"/>
		<polygon class="st1" points="398.6,122.4 398.5,122.8 398.5,122.8 398.4,122.8 398.4,124.8 398.3,125.1 398.5,125.1 400.8,125.1 
			401.2,125.1 400.9,124.7 398.8,122.7 		"/>
	</g>
	<g>
		<polygon class="st1" points="717.8,305.3 717.8,305.3 712.1,311 708.8,311 708.5,311 708.5,311.2 708.5,312.3 706.3,314.5 
			706.1,314.6 706.2,314.7 707.3,319.4 710.8,329.7 710.8,329.8 711,329.9 714.3,331 715.4,333.2 715.5,333.4 715.7,333.4 
			723.6,333.4 724.7,334.4 724.8,334.5 724.9,334.5 727.2,334.5 727.3,334.5 727.4,334.4 732,329.8 732.1,329.8 732.1,329.6 
			732.1,326.2 733.2,324 733.2,324 733.2,324 735.5,314.7 735.5,314.7 735.5,314.6 733.3,303.3 736.6,300 736.6,299.9 736.7,299.9 
			737.8,297.6 737.9,297.4 737.7,297.2 730.8,291.5 730.6,291.3 730.4,291.5 726,297.1 725.7,297 725.7,297.3 725.6,297.5 
			725.7,297.6 725.7,299.6 723.7,300.6 723.7,300.6 723.6,300.6 722.9,301 723.1,301 717.8,305.2 		"/>
		<polygon class="st1" points="806.7,463.3 806.8,463.3 806.9,463.2 817.2,448.2 817.3,448.2 817.3,448.1 819.6,434.3 819.6,434.3 
			819.6,434.2 818.4,423.9 818.4,420.5 818.4,420.4 818.4,420.3 816.1,416.9 816.1,406.7 816.1,406.6 816,406.5 810.4,400.8 
			810.4,382.5 810.4,382.3 810.1,382.3 806.9,381.2 805.8,367.6 805.7,367.4 805.6,367.3 803.3,366.2 803,366 802.9,366.3 
			796,392.6 794.1,392.6 782.8,382.5 788.5,371.1 788.6,370.9 788.3,370.8 776.8,367.3 776.5,367.2 776.4,367.4 775.3,369.6 
			770.9,370.8 770.7,370.8 770.7,370.9 763.9,381 756.1,377.7 755.9,377.6 755.8,377.7 736.3,399.5 733,399.5 732.9,399.5 
			732.8,399.5 714.5,408.7 713.4,408.7 713.2,408.7 713.1,408.9 708.5,422.7 708.5,422.7 708.5,422.8 709.6,427.1 707.6,427.1 
			707.4,427.1 707.4,427.3 706.2,430.7 706.2,430.8 706.2,430.9 708.5,441.2 706.2,453.7 701.6,459.4 701.4,459.6 701.7,459.8 
			706.3,463.3 706.4,463.3 706.5,463.3 714.6,461 724.9,461 724.9,461 725,461 736.5,455.2 749,454.1 756.8,457.4 756.8,466.5 
			756.8,467 757.3,466.7 765.4,461.6 760.3,469.7 760.1,470.2 760.6,470.2 764,470.2 764.2,470.2 764.3,470.1 767.1,466.3 
			766.1,475.5 763.8,477.7 763.6,478 763.8,478.2 771.9,486.2 772.1,486.4 772.3,486.2 774.3,484.1 776.5,487.3 776.6,487.5 
			776.8,487.4 788.3,484 788.4,484 788.4,483.9 803.3,464.4 		"/>
		<polygon class="st1" points="772.3,496.1 771.1,493.3 770.9,493 770.6,493.3 768.4,495 768.4,495 768.3,495.1 767.2,499.7 
			766.1,503.2 766,503.3 766.1,503.4 768.4,505.7 768.6,505.9 768.8,505.8 771.1,504.6 771.1,504.6 771.1,504.6 775.7,501.2 
			775.8,501.1 775.8,500.9 775.8,496.4 775.8,496.1 775.5,496.1 		"/>
		<polygon class="st1" points="833.3,503.1 833.2,502.8 832.9,503 821.4,512.2 821.4,512.3 821.3,512.3 820.3,514.5 817,514.5 
			816.9,514.5 816.8,514.5 806.5,521.4 806.3,521.5 806.3,521.7 806.3,526.2 806.3,526.5 806.6,526.5 813.5,526.5 813.6,526.5 
			813.7,526.5 816,524.2 824,518.4 827.4,517.3 827.6,517.3 827.6,517.2 828.8,513.8 835.6,508.1 835.8,507.9 835.7,507.7 		"/>
		<polygon class="st1" points="855.2,493.9 851.8,490.5 853,481.4 853,481.4 852.9,481.3 851.8,477.9 851.7,477.7 851.5,477.7 
			850.4,477.7 850.1,477.7 850.1,477.9 848.9,490.5 843.3,497.2 841.1,497.2 840.9,497.2 840.9,497.5 838.6,507.8 838.5,508.1 
			838.9,508.1 840,508.1 840.1,508.1 840.2,508.1 850.5,497.8 853.8,497.8 854,497.8 854.1,497.6 855.3,494.1 855.3,494 		"/>
		<polygon class="st1" points="764.3,172.3 764.3,172.2 765.4,167.8 766.2,167.8 767.3,168.9 767.6,169.2 767.7,168.8 768.9,166.5 
			768.9,166.4 768.9,166.3 767.8,160.5 767.7,160.5 767.7,160.4 765.5,158.2 765.5,157.3 766.5,156.2 766.7,156.1 766.6,155.9 
			763.1,147.9 763.1,147.8 763.1,147.8 757.3,142 757,141.6 756.8,142.1 755.7,146.7 755.7,146.8 755.7,146.9 758,152.6 758,159.3 
			754.6,162.7 754.5,162.8 754.5,162.9 754.5,165.1 752.3,167.3 750.1,168.4 750,168.4 750,168.5 745.4,174.2 744.8,174.9 
			745.7,174.7 754.7,172.4 755.7,174.5 755.8,174.8 756,174.7 764.1,172.4 		"/>
		<polygon class="st1" points="748,177.5 747.8,177.6 743.2,178.7 743,178.8 743,179 743,182.5 743,182.7 743.3,182.7 745.3,182.7 
			745.3,185.9 745.3,186 745.4,186 746.5,188.3 746.6,188.6 746.9,188.5 750.3,187.3 750.4,187.3 750.5,187.2 751.6,183.7 
			751.7,183.6 751.6,183.4 748.2,177.7 		"/>
		<polygon class="st1" points="752.7,175.4 752.5,175.1 752.3,175.4 750,177.7 749.8,177.8 750,178 752.3,181.5 752.6,182 
			752.8,181.4 753.9,176.8 754,176.6 753.9,176.5 		"/>
		<polygon class="st1" points="751.1,136.4 751.1,136.5 751.1,141 751.1,141.3 751.4,141.3 753.7,141.3 753.8,141.3 753.9,141.2 
			755,139 759.4,139 759.6,139 759.7,138.9 763.1,134.3 763.3,134.1 763.1,134 758.5,129.4 758.4,129.3 758.4,129.3 750.3,127 
			749.9,126.9 749.9,127.3 749.9,130.7 749.9,130.8 750,130.8 752.2,135.3 751.1,136.3 		"/>
	</g>
	<g>
		<polygon class="st1" points="340.2,52.4 339.3,52.3 328.4,50.1 333.5,46 334.4,47 334.5,47 334.5,47 341.4,51.6 341.6,51.8 
			341.8,51.5 345.3,45.8 345.4,45.6 345.2,45.4 340.6,42 340.4,41.8 340.3,41.9 338.4,42.9 338.4,40.2 347.3,40.2 347.5,40.2 
			347.6,40 352.2,29.7 352.3,29.2 351.9,29.2 344.3,29.2 346.3,24.1 353,26.4 353.3,26.5 353.3,26.1 353.3,19.2 353.3,18.9 
			353.1,18.9 347.6,18.9 347.6,17.1 357.7,13.7 357.9,13.6 357.9,13.4 357.9,12.4 358.9,11.4 361,11.4 363.3,12.5 363.4,12.6 
			363.6,12.5 367,10.2 367.4,10 367,9.7 361.3,6.3 361.1,6.2 361,6.3 347.4,10.8 346.7,10.1 353.1,8 353.1,7.4 340.2,7.4 354.3,3.4 
			354.6,3.3 354.5,3 353.3,0.7 353.2,0.5 353.1,0.5 301.3,0.5 301.2,0.5 301.1,0.6 294.3,6.2 291,5.1 290.8,5.1 290.7,5.1 277,14.3 
			264.4,15.4 264,15.5 264.1,15.8 265.3,19.3 265.3,19.3 265.4,19.4 266.5,20.5 266.6,20.6 266.7,20.6 271,20.6 271,22.3 
			266.7,22.3 266.4,22.3 266.4,22.6 266.4,24.9 266.4,25 266.5,25.1 267.6,27.4 267.7,27.5 267.9,27.5 274.7,27.5 279.2,28.6 
			281.4,34.2 280.2,42.1 280.2,42.6 280.6,42.5 283.8,41.4 284.8,46.5 281.7,46.5 281.2,46.5 281.4,46.9 282.6,49.2 282.6,49.3 
			282.7,49.3 284.8,50.4 283.7,53.6 282.7,55.7 278.2,55.7 278.1,55.7 278,55.8 274.5,60.4 274.5,60.5 274.5,60.6 274.5,66.3 
			274.5,66.5 274.6,66.5 275.6,67.6 275.6,71.9 273.5,73 273.3,73.1 273.3,73.3 276.8,84.8 276.8,85 277.1,85 280.3,85 282.6,89.5 
			282.7,89.7 282.9,89.6 286.4,88.4 286.5,88.4 286.5,88.3 296.9,72.3 303.7,68.9 303.7,68.8 303.8,68.8 305.9,66.7 308,67.7 
			308.2,67.8 308.4,67.7 311.8,64.3 319.7,58.6 324.2,59.7 324.3,59.7 324.4,59.7 339.4,52.8 		"/>
		<polygon class="st1" points="413.2,110.4 413.2,110 413.2,107.7 413.2,107.6 413.1,107.5 410.8,105.2 410.5,104.9 410.4,105.3 
			409.2,108.8 409.1,109 409.4,109.2 412.8,110.3 		"/>
		<polygon class="st1" points="421.1,180.7 421.2,180.2 422.5,174.8 422.6,174.5 422.3,174.4 414.1,173 413.8,172.9 413.8,173.3 
			413.8,174.4 413.8,174.5 413.9,174.6 420.8,180.4 		"/>
		<polygon class="st1" points="403.4,165.2 403.4,169.8 403.4,170.2 403.8,170.1 406.4,169.1 406.6,169 406.6,168.8 406.3,165.2 
			406.3,164.9 406,164.9 403.7,164.9 403.4,164.9 		"/>
	</g>
	<g>
		<polygon class="st1" points="446.5,184.3 446.7,184.3 453.7,185.6 454,185.7 454.1,185.4 454.5,183.4 454.6,183.1 454.2,183 
			446.3,182.5 445.9,182.4 446,182.8 446.5,184.1 		"/>
		<polygon class="st1" points="736.4,240.7 736.2,240.9 735,242 735,242.1 735,242.2 735,252.5 733.9,253.5 733.7,253.7 
			733.9,253.9 738.5,259.7 738.5,259.7 738.5,259.7 739.7,260.8 739.7,260.9 739.7,260.9 743.2,263.2 743.2,263.2 743.3,263.2 
			747.9,263.2 748.3,263.2 748.2,262.9 747,259.4 747,259.2 746.8,259.2 744.5,259.2 742.4,258.2 741.3,253.8 743.5,250.4 
			743.6,250.3 743.6,250.2 741.3,243.3 741.2,243.2 741.1,243.1 736.5,240.8 		"/>
		<polygon class="st1" points="744.2,269.1 744.2,269.8 744.2,274.4 744.2,275.1 744.6,274.6 747,272.4 747.1,272.1 747,271.9 
			744.6,269.6 		"/>
		<polygon class="st1" points="747.3,268.6 747.3,268.6 748.9,270.1 749.4,270.5 749.4,269.8 749.4,268.7 749.4,268.6 749.3,268.6 
			748.2,266.3 748,265.9 747.7,266.2 746.5,267.3 746.4,267.5 746.5,267.7 747.3,268.6 		"/>
		<polygon class="st1" points="754,269.8 754,266.4 754,265.9 753.5,266.1 751.2,267.3 751,267.4 751.1,267.7 751.5,268.4 
			751.6,268.4 751.6,268.5 753.5,270.1 754,270.5 		"/>
		<polygon class="st1" points="748.9,280.4 749.5,280.7 749.3,280.1 748.2,275.5 747.9,274.6 747.6,275.5 746.5,279 746.4,279.2 
			746.6,279.3 		"/>
		<polygon class="st1" points="752.2,293.1 752.4,293.1 757.1,294.3 757.4,294.3 757.4,294 757.4,291 759.3,292 759.5,292.1 
			759.7,291.8 760.8,289.5 760.9,289.4 760.8,289.3 758.6,280.1 758.5,280 758.4,279.9 756.1,278.8 755.9,278.7 755.7,278.9 
			752.3,283.4 749,284.5 748.8,284.6 748.8,284.8 748.8,288.2 748.8,288.5 749.1,288.5 752.2,288.5 752.2,292.8 		"/>
		<polygon class="st1" points="735,272.4 735,273.3 735,277.8 730.5,282.3 730.3,282.4 730.4,282.6 731.5,284.9 731.7,285.3 
			732,285 735.5,280.4 735.5,280.4 735.5,280.3 736.6,278.1 737.8,276.9 737.9,276.8 737.8,276.6 735.5,273.1 		"/>
		<polygon class="st1" points="752.5,271.5 752.3,272 751.3,273.7 751.1,273.9 751.3,274 753.4,276.9 754,277.6 754,276.7 
			754,274.4 754,274.4 753.9,274.3 752.8,272 		"/>
		<polygon class="st1" points="693.8,342.6 694,342.5 697.4,340.2 697.5,340.1 697.5,340 697.5,331.9 697.5,331.8 697.5,331.8 
			684.8,313.4 679.1,306.4 679,306.4 679,306.4 676.7,305.3 673.3,299.6 673.2,299.5 673.1,299.5 665.1,298.3 664.7,298.3 
			664.7,298.6 664.7,299.7 664.7,299.8 664.8,300 671.6,306.8 671.6,310.1 671.6,310.3 671.8,310.3 674,311.4 676.3,317.1 
			676.3,317.1 676.3,317.1 682,326.3 682,330.8 682,330.9 682.1,331 693.6,342.5 		"/>
		<polygon class="st1" points="697.1,324.3 697,325 696.5,327 696.5,327.2 696.7,327.3 699.4,328.7 699.8,328.3 697.5,324.9 		"/>
		<polygon class="st1" points="750.8,322.5 750.3,322.4 743.7,321.3 744.7,318.2 745.8,316.2 752.5,317.3 752.6,317.3 752.7,317.2 
			756.1,314.9 756.3,314.8 756.3,314.7 756.3,312.4 756.3,311.9 755.8,312.1 753.6,313.3 744.5,313.3 744.4,313.3 744.3,313.3 
			742,314.4 742,314.5 741.9,314.6 739.6,319.1 739.6,319.2 739.6,319.3 739.6,321.5 736.1,333 736.1,333.2 736.2,333.3 
			738.4,335.5 739.6,343.5 739.6,343.9 740,343.7 742.3,342.5 742.4,342.5 742.4,342.3 743.6,333.1 743.6,333.1 743.6,333.1 
			743.6,333 746.5,337.8 746.6,338 746.8,338 747.9,338 748.2,338 748.2,337.7 749.4,330.8 749.4,330.7 749.3,330.6 746,327.3 
			750.4,322.9 		"/>
		<polygon class="st1" points="764.9,320.5 765.6,324 765.8,324.8 766.2,324 767.7,320.6 767.8,320.5 767.8,320.4 767.8,315.8 
			767.8,315.8 767.8,315.7 765.4,310 765.3,309.6 765,309.9 763.8,311 763.7,311.1 763.7,311.3 		"/>
		<polygon class="st1" points="768.7,331.6 768.5,331.6 765.1,332.8 764.7,333 765,333.3 766.1,334.4 766.2,334.5 766.3,334.5 
			769.4,334.4 773.2,335.7 773.3,335.7 773.4,335.6 774.6,334.4 774.9,334.1 774.5,334 768.7,331.6 		"/>
		<polygon class="st1" points="736.5,354.1 736.5,353.5 730.7,352.4 730.4,352.3 730.4,352.6 730.4,354.9 730.4,355.3 730.7,355.2 
					"/>
		<polygon class="st1" points="747,355.2 747,354.9 747,353.8 747,353.5 746.8,353.5 739.9,353.5 739.7,353.5 739.7,353.6 
			738.5,354.7 738,355.2 738.7,355.2 746.8,355.2 		"/>
		<polygon class="st1" points="736.2,359.3 736.3,359.5 736.4,359.5 739.7,360.9 740.1,361.1 740.1,360.7 740.1,359.5 740.1,359.3 
			739.9,359.2 736.5,358.1 736,357.9 736.1,358.4 		"/>
		<polygon class="st1" points="700.5,328.8 700.7,328.8 701.9,328.8 702.3,328.8 702.1,328.4 699.8,323.7 699.7,323.6 699.6,323.6 
			698.4,323.6 698,323.6 698.2,324 700.4,328.6 		"/>
		<polygon class="st1" points="715.6,354 715.6,354.1 715.7,354.1 721.5,352.9 721.6,352.9 721.6,352.8 722.8,351.7 722.9,351.6 
			722.9,351.5 722.9,350.3 722.9,350.1 722.7,350 718.2,348.9 717.1,346.7 717,346.7 717,346.6 712.4,344.3 712.2,344.3 
			712.1,344.3 709.9,345.4 698.5,343.1 698.4,343.1 698.4,343.1 697.2,343.1 697.1,343.1 697.1,343.2 693.6,346.7 693.2,347 
			693.7,347.2 698.2,348.3 699.3,350.4 699.4,350.6 699.6,350.6 708.7,350.6 		"/>
		<polygon class="st1" points="778.8,328.7 778.9,328.8 779,328.8 779.9,328.8 779.9,329.5 777.7,330.5 777.4,330.7 777.6,331 
			779.8,333.1 778.7,335.2 778.6,335.4 778.8,335.6 779.9,336.7 780.1,336.9 780.3,336.7 782.5,334.6 794.8,342.4 796.1,353.1 
			796.1,353.3 796.3,353.3 800.7,355.2 806.5,358.6 806.9,358.9 806.9,358.4 806.9,356.2 810.2,354 812.4,353 816.8,356.3 
			820.2,363.1 820.2,363.2 820.4,363.3 827.3,364.4 827.9,364.5 827.6,364 820.8,351.5 823,347 823.1,346.8 822.9,346.7 
			817.3,342.1 817.3,338.8 817.3,338.7 817.2,338.6 813.7,335.2 813.7,335.1 813.7,335.1 803.5,329.5 803.5,329.3 803.2,329.3 
			802.9,329.2 802.9,329.3 799.8,329.3 797.6,328.3 795.3,326 795.2,325.9 795.1,325.9 794,325.9 793.8,325.9 793.7,326 
			789.3,331.6 783.9,329.4 783.9,323.9 783.9,323.7 783.8,323.7 779.2,320.2 778.9,320 778.7,320.3 776.5,323.7 776.4,323.8 
			776.4,323.9 776.4,326.2 776.4,326.3 776.5,326.4 		"/>
		<polygon class="st1" points="762,335.5 762.2,335.3 763.4,334.1 763.6,333.9 763.4,333.7 762.2,332.6 762.1,332.5 762,332.5 
			759.7,332.5 759,332.5 759.5,333 761.8,335.3 		"/>
		<polygon class="st1" points="760.7,356.4 761.7,355.9 760.6,355.8 757.6,355.5 757.5,355.5 757.4,355.5 750.1,359.3 749.9,359.3 
			749.9,359.5 749.9,360.7 749.9,361.1 750.3,360.9 		"/>
		<polygon class="st1" points="532.4,402 532.3,401.6 531.9,401.8 529.6,403 529.5,403.1 529.5,403.2 529.8,405.8 529.8,406.1 
			530,406.1 532.3,406.4 532.7,406.4 532.6,406.1 		"/>
		<polygon class="st1" points="546.6,389.2 546.3,389 546.2,389.3 545.5,393 545.4,393.3 545.7,393.3 548,393.6 548.2,393.6 
			548.3,393.4 549.6,391 549.7,390.7 549.4,390.6 		"/>
		<polygon class="st1" points="507.2,369.1 507.4,369.2 509.7,369.4 509.9,369.5 510,369.3 511.8,366.6 512.2,366.2 511.6,366.2 
			507.2,366 506.8,366 506.9,366.3 507.2,368.9 		"/>
	</g>
	<g>
		<polygon class="st1" points="416.2,183.4 416.4,184 417,186.5 417.1,187.1 417.5,186.7 418.9,184.9 419.2,184.6 418.8,184.5 
			416.8,183.6 		"/>
		<path class="st1" d="M276.2,341.1l0-0.1l-0.1-0.1l-13.8-9.2l-0.1,0h-0.1l-12.6-2.3l-4.5-2.3l-4.6-4.6l0-0.1l0,0l-2.3-1.1l-0.2-0.1
			l-0.1,0.1l-3.4,2.2H231h-0.1l-0.1,0.1l-1.9,0.9V324l2.2-2.2l0,0l0-0.1l1.1-2.2l4.5-2.3l0.4-0.2l-0.3-0.3l-3.4-3.4l-4.5-9l0.1-0.1
			l-0.2-0.1l-0.1-0.3l-0.1,0.2l-7.8-4.5l-2.3-2.3l-0.1-0.1l-0.1,0.1l-5.6,1.1l-7.7-8.8h0l-0.3-0.3l0,0l-0.2-0.2l0,0l-9-9l-0.1-0.1
			h-0.1l-5.8-1.2h-0.1l-0.1,0l-2.2,1.1l-9-2.3l-4.6-5.7l-0.2-0.2l-0.2,0.2l-1.1,1.1l-0.1,0.1v0.1v1.1v0.1l0.1,0.1l0.8,0.8l-3,1
			l-0.1,0.1l-0.1,0.1l-1.1,2.3l0,0.1v0.1v3.3l-1.7,0.9V278v-0.2v-0.5v-0.5l2.3-3.4l0.2-0.3L169,273l-2.3-1.1l-0.1-0.1l-0.1,0.1
			l-9.2,4.6l-0.1,0l-0.1,0.1l-5.6,9l-5.5-3.3l-0.1-0.1l-0.1,0l-9,1.1l-3.3-5.5l2.3-17l0.2-0.1l-0.2-0.2l0.1-0.4l-0.3,0.2l-4.4-4.4
			l-0.1-0.1l-0.1,0l-8-1.1l0,0l-1.7-0.4l0.7-1.5l0-0.1v-0.1v-4.5l6.9-13.7l0.2-0.4l-0.5,0.1l-11.5,1.1h-0.2l-0.1,0.2l-1.2,4.6
			c0,0-0.8,2.6-1.1,3.3l-10,1.1l-6.7-8.9l2.3-13.7l2.3-6.8l11.4-14.8h7.9l8,4.6l0.3,0.2l0.1-0.4l1.1-5.4l4.3,1.1l9,2.2l2.3,17.1
			l0,0.3h0.2h2.3h0.1l0.1-0.1l2.3-2.3l0.1-0.1l0-0.1l1.1-5.8v0v0v-10.3l4.5-10.1h2.1h0.1l0.1,0l13.8-10.4l0.1-0.1v-0.1v-8l2.9-5.8v0
			l1.2,4.6l0.1,0.6l0.4-0.5l5.8-8.1l0,0l0,0l1.1-3.3l10.2-1.1l0.1,0l0.1-0.2l1.1-2.3l0-0.2l-0.1-0.2l-1-1l2.2-5.4h3.2h0.1l0.1-0.1
			l9.1-5.7h1.9v0.8l-1.1,2.2l0,0.1v0.1v3.4v0.5l0.4-0.2l11.5-5.8l0.3-0.2l-0.3-0.3l-5.7-5.6v-4.5v-0.1l0-0.1l-0.9-1.9h3h0.2l0.1-0.2
			l1.1-2.3l0.2-0.3l-0.3-0.1l-4.6-1.2H216l-0.1,0.1l-14.9,10.4l-2,1l-1-3l18.2-12.5h17.2h0.1l0.1,0l12.7-6.9l0.1-0.1l0.1-0.1
			l1.1-3.4l0.1-0.3l-0.3-0.1l-5.8-1.1l-0.1-0.1l-0.1,0.1l-3.3,2.2l-0.8-0.8l4.4-5.5l0.1-0.1v-0.1v-4.6v-0.2l-0.2-0.1l-2.1-1.1v-4.4
			l-1.1-11.5l-0.1-0.5l-0.4,0.3l-6.7,5.6l-5.4-4.3l2.2-4.4l0.1-0.2l-0.2-0.1l-6.9-5.8h0l0,0l-6.9-3.4l-0.3-0.1l-0.1,0.3l-5.7,13.7
			l-4.5,2.3l-0.2,0.1v0.2l-1.1,10.2l-10.2,4.5l-0.2,0.1v0.2v6.8l-2.3,5.6l-1.1,1.1l-2.1,1l-0.9-0.9v-3.3v-0.1l-0.1-0.1l-2.2-2.2
			l3.4-7.9l0.1-0.2l-0.2-0.1l-5.7-4.6l-5.7-6.9l-0.1-0.1h-0.1h-4.4l-1-2l2.2-3.3l0.1-0.2l-0.2-0.2l-1.1-1.1v-2.1l5.6-6.8l12.6-6.9
			l0.6-0.3l-0.6-0.2l-6.8-2.2l-0.9-2.8l7.5,2.2h0h0.1h8.1h0.2l0.1-0.2l1.1-2.3l0.1-0.3l-0.3-0.1l-4.2-2.1l2.9-1.9L201,62l0.1,0.1
			l0.1,0l5.7-2.3h1.1h0h0l9.2-2.3l0.1-0.1l0.1-0.1l3.5-8.1l0.1-0.3l-0.3-0.1l-5.8-1.1l-0.2-0.1l-0.1,0.1l-6.6,6.6l-3.2-8.6l2.2-2.2
			l0.1-0.1v-0.1v-6.9v-0.5l-0.4,0.3l-10.3,5.7l-0.2,0.1l0.1,0.2l1.1,3.4v1l-7.5,8.5v-3.8v-0.1l-0.1-0.1l-1.1-1.1l-0.1,0l-0.1,0
			l-3.5-1.2l-0.2,0l-0.1,0.1l-2.2,2.2l-9-3.4l-0.1,0h-0.1h-5.7h-0.1l-0.1,0.1l-4.4,4.4l-2.1-3.2l-0.1-0.1l-0.1,0l-6.5-1.1l2-3.1
			l0.2-0.3l-0.3-0.2L146,38.5l-0.1-0.1l-0.1,0l-3.2,1.1l-2.2-3.3l-0.2-0.3l-0.2,0.3l-1,1l-4.4-1.1h-0.1h-0.1l-14.8,2.3l-4.2-3.2
			l0-0.1l-0.3-0.2l-0.2-0.1l0,0l-13.6-8l-0.1,0h-0.1l-15,1.2h-0.1l0,0l-11.4,4.5l-5.6-4.5l-0.3-0.2l-0.2,0.3l-1.1,2.3l0,0.1v0.1v7.9
			l-3.1,2l-2.1-3.2l-0.2-0.2l-0.3,0.2l-10.3,6.9l-0.5,0.3l0.6,0.2l7.6,2.2l-4.2,4.1l-5.6-1.1l-0.1,0L49,49.9l-11.5,5.8l-0.1,0.1
			l-0.1,0.1l-3.5,10.4l-0.1,0.3l0.3,0.1l5.2,2.1l-11,6.6l-9.2,2.3l-0.1,0L19,77.6l-1.2,1.1l-0.5,0.5h0.7h11.5h0.1l0.1,0l20.7-10.4
			l0.2-0.1v-0.2v-2.1L61.9,62h1l0.8,0.8L55.9,66l-0.1,0.1l0,0.1l-1.2,2.3l-0.1,0.3l0.3,0.1l2.3,1.2l0.1,0.1l0.1-0.1l9.1-4.5l7.9,4.5
			l3.4,8l0.1,0.3l0.3-0.1l4.2-2.1v1.8L79.9,87c0,0-0.9,4.8-1.1,5.6h0l0,0.1l0,0l-0.1,0.6h0l-1.1,6.3l-1.2,8.1l0,0.1l0.1,0.1l4.5,7.9
			l-4.3,7.5l-2-3.1l-0.1-0.1h-0.1h-2.3H72l-0.1,0.1l-17.3,31l0,0v0.1v8v0.1l0,0.1l1.1,3.2l-3.2,1l-0.2,0.1v0.2v10.4v0.1l0.1,0.1
			l5.7,6.8v3.1v0.3v0.3v7.7v0v0l1.1,9l-2.1,1.1l-0.3,0.1l0.2,0.3l2.3,3.4c0,0,3,3.9,3.4,4.5v10.3v0.1l0,0.1l2.3,4.6l0.2,0.4l0.3-0.3
			l2.3-2.3l0.1-0.1l-0.1-0.2l-2.3-6.9v-10.3v0v-0.1l-3.4-11.4l2.1-6.3l2,2.9l2.3,13.7h0v0l3.5,11.5v0l0,0l4.6,10.3l-1.1,10.3l0,0.1
			l0.1,0.1l11.5,13.8l0,0l0,0l9.2,4.6l0.1,0.1l0.1-0.1l3.4-1.1c0,0,3.5-0.9,4.4-1.1l4.4,6.6l0,0.1l0.1,0.1l0.3,0.4l0.1-0.1l2,2l0,0
			h0l3.2,2.2l0,0.1l0.3,0.1l0.2,0.2l0-0.1l5.5,2.2l0.1,0.1l0.1-0.1l1.9-1v0.6l-1.1,2.2l-0.1,0.1l0,0.1l3.5,9.2l1.2,3.4l0,0.1l0,0
			l1.1,1.1l0.2,0.1l0.2-0.1l2.1-1.1l4.3,4.3l-0.2,0.2h0.4l0.2,0.2l0.1-0.2h0.8l3.4,4.5l0.1,0.2l0.2-0.1l2.3-1.2l0.2-0.1v-0.2v-2.1
			l3-1l3.3,5.5V310l-2.3,4.5c0,0.1-2.3,3.4-2.3,3.4l-4.6,8.1l0,0.1v0.1v5.7v0.5l0.4-0.2l1.9-0.9v2.8l-2,2.1l-0.3-0.2l0.1,0.5
			l-0.2,0.2l0.2,0.1l1.1,9.1l0,0.1l0.1,0.1l6.9,6.8l2.3,6.8l9.2,21.9l0,0.1l0.1,0l10.4,6.9c0,0,5.2,4.2,5.7,4.5l1.1,2.2l3.4,29.9
			l5.8,50.6l0,0l0,0.1l2.3,5.7v4.5v0.2l0.2,0.1l3.5,1.1l2.1,1.1l3.4,15.6h-1.9h-0.2l-0.1,0.2l-1.1,2.3l-0.1,0.2l0.2,0.2l4.5,3.4v3.3
			v0.1l0.1,0.1l2.3,3.4l1.1,4.5l0,0.1l0.1,0.1l3.4,3.4v1v0.1l0.1,0.1l2.3,2.3l0.1,0.1h0.1h2.1l1,2.1v1.1v0.2l0.2,0.1l2.3,1.1l0.1,0
			h0.1h2.3h0.3v-0.4v-3.3l2.2-2.2l0.1-0.1v-0.1v-0.9v-0.3V526v-0.9V525l0-0.1l-2.3-4.5l3.4-10.3l0,0v-0.1v-3.4v-0.2l-0.2-0.1
			l-6.5-3.3l4.2-3.2l0.1-0.1v-0.2v-12.6V487l-0.1-0.1l-1.1-1.2l-0.1-0.1H215h-2.1l-1-4h3l1.1,1.1l0.2,0.2l0.2-0.2l2.3-2.3l0.1-0.1
			v-0.1v-2.3v-0.1l-0.1-0.1l-1.1-1.1v-1.9h4.3h0.1l0.1-0.1l5.8-3.4l0.1-0.1l0-0.1l2.3-6.9l0.1-0.2l-0.2-0.1l-5.7-3.4l-2.3-6.8
			l-0.6-3.2l1.1,3.4v0h0l1.2,2.3l0.1,0.1l0.1,0.1l3.4,1.1l0.1,0h0h2.3h0.1l0.1,0l3.5-1.1l0.1-0.1l0-0.1l3.4-5.7l1-1l0.1,0.1l0.1-0.3
			l0.2-0.2l-0.1-0.1l3.3-6.6l1.1-1.1l0.1-0.1l0-0.1l1.1-4.5l1.1-1.1l0.1-0.1l0-0.1l-1.1-15.9l18.3-11.4l0.1-0.1l0-0.1l4.6-20.7
			l0-0.1v0l-1.1-14.8l2.2-3.3l2.2-1.1l0.1,0l0-0.1l6.9-14.9l0-0.1v-0.1L276.2,341.1z M176.1,383.6v-1.9h0.8l3.1,2.1l-1.9,1.9
			L176.1,383.6z"/>
		<polygon class="st1" points="233.4,319.9 233.4,320 231.8,321.8 231.3,322.4 232.1,322.3 233.4,322.1 233.4,322.1 233.4,322.1 
			236.9,321 237,321 237,320.8 238.2,318.6 238.5,317.9 237.8,318.2 233.5,319.9 		"/>
	</g>
	<g>
		<path class="st1" d="M508.4,46.4l-0.2,0.1l-1.1,1.1l-0.2,0.2l0.2,0.2l3.4,3.4l0.5,0.5v-0.7v-3.4v-0.2l-0.2-0.1l-2.3-1.1
			L508.4,46.4z M508.5,47.1l1.9,1v2.6l-2.8-2.7L508.5,47.1z"/>
		<path class="st1" d="M747,112.6v-0.3v-1.2V111l-0.1-0.1l-5.8-4.6c0,0-4.2-3.2-4.6-3.4l-8.1-10.3l-0.1-0.1h-0.1h-1.1h-0.3v0.3v4.6
			v0.1l0.1,0.1l4.6,5.8l0,0v0l5.7,5.7l4.6,10.3l0,0.1l0.1,0.1l5.8,4.6l0.3,0.3l0.1-0.4l1.1-4.6l0.1-0.2l-0.1-0.1l-5.4-6.4h2.8
			L747,112.6L747,112.6z"/>
		<path class="st1" d="M728.4,21.8L728.4,21.8l0.1-0.1l1.2-1.1l0.5-0.5h-0.7h-4.6h-0.1l-0.1,0.1l-2.3,2.3l-0.7,0.7l0.9-0.2
			L728.4,21.8z M725,20.6h3.8l-0.6,0.6l-4.7,0.9L725,20.6z"/>
		<polygon class="st1" points="497.9,48.2 498,48.2 498.2,48.2 505.1,47.1 506.1,46.9 505.1,46.5 499.5,44.3 498.4,38.7 498.3,38.5 
			498.2,38.5 495.9,37.3 495.7,37.2 495.6,37.4 491,42 490.8,42.2 491,42.4 		"/>
		<polygon class="st1" points="500.3,35.6 500.5,35.6 500.6,35.5 507.5,28.6 515.5,26.4 516.1,26.2 515.5,25.8 512.1,23.5 
			511.9,23.5 511.8,23.5 506.1,25.8 502.8,24.7 502.6,24.6 502.5,24.8 496.7,34 496.5,34.3 496.9,34.4 		"/>
		<polygon class="st1" points="552,13.6 552,13.7 552.2,13.7 557.9,14.9 558.1,14.9 558.2,14.7 560.5,10.1 560.6,9.9 560.5,9.8 
			558.2,7.5 558,7.3 557.8,7.4 555.7,8.5 552.4,6.3 552.2,6.2 552,6.3 549.7,8.6 549.6,8.8 549.6,9 		"/>
		<polygon class="st1" points="565.8,15.9 566,16.1 566.2,15.9 570.8,11.3 571,11.1 570.8,10.9 569.7,9.8 569.6,9.7 569.5,9.7 
			564.9,9.7 564.7,9.7 564.6,9.9 563.4,13.3 563.4,13.5 563.5,13.6 		"/>
		<polygon class="st1" points="659.2,18.3 659.6,18.4 659.6,18 658.4,13.4 658.3,13.1 658.1,13.1 651.2,14.3 650.9,14.3 650.9,14.6 
			650.9,16.9 650.9,17.1 651.2,17.2 		"/>
		<polygon class="st1" points="641.8,20.5 641.9,20.7 642.1,20.6 645.5,19.4 645.9,19.3 645.7,19 643.4,15.6 643.3,15.3 643,15.5 
			640.7,16.6 640.6,16.7 640.6,16.9 640.6,19.2 640.6,19.3 640.7,19.4 		"/>
	</g>
	<g>
		<circle class="st1" cx="143.8" cy="241.5" r="3.2"/>
		<polygon class="st1" points="163.3,241.4 163.4,241.2 164.5,238.9 164.6,238.7 164.4,238.5 143.7,227 143.6,227 143.5,227 
			136.6,228.2 136.4,228.2 136.4,228.3 134.1,232.9 133.9,233.4 134.3,233.4 137.8,233.4 137.9,233.4 137.9,233.3 141.3,231 
			142.3,231 153.6,239 153.6,242.2 153.6,242.6 153.9,242.5 163.1,241.4 		"/>
		<polygon class="st1" points="136.9,234.4 136.7,234.9 135.5,237.2 135.5,237.3 135.5,237.4 135.8,238.4 135.9,238.8 136.2,238.6 
			138.2,237.6 138.5,237.5 138.3,237.2 137.2,234.9 		"/>
		<polygon class="st1" points="203.2,277 203.5,277 203.4,276.7 202.8,274.6 202.8,274.4 202.5,274.4 201.4,274.4 201.1,274.4 
			201.1,274.7 201.1,277 201.1,277.4 201.4,277.3 		"/>
		<polygon class="st1" points="201.9,269.7 201.7,269.7 201.7,270 201.7,272.3 201.7,272.6 202,272.6 203.7,272.3 204.1,272.2 
			203.9,271.9 203.4,269.9 203.3,269.7 203.1,269.7 		"/>
		<polygon class="st1" points="202.8,268.7 203.2,268.6 203.1,268.3 202.5,266.3 202.5,266.1 202.2,266.1 201.1,266.1 200.8,266.1 
			200.8,266.4 200.8,268.7 200.8,269 201.1,269 		"/>
		<polygon class="st1" points="202.4,259.7 202.7,259.6 202.4,259.3 200.2,257 199.7,256.5 199.7,257.2 199.7,260.6 199.7,261.1 
			200.1,260.9 		"/>
		<polygon class="st1" points="204.1,256.2 203.5,254.2 203.5,254 203.3,254 202.1,254 201.8,254 201.8,254.3 201.8,256.6 
			201.8,257 202.2,256.9 203.9,256.6 204.2,256.6 		"/>
		<polygon class="st1" points="203.5,263.7 203,261.7 202.9,261.5 202.7,261.5 201.5,261.5 201.2,261.5 201.2,261.8 201.2,264.1 
			201.2,264.4 201.6,264.4 203.3,264.1 203.6,264 		"/>
		<polygon class="st1" points="199.9,252.9 200.1,252.9 200.2,252.8 201.3,251.6 201.8,251.2 201.1,251.2 198.8,251.2 198.5,251.2 
			198.5,251.5 198.5,252.6 198.5,252.9 198.8,252.9 		"/>
		<polygon class="st1" points="197.7,248.9 192,247.7 191,247.5 191.7,248.2 194,250.5 194.1,250.6 194.3,250.6 197.7,249.4 
			198.8,249.1 		"/>
		<polygon class="st1" points="183.5,245.1 183.5,245.7 183.5,249.2 183.5,249.4 183.8,249.4 188.4,249.4 189.3,249.4 188.6,248.9 
			184,245.5 		"/>
		<polygon class="st1" points="168.9,236.8 169.3,236.8 169.1,236.4 168,234.1 167.7,233.6 167.5,234.1 166.3,236.4 166.1,236.8 
			166.6,236.8 		"/>
	</g>
</g>
</svg>
