<?xml version="1.0" encoding="utf-8"?>
<!-- Generator: Adobe Illustrator 21.1.0, SVG Export Plug-In . SVG Version: 6.00 Build 0)  -->
<svg version="1.1" id="Capa_1" opacity="0.9" xmlns="http://www.w3.org/2000/svg" xmlns:xlink="http://www.w3.org/1999/xlink"
	 x="0px" y="0px" viewBox="0 0 854.8 533" style="enable-background:new 0 0 854.8 533;" xml:space="preserve">
<style type="text/css">
	.st0{opacity:0.9;}
	.st1{fill:url(#SVGID_1_);}
	.st2{fill:url(#SVGID_2_);}
	.st3{fill:url(#SVGID_3_);}
	.st4{fill:url(#SVGID_4_);}
	.st5{fill:url(#SVGID_5_);}
	.st6{fill:url(#SVGID_6_);}
	.st7{fill:url(#SVGID_7_);}
	.st8{fill:url(#SVGID_8_);}
	.st9{fill:url(#SVGID_9_);}
	.st10{fill:url(#SVGID_10_);}
	.st11{fill:url(#SVGID_11_);}
	.st12{fill:url(#SVGID_12_);}
	.st13{fill:url(#SVGID_13_);}
	.st14{fill:url(#SVGID_14_);}
	.st15{fill:url(#SVGID_15_);}
	.st16{fill:url(#SVGID_16_);}
	.st17{fill:url(#SVGID_17_);}
	.st18{fill:url(#SVGID_18_);}
	.st19{fill:url(#SVGID_19_);}
	.st20{fill:url(#SVGID_20_);}
	.st21{fill:url(#SVGID_21_);}
	.st22{fill:url(#SVGID_22_);}
	.st23{fill:url(#SVGID_23_);}
	.st24{fill:url(#SVGID_24_);}
	.st25{fill:url(#SVGID_25_);}
	.st26{fill:url(#SVGID_26_);}
	.st27{fill:url(#SVGID_27_);}
	.st28{fill:url(#SVGID_28_);}
	.st29{fill:url(#SVGID_29_);}
	.st30{fill:url(#SVGID_30_);}
	.st31{fill:url(#SVGID_31_);}
	.st32{fill:url(#SVGID_32_);}
	.st33{fill:url(#SVGID_33_);}
	.st34{fill:url(#SVGID_34_);}
	.st35{fill:url(#SVGID_35_);}
	.st36{fill:url(#SVGID_36_);}
	.st37{fill:url(#SVGID_37_);}
	.st38{fill:url(#SVGID_38_);}
	.st39{fill:url(#SVGID_39_);}
	.st40{fill:url(#SVGID_40_);}
	.st41{fill:url(#SVGID_41_);}
	.st42{fill:url(#SVGID_42_);}
	.st43{fill:url(#SVGID_43_);}
	.st44{fill:url(#SVGID_44_);}
	.st45{fill:url(#SVGID_45_);}
	.st46{fill:url(#SVGID_46_);}
	.st47{fill:url(#SVGID_47_);}
	.st48{fill:url(#SVGID_48_);}
	.st49{fill:url(#SVGID_49_);}
	.st50{fill:url(#SVGID_50_);}
	.st51{fill:url(#SVGID_51_);}
	.st52{fill:url(#SVGID_52_);}
	.st53{fill:url(#SVGID_53_);}
	.st54{fill:url(#SVGID_54_);}
	.st55{fill:url(#SVGID_55_);}
	.st56{fill:url(#SVGID_56_);}
	.st57{fill:url(#SVGID_57_);}
	.st58{fill:url(#SVGID_58_);}
	.st59{fill:url(#SVGID_59_);}
	.st60{fill:url(#SVGID_60_);}
	.st61{fill:url(#SVGID_61_);}
	.st62{fill:url(#SVGID_62_);}
	.st63{fill:url(#SVGID_63_);}
	.st64{fill:url(#SVGID_64_);}
	.st65{fill:url(#SVGID_65_);}
	.st66{fill:url(#SVGID_66_);}
	.st67{fill:url(#SVGID_67_);}
	.st68{fill:url(#SVGID_68_);}
	.st69{fill:url(#SVGID_69_);}
	.st70{fill:url(#SVGID_70_);}
	.st71{fill:url(#SVGID_71_);}
	.st72{fill:url(#SVGID_72_);}
	.st73{fill:url(#SVGID_73_);}
	.st74{fill:url(#SVGID_74_);}
	.st75{fill:url(#SVGID_75_);}
	.st76{fill:url(#SVGID_76_);}
	.st77{fill:url(#SVGID_77_);}
	.st78{fill:url(#SVGID_78_);}
	.st79{fill:url(#SVGID_79_);}
	.st80{fill:url(#SVGID_80_);}
	.st81{fill:url(#SVGID_81_);}
	.st82{fill:url(#SVGID_82_);}
	.st83{fill:url(#SVGID_83_);}
	.st84{fill:url(#SVGID_84_);}
	.st85{fill:url(#SVGID_85_);}
	.st86{fill:url(#SVGID_86_);}
	.st87{fill:url(#SVGID_87_);}
	.st88{fill:url(#SVGID_88_);}
	.st89{fill:url(#SVGID_89_);}
	.st90{fill:url(#SVGID_90_);}
	.st91{fill:url(#SVGID_91_);}
	.st92{fill:url(#SVGID_92_);}
	.st93{fill:url(#SVGID_93_);}
	.st94{fill:url(#SVGID_94_);}
	.st95{fill:url(#SVGID_95_);}
	.st96{fill:url(#SVGID_96_);}
	.st97{fill:url(#SVGID_97_);}
	.st98{fill:url(#SVGID_98_);}
	.st99{fill:url(#SVGID_99_);}
	.st100{fill:url(#SVGID_100_);}
	.st101{fill:url(#SVGID_101_);}
	.st102{fill:url(#SVGID_102_);}
	.st103{fill:url(#SVGID_103_);}
	.st104{fill:url(#SVGID_104_);}
	.st105{fill:url(#SVGID_105_);}
	.st106{fill:url(#SVGID_106_);}
	.st107{fill:url(#SVGID_107_);}
	.st108{fill:url(#SVGID_108_);}
	.st109{fill:url(#SVGID_109_);}
	.st110{fill:url(#SVGID_110_);}
	.st111{fill:url(#SVGID_111_);}
	.st112{fill:url(#SVGID_112_);}
	.st113{fill:url(#SVGID_113_);}
	.st114{fill:url(#SVGID_114_);}
</style>
<g id="active_2_" class="st0">
	<g>
		
			<linearGradient id="SVGID_1_" gradientUnits="userSpaceOnUse" x1="76.2" y1="526.3961" x2="76.2" y2="89.4054" gradientTransform="matrix(1 0 0 -1 0 534)">
			<stop  offset="1.502404e-03" style="stop-color:#008694"/>
			<stop  offset="1" style="stop-color:#662D90"/>
		</linearGradient>
		<polygon class="st1" points="77,89.4 77.1,89.1 78.2,84.5 78.3,84.2 77.9,84.2 75.6,84.2 75.4,84.2 75.4,84.4 74.2,89 74.1,89.4 
			74.5,89.4 76.8,89.4 		"/>
		
			<linearGradient id="SVGID_2_" gradientUnits="userSpaceOnUse" x1="12.3" y1="526.3961" x2="12.3" y2="89.4054" gradientTransform="matrix(1 0 0 -1 0 534)">
			<stop  offset="1.502404e-03" style="stop-color:#008694"/>
			<stop  offset="1" style="stop-color:#662D90"/>
		</linearGradient>
		<polygon class="st2" points="13.7,77.4 13.6,77.2 13.3,77.3 9.9,79.6 9.6,79.8 9.8,80.1 11,81.2 11.1,81.4 11.3,81.3 14.7,80.1 
			15,80.1 14.9,79.8 		"/>
		
			<linearGradient id="SVGID_3_" gradientUnits="userSpaceOnUse" x1="3.9" y1="526.3961" x2="3.9" y2="89.4054" gradientTransform="matrix(1 0 0 -1 0 534)">
			<stop  offset="1.502404e-03" style="stop-color:#008694"/>
			<stop  offset="1" style="stop-color:#662D90"/>
		</linearGradient>
		<polygon class="st3" points="0.8,81.9 0.5,81.9 0.5,82.2 5.6,83.5 0.5,83.6 0.8,83.6 5.4,83.6 5.5,83.6 5.6,83.5 6.8,82.4 
			7.3,81.9 6.6,81.9 		"/>
		
			<linearGradient id="SVGID_4_" gradientUnits="userSpaceOnUse" x1="396" y1="526.3961" x2="396" y2="89.4054" gradientTransform="matrix(1 0 0 -1 0 534)">
			<stop  offset="1.502404e-03" style="stop-color:#008694"/>
			<stop  offset="1" style="stop-color:#662D90"/>
		</linearGradient>
		<circle class="st4" cx="396" cy="318.1" r="2.9"/>
	</g>
	
		<linearGradient id="SVGID_5_" gradientUnits="userSpaceOnUse" x1="699.7" y1="526.3961" x2="699.7" y2="89.4054" gradientTransform="matrix(1 0 0 -1 0 534)">
		<stop  offset="1.502404e-03" style="stop-color:#008694"/>
		<stop  offset="1" style="stop-color:#662D90"/>
	</linearGradient>
	<polygon class="st5" points="699,234.7 698.9,234.8 696.6,239.4 696.5,239.7 696.7,239.8 699,240.9 699.2,241.1 699.3,240.9 
		702.8,237.5 702.9,237.4 702.9,237.2 702.9,235 702.9,234.7 702.6,234.7 699.2,234.7 	"/>
	<g>
		
			<linearGradient id="SVGID_6_" gradientUnits="userSpaceOnUse" x1="240.75" y1="526.3961" x2="240.75" y2="89.4054" gradientTransform="matrix(1 0 0 -1 0 534)">
			<stop  offset="1.502404e-03" style="stop-color:#008694"/>
			<stop  offset="1" style="stop-color:#662D90"/>
		</linearGradient>
		<polygon class="st6" points="244.6,137.7 244.9,137.7 246,137.7 246.1,137.7 246.2,137.6 248.5,135.3 248.6,135.2 248.6,135.1 
			248.6,133.9 248.6,133.7 248.4,133.7 246.4,132.6 247.4,129.4 247.5,129.2 247.3,129.1 243,126.9 247.4,121.4 247.9,120.8 
			247.1,121 241.4,122.1 241.3,122.2 241.2,122.2 233.1,129.1 232.9,129.3 233.1,129.5 234.2,130.6 233.1,133.8 232.9,134.1 
			233.3,134.2 238.9,135.3 240,137.5 240.1,137.7 240.3,137.7 241.4,137.7 241.6,137.7 241.6,137.5 243.9,134.2 244.6,134.2 
			244.6,137.4 		"/>
		
			<linearGradient id="SVGID_7_" gradientUnits="userSpaceOnUse" x1="226.35" y1="526.3961" x2="226.35" y2="89.4054" gradientTransform="matrix(1 0 0 -1 0 534)">
			<stop  offset="1.502404e-03" style="stop-color:#008694"/>
			<stop  offset="1" style="stop-color:#662D90"/>
		</linearGradient>
		<polygon class="st7" points="227.9,136.2 227.9,135.2 227.3,136.1 223.9,141.8 223.6,142.2 224.1,142.2 227.6,142.2 227.7,142.2 
			227.8,142.2 228.9,141 229.1,140.8 228.9,140.6 227.9,139.6 227.9,137.4 		"/>
		
			<linearGradient id="SVGID_8_" gradientUnits="userSpaceOnUse" x1="161.4" y1="526.3961" x2="161.4" y2="89.3979" gradientTransform="matrix(1 0 0 -1 0 534)">
			<stop  offset="1.502404e-03" style="stop-color:#008694"/>
			<stop  offset="1" style="stop-color:#662D90"/>
		</linearGradient>
		<polygon class="st8" points="157.4,34.2 157.5,34.2 157.5,34.1 165.5,28.4 171.2,27.2 171.7,27.2 171.4,26.8 169.1,23.4 169,23.2 
			168.9,23.2 162,23.2 161.9,23.2 161.8,23.3 153.8,29.1 153.7,29.1 153.7,29.2 151.4,33.8 151.1,34.2 151.6,34.2 		"/>
		
			<linearGradient id="SVGID_9_" gradientUnits="userSpaceOnUse" x1="178.6" y1="526.3961" x2="178.6" y2="89.4054" gradientTransform="matrix(1 0 0 -1 0 534)">
			<stop  offset="1.502404e-03" style="stop-color:#008694"/>
			<stop  offset="1" style="stop-color:#662D90"/>
		</linearGradient>
		<polygon class="st9" points="172.1,20.2 172.2,20.4 172.3,20.4 173.5,20.4 173.5,20.4 173.6,20.4 186.3,15.7 186.4,15.7 
			186.4,15.5 186.4,13.2 186.4,12.9 186.1,12.9 175.7,14.1 175.7,14.1 175.6,14.1 171,17.6 170.8,17.7 170.9,17.9 		"/>
		
			<linearGradient id="SVGID_10_" gradientUnits="userSpaceOnUse" x1="189.45" y1="526.3961" x2="189.45" y2="89.4054" gradientTransform="matrix(1 0 0 -1 0 534)">
			<stop  offset="1.502404e-03" style="stop-color:#008694"/>
			<stop  offset="1" style="stop-color:#662D90"/>
		</linearGradient>
		<polygon class="st10" points="197.8,25 197.9,24.9 200.2,22.6 200.4,22.4 200.2,22.2 199,21 198.9,21 198.8,21 197.8,21 
			196.9,20.1 197.9,19.1 198.4,18.6 197.7,18.6 196.5,18.6 196.5,18.6 196.4,18.7 189.6,20.9 185.1,18.7 185,18.6 184.9,18.7 
			179.1,21 178.9,21 178.9,21.2 178.9,22.4 178.9,22.6 179.1,22.7 182.2,23.7 180.2,25.6 179,26.8 178.5,27.3 179.3,27.3 
			182.7,27.3 182.8,27.3 182.8,27.2 187.4,25 197.7,25 		"/>
		
			<linearGradient id="SVGID_11_" gradientUnits="userSpaceOnUse" x1="199.5" y1="526.3961" x2="199.5" y2="89.4054" gradientTransform="matrix(1 0 0 -1 0 534)">
			<stop  offset="1.502404e-03" style="stop-color:#008694"/>
			<stop  offset="1" style="stop-color:#662D90"/>
		</linearGradient>
		<polygon class="st11" points="197.5,15.7 197.6,15.8 197.8,15.7 201.2,14.6 201.3,14.6 201.3,14.5 203.6,12.2 203.9,12 
			203.6,11.8 201.2,10.6 201.1,10.5 200.9,10.7 198.7,12.8 195.5,11.8 195.1,11.6 195.1,12 195.1,14.3 195.1,14.5 195.2,14.6 		"/>
		
			<linearGradient id="SVGID_12_" gradientUnits="userSpaceOnUse" x1="209.2" y1="526.3961" x2="209.2" y2="89.4054" gradientTransform="matrix(1 0 0 -1 0 534)">
			<stop  offset="1.502404e-03" style="stop-color:#008694"/>
			<stop  offset="1" style="stop-color:#662D90"/>
		</linearGradient>
		<polygon class="st12" points="210.2,26.1 210.4,26.2 210.6,26 214,21.4 214.2,21.2 214,21 211.7,18.8 211.5,18.5 211.3,18.8 
			209.2,20.8 205.9,17.6 205.6,17.2 205.4,17.7 204.3,22.3 204.2,22.5 204.4,22.6 		"/>
		
			<linearGradient id="SVGID_13_" gradientUnits="userSpaceOnUse" x1="216.05" y1="526.3961" x2="216.05" y2="89.4054" gradientTransform="matrix(1 0 0 -1 0 534)">
			<stop  offset="1.502404e-03" style="stop-color:#008694"/>
			<stop  offset="1" style="stop-color:#662D90"/>
		</linearGradient>
		<polygon class="st13" points="215.8,16.7 216,17.8 216.3,16.7 217.5,13.3 217.5,13.2 217.5,13.1 216.4,8.5 216.2,7.8 215.8,8.5 
			214.7,10.8 214.6,10.8 214.7,11 		"/>
		
			<linearGradient id="SVGID_14_" gradientUnits="userSpaceOnUse" x1="235.05" y1="526.3961" x2="235.05" y2="89.4054" gradientTransform="matrix(1 0 0 -1 0 534)">
			<stop  offset="1.502404e-03" style="stop-color:#008694"/>
			<stop  offset="1" style="stop-color:#662D90"/>
		</linearGradient>
		<polygon class="st14" points="239.1,15.8 239.4,15.8 239.4,15.5 239.4,8.6 239.4,8.5 239.4,8.4 235.9,2.7 235.4,1.8 235.4,2.8 
			235.4,3.9 232,8.4 231.9,8.5 231.9,8.5 230.8,15.4 230.7,15.8 231.1,15.8 		"/>
		
			<linearGradient id="SVGID_15_" gradientUnits="userSpaceOnUse" x1="230.5" y1="526.3961" x2="230.5" y2="89.4054" gradientTransform="matrix(1 0 0 -1 0 534)">
			<stop  offset="1.502404e-03" style="stop-color:#008694"/>
			<stop  offset="1" style="stop-color:#662D90"/>
		</linearGradient>
		<polygon class="st15" points="222.7,24.8 222.7,27 222.7,27.2 222.9,27.2 229.8,30.7 229.9,30.7 230,30.7 234.5,29.6 240.2,30.7 
			240.5,30.8 240.5,30.5 241.7,27.1 241.8,26.8 241.5,26.7 235.8,24.4 235.6,24.4 235.5,24.4 233.3,25.5 226.7,23.3 226.7,21.2 
			226.7,21 226.5,21 220.8,19.8 219.7,18.8 219.2,18.2 219.2,18.9 219.2,22.4 219.2,22.5 219.4,22.6 		"/>
		
			<linearGradient id="SVGID_16_" gradientUnits="userSpaceOnUse" x1="199.35" y1="526.3961" x2="199.35" y2="89.4054" gradientTransform="matrix(1 0 0 -1 0 534)">
			<stop  offset="1.502404e-03" style="stop-color:#008694"/>
			<stop  offset="1" style="stop-color:#662D90"/>
		</linearGradient>
		<polygon class="st16" points="200,37.6 200.1,37.6 200.2,37.5 203.6,34.1 203.7,34 203.7,33.9 203.7,30.4 203.7,30.1 203.4,30.1 
			196.5,31.3 196.3,31.3 196.2,31.5 195.1,38.4 195,38.9 195.4,38.8 		"/>
		
			<linearGradient id="SVGID_17_" gradientUnits="userSpaceOnUse" x1="213.85" y1="526.3961" x2="213.85" y2="89.4054" gradientTransform="matrix(1 0 0 -1 0 534)">
			<stop  offset="1.502404e-03" style="stop-color:#008694"/>
			<stop  offset="1" style="stop-color:#662D90"/>
		</linearGradient>
		<polygon class="st17" points="212.7,29 212.5,28.9 212.4,29.1 208.9,33.7 208.8,33.9 209,34.1 210.1,35.2 210.3,35.4 210.5,35.3 
			213.9,33 217.2,33 217.4,33 217.5,32.9 218.6,30.6 218.9,30.1 218.4,30.1 217.3,30.1 		"/>
		
			<linearGradient id="SVGID_18_" gradientUnits="userSpaceOnUse" x1="172.8" y1="526.3961" x2="172.8" y2="89.4054" gradientTransform="matrix(1 0 0 -1 0 534)">
			<stop  offset="1.502404e-03" style="stop-color:#008694"/>
			<stop  offset="1" style="stop-color:#662D90"/>
		</linearGradient>
		<polygon class="st18" points="158.5,40.5 158,40.5 158.3,41 161.7,45.6 161.8,45.7 162,45.7 174.6,45.7 179.2,46.8 179.3,46.8 
			179.3,46.8 187.4,44.5 187.6,44.5 187.6,44.2 186.4,38.4 186.4,33.9 186.4,33.6 186.1,33.6 182.8,33.6 177.1,30.2 176.9,30.1 
			176.7,30.2 174.8,32.2 173.8,29.2 173.7,28.9 173.4,29 165.1,31.3 164.8,31.4 164.8,31.6 165.1,34.7 162,34.7 161.7,34.7 
			161.7,35 161.7,37.3 161.7,37.6 162,37.6 167.5,37.6 168.5,40.5 		"/>
		
			<linearGradient id="SVGID_19_" gradientUnits="userSpaceOnUse" x1="205.2" y1="526.3961" x2="205.2" y2="89.4054" gradientTransform="matrix(1 0 0 -1 0 534)">
			<stop  offset="1.502404e-03" style="stop-color:#008694"/>
			<stop  offset="1" style="stop-color:#662D90"/>
		</linearGradient>
		<polygon class="st19" points="208.3,63.6 208.1,63.5 204.7,62.4 204.6,62.3 204.6,62.3 203.4,62.3 203.3,62.3 203.2,62.5 
			199.7,68.2 199.6,68.4 199.7,68.5 200.8,70.8 200.9,70.9 201.1,70.9 203.4,70.9 203.5,70.9 203.6,70.9 205.7,69.8 210.3,70.9 
			210.8,71.1 210.6,70.6 208.3,63.7 		"/>
		
			<linearGradient id="SVGID_20_" gradientUnits="userSpaceOnUse" x1="236.3" y1="526.3961" x2="236.3" y2="89.4054" gradientTransform="matrix(1 0 0 -1 0 534)">
			<stop  offset="1.502404e-03" style="stop-color:#008694"/>
			<stop  offset="1" style="stop-color:#662D90"/>
		</linearGradient>
		<polygon class="st20" points="249.4,67.6 249.6,67.4 256.6,61.7 256.8,61.5 256.6,61.3 248.6,52.2 250.9,46.6 251,46.5 
			250.8,46.3 243.9,38.3 243.9,38.2 243.8,38.2 238.1,35.9 237.9,35.9 237.8,36 236.6,37.1 229,41.4 229,40.9 235.8,34.1 
			236.1,33.9 235.8,33.7 234.7,32.5 234.6,32.4 234.4,32.5 228.6,34.8 228.5,34.8 228.5,34.9 224.1,42.5 223.3,40.8 227.8,32.9 
			228.1,32.4 227.6,32.4 220.7,32.4 220.6,32.4 220.5,32.5 217,36 217,36 217,36.1 215.8,39.5 215.8,39.6 215.8,39.7 218.1,45.5 
			218.2,45.6 218.3,45.6 234.1,51.3 229.7,59 229.6,59.1 229.6,59.1 228.5,63.5 221.8,63.5 221.7,63.5 221.6,63.6 220.5,64.7 
			220.4,64.8 220.4,64.8 219.3,68.3 219.1,68.8 219.6,68.7 225.2,67.5 230.7,70.8 229.6,74 229.5,74.2 229.7,74.4 236.6,79 
			237,79.2 237.1,78.8 238.2,72.3 241.2,74.4 241.3,74.4 241.4,74.4 242.6,74.4 242.7,74.4 242.8,74.3 246.3,67.3 246.4,67.2 
			246.2,67 244,64.8 245,61 249.2,67.4 		"/>
		
			<linearGradient id="SVGID_21_" gradientUnits="userSpaceOnUse" x1="262.15" y1="526.3961" x2="262.15" y2="89.4054" gradientTransform="matrix(1 0 0 -1 0 534)">
			<stop  offset="1.502404e-03" style="stop-color:#008694"/>
			<stop  offset="1" style="stop-color:#662D90"/>
		</linearGradient>
		<polygon class="st21" points="243.3,17.9 242.4,19.7 238,18.6 237.9,18.6 237.8,18.7 233.2,21 232.7,21.2 233.2,21.5 235.5,22.6 
			235.6,22.7 235.6,22.7 241.3,22.7 244.7,24.9 244.9,25 245.1,24.9 251.9,18.1 254.1,18.1 254.1,18.1 254.2,18 257.6,16.9 
			257.8,16.8 257.8,16.6 257.8,14.6 263.3,13.5 267.9,13.5 268,13.5 268.1,13.4 269.2,12.3 287.5,5.4 287.6,5.4 287.7,5.3 
			291.1,1.9 291.6,1.4 290.9,1.4 248.3,1.4 248,1.4 248,1.7 248,5.1 248,5.3 248.2,5.4 252.8,7.7 252.9,7.7 252.9,7.7 261.4,7.7 
			259.7,9.5 250.7,10.6 247.3,8.3 247.1,8.2 246.9,8.4 241.2,16.5 241,16.7 241.3,16.9 		"/>
		
			<linearGradient id="SVGID_22_" gradientUnits="userSpaceOnUse" x1="74.5" y1="526.3961" x2="74.5" y2="89.4054" gradientTransform="matrix(1 0 0 -1 0 534)">
			<stop  offset="1.502404e-03" style="stop-color:#008694"/>
			<stop  offset="1" style="stop-color:#662D90"/>
		</linearGradient>
		<polygon class="st22" points="73.2,106.8 73.1,107.4 71.9,112 71.9,112.1 71.9,112.2 75.4,118 75.5,118.1 75.6,118.1 76.8,118.1 
			77.1,118.1 77.1,117.8 77.1,112.1 77.1,112 77,111.9 73.6,107.3 		"/>
		
			<linearGradient id="SVGID_23_" gradientUnits="userSpaceOnUse" x1="72.05" y1="526.3961" x2="72.05" y2="89.4054" gradientTransform="matrix(1 0 0 -1 0 534)">
			<stop  offset="1.502404e-03" style="stop-color:#008694"/>
			<stop  offset="1" style="stop-color:#662D90"/>
		</linearGradient>
		<polygon class="st23" points="70.8,94.6 70.5,94.9 70.9,95.1 73.2,96.2 73.6,96.4 73.6,96 73.6,92.5 73.6,91.8 73.1,92.3 		"/>
		
			<linearGradient id="SVGID_24_" gradientUnits="userSpaceOnUse" x1="71.1" y1="526.3961" x2="71.1" y2="89.4054" gradientTransform="matrix(1 0 0 -1 0 534)">
			<stop  offset="1.502404e-03" style="stop-color:#008694"/>
			<stop  offset="1" style="stop-color:#662D90"/>
		</linearGradient>
		<polygon class="st24" points="70.1,101.9 72.4,99.6 72.6,99.4 72.4,99.2 71.2,98.1 70.7,97.6 70.7,98.3 70.7,99.4 69.6,101.6 		
			"/>
		
			<linearGradient id="SVGID_25_" gradientUnits="userSpaceOnUse" x1="171.95" y1="526.4" x2="171.95" y2="89.4093" gradientTransform="matrix(1 0 0 -1 0 534)">
			<stop  offset="1.502404e-03" style="stop-color:#008694"/>
			<stop  offset="1" style="stop-color:#662D90"/>
		</linearGradient>
		<polygon class="st25" points="171.2,248 171.5,248.1 171.5,248 180.4,248 180.9,248 180.6,247.6 179.5,245.3 179.5,245.2 
			179.4,245.2 174.8,242.9 174.7,242.9 174.7,242.9 171.5,241.8 171.5,241.7 171.2,241.7 170.9,241.6 170.9,241.7 168.9,241.7 
			168.8,241.7 168.8,241.7 166.5,242.9 164.1,244 163.6,244.3 164.1,244.6 165.8,245.4 163,246.3 163.1,246.9 170.9,248 170.9,248 
					"/>
		
			<linearGradient id="SVGID_26_" gradientUnits="userSpaceOnUse" x1="343.7" y1="526.3961" x2="343.7" y2="89.4054" gradientTransform="matrix(1 0 0 -1 0 534)">
			<stop  offset="1.502404e-03" style="stop-color:#008694"/>
			<stop  offset="1" style="stop-color:#662D90"/>
		</linearGradient>
		<polygon class="st26" points="334.2,75.4 334.5,75.5 342.6,79 342.7,79 342.8,79 354.4,73.2 354.5,73.1 354.5,73 354.5,70.7 
			354.5,70.6 354.4,70.5 351,65.9 350.9,65.8 350.7,65.8 340.5,68 338.3,65.9 338.2,65.8 338,65.8 333.4,66.9 332.9,67.1 
			333.3,67.4 336.6,70.7 334.4,75.1 		"/>
		
			<linearGradient id="SVGID_27_" gradientUnits="userSpaceOnUse" x1="156.85" y1="526.3961" x2="156.85" y2="89.4054" gradientTransform="matrix(1 0 0 -1 0 534)">
			<stop  offset="1.502404e-03" style="stop-color:#008694"/>
			<stop  offset="1" style="stop-color:#662D90"/>
		</linearGradient>
		<polygon class="st27" points="156,222.7 156.2,222.7 158.5,222.7 158.9,222.7 158.8,222.4 157.7,218.9 157.6,218.7 157.4,218.7 
			155.1,218.7 154.8,218.7 154.8,219 154.8,220.2 154.8,220.2 154.8,220.3 156,222.6 		"/>
		
			<linearGradient id="SVGID_28_" gradientUnits="userSpaceOnUse" x1="153.8" y1="526.3961" x2="153.8" y2="89.4054" gradientTransform="matrix(1 0 0 -1 0 534)">
			<stop  offset="1.502404e-03" style="stop-color:#008694"/>
			<stop  offset="1" style="stop-color:#662D90"/>
		</linearGradient>
		<polygon class="st28" points="151,247.2 150.8,247.3 149.7,248.4 149.4,248.7 149.8,248.9 154.4,251.2 154.5,251.2 154.6,251.2 
			158,250 158.2,250 158.2,249.8 158.2,248.6 158.2,248.4 158,248.3 151.1,247.2 		"/>
		
			<linearGradient id="SVGID_29_" gradientUnits="userSpaceOnUse" x1="206.35" y1="526.3961" x2="206.35" y2="89.4054" gradientTransform="matrix(1 0 0 -1 0 534)">
			<stop  offset="1.502404e-03" style="stop-color:#008694"/>
			<stop  offset="1" style="stop-color:#662D90"/>
		</linearGradient>
		<polygon class="st29" points="208,286 208.3,286 208.3,285.7 208.3,282.4 210.5,280.1 211,279.6 210.3,279.6 203.4,279.6 
			203.1,279.6 203.1,279.9 203.1,283.3 202.1,284.3 201.7,284.7 202.2,284.8 		"/>
		
			<linearGradient id="SVGID_30_" gradientUnits="userSpaceOnUse" x1="242" y1="526.3961" x2="242" y2="89.4054" gradientTransform="matrix(1 0 0 -1 0 534)">
			<stop  offset="1.502404e-03" style="stop-color:#008694"/>
			<stop  offset="1" style="stop-color:#662D90"/>
		</linearGradient>
		<polygon class="st30" points="241.6,521.2 241.1,520.7 241.1,521.4 241.1,526 241.1,526.1 241.2,526.2 242.3,527.4 242.9,527.9 
			242.9,527.1 242.9,522.6 242.9,522.4 242.8,522.4 		"/>
		
			<linearGradient id="SVGID_31_" gradientUnits="userSpaceOnUse" x1="238.45" y1="526.3961" x2="238.45" y2="89.4054" gradientTransform="matrix(1 0 0 -1 0 534)">
			<stop  offset="1.502404e-03" style="stop-color:#008694"/>
			<stop  offset="1" style="stop-color:#662D90"/>
		</linearGradient>
		<polygon class="st31" points="237.7,524.8 237.5,525.1 238,525.1 239.1,525.1 239.4,525.1 239.4,524.9 239.4,521.4 238.8,521.3 		
			"/>
		
			<linearGradient id="SVGID_32_" gradientUnits="userSpaceOnUse" x1="363.35" y1="526.3961" x2="363.35" y2="89.4054" gradientTransform="matrix(1 0 0 -1 0 534)">
			<stop  offset="1.502404e-03" style="stop-color:#008694"/>
			<stop  offset="1" style="stop-color:#662D90"/>
		</linearGradient>
		<polygon class="st32" points="358.6,119.9 358.6,120 358.6,120 357.4,123.5 357.2,124 357.8,123.9 362.3,122.7 362.4,122.7 
			362.4,122.7 367,120.4 367.1,120.3 367.2,120.2 368.3,114.6 369.2,114.6 369.5,114.6 369.5,114.4 369.5,112.1 369.5,112 
			369.4,111.9 367.1,109.6 367,109.5 366.9,109.5 364.8,109.5 364.8,109.3 364.5,109.5 364.2,109.5 364.3,109.6 362.2,110.7 
			362.1,110.7 362.1,110.7 361,111.8 360,111.8 359.9,111.8 359.8,111.9 358.6,113 358.6,113.1 358.6,113.2 358.6,115.5 
			358.6,115.6 358.6,115.7 359.7,116.8 359.7,118.8 		"/>
	</g>
	<g>
		
			<linearGradient id="SVGID_33_" gradientUnits="userSpaceOnUse" x1="473" y1="526.3961" x2="473" y2="89.4054" gradientTransform="matrix(1 0 0 -1 0 534)">
			<stop  offset="1.502404e-03" style="stop-color:#008694"/>
			<stop  offset="1" style="stop-color:#662D90"/>
		</linearGradient>
		<polygon class="st33" points="472.8,186 473,185.9 476.4,183.6 476.2,183.1 470.5,184.2 469.6,184.4 470.4,184.8 472.7,185.9 		
			"/>
		
			<linearGradient id="SVGID_34_" gradientUnits="userSpaceOnUse" x1="518.3" y1="526.3961" x2="518.3" y2="89.4054" gradientTransform="matrix(1 0 0 -1 0 534)">
			<stop  offset="1.502404e-03" style="stop-color:#008694"/>
			<stop  offset="1" style="stop-color:#662D90"/>
		</linearGradient>
		<polygon class="st34" points="530.3,381.4 530.7,381.5 530.6,381.1 529.5,368.5 529.5,368.3 529.4,368.3 527.1,366 527,365.9 
			526.9,365.9 525.7,365.9 525.6,365.9 525.5,366 518.6,378.6 517.5,379.7 511.8,382 511.7,382.1 511.7,382.2 509.4,390.2 
			509.3,390.3 509.4,390.4 510.5,396.1 510.5,397.1 506,402.8 505.9,402.9 505.9,403 508.2,414.5 508.2,414.6 508.3,414.7 
			511.8,417 511.9,417.1 512,417 518.9,414.7 519.1,414.7 519.1,414.6 527.2,388.1 527.2,388.1 527.2,388 527.2,380.4 		"/>
		
			<linearGradient id="SVGID_35_" gradientUnits="userSpaceOnUse" x1="620.15" y1="526.3961" x2="620.15" y2="89.4054" gradientTransform="matrix(1 0 0 -1 0 534)">
			<stop  offset="1.502404e-03" style="stop-color:#008694"/>
			<stop  offset="1" style="stop-color:#662D90"/>
		</linearGradient>
		<polygon class="st35" points="619.2,282.1 618.9,281.5 618.7,282.2 617.6,286.8 616.4,290.2 616.4,290.3 616.4,290.3 617.6,297.2 
			617.6,297.6 618,297.4 623.8,294 623.9,293.9 623.9,293.7 623.9,290.3 623.9,290.2 623.8,290.2 		"/>
		
			<linearGradient id="SVGID_36_" gradientUnits="userSpaceOnUse" x1="548.8" y1="526.3961" x2="548.8" y2="89.4054" gradientTransform="matrix(1 0 0 -1 0 534)">
			<stop  offset="1.502404e-03" style="stop-color:#008694"/>
			<stop  offset="1" style="stop-color:#662D90"/>
		</linearGradient>
		<path class="st36" d="M769.8,41l0.6,0.1l-0.3-0.5l-4.6-8l-0.1-0.2h-0.2l-10.3,1.2l-20.7-6.9h-0.1H734l-13.8,1.2h-0.3v2.3l-4.2,1.1
			l-1-2.1l-0.1-0.2l-0.2,0.1l-13.7,3.4l-8-5.7l-0.1-0.1h-0.1L682.2,29l-11.4-3.4h-14l-11.5,5.8l-0.2,0.1v2.1L619,28.9l-13.8-1.2
			h-0.3V31l-6.5-3.2l-0.2-0.1l-0.1,0.1l-7.3,6.2l0.8-2.5l0.1-0.3l-0.3-0.1l-2.8-0.9l6.3-3.2l0.2-0.1v-6.1l-0.2-0.1l-7-3.4l-0.1,0.1
			l-0.1,0.1l-5.6,2.2l-3.3-3.3l-0.1-0.1H575l-0.1,0.1l-2.3,3.4l-0.1,0.1v1.3l0.1,0.1l0.9,1.9H559l-0.1,0.1l-13.8,9.2l-0.2,0.1
			l0.1,0.2l1.2,2.3l1.1,3.4l0.1,0.2l0.2,0.1l5.6,1.1l3,5l-2.7-0.9l-0.2-0.1l-0.1,0.2l-0.9,1.8l-2.1-4.1v-0.1h-0.1l-8.1-2.3l-0.2-0.1
			l-0.1,0.1l-1,1l-5.6-2.3l-0.4-0.2v6.3l0.1,0.1l5.8,5.7l0.1,0.1h4.7l17,9.1V61l-5.3-3.2l-0.4-0.3v4.3l-5.3-6.3l0,0h-0.1l-5.7-2.3
			l-0.2-0.1l-0.1,0.1l-2.3,2.3l-0.1,0.1v3.3l-5,1l2.1-4.1v-0.1v-2.5l-0.2-0.1l-2.2-1.1l-3.4-5.7l0,0l0,0l-1.1-1.1l-3.4-6.9l-0.1-0.1
			h-6.2l-0.1,0.2l-2.3,5.7l-0.1,0.2l0.2,0.1l6.6,7.7l-2.9,1l-4.5-3.4v-0.1h-6.2v3.6l-1,1H511l-1.2-1.2l-0.2,0.1l-9.1,3.4l-2.2-2.2
			l-0.2-0.2l-0.2,0.2l-11.3,7.9l-0.9-0.9V59l-0.1-0.1l-4.6-3.4l-0.4-0.4v9.5h-3.3l-0.1,0.1l-3.5,3.5l-0.1,0.1v2.1l-5.4-1.1l-0.2-0.1
			l-0.1,0.1l-1.1,1.1l-0.3,0.2l0.3,0.2L470,73l-1.9,1.9l-5.5-3.3l-4.3-8.5l10.9,3.3h0.1l0.1-0.1l2.3-1.1h0.1l0.1-0.1l2.3-3.4
			l0.1-0.2l-0.2-0.2l-9.2-6.9l-0.1-0.1h-0.1l-6.9-1.2h-0.1l-0.1,0.1l-2.2,1.1l-5.6-2.2l-2.3-2.3l-0.1-0.1h-0.1l-5.7-1.1H437
			l-0.1,0.1l-4.6,3.4l-5.7,1.2h-0.1l-0.1,0.1l-1.2,1.1l-3.4,2.3l0,0l0,0l-1.2,1.2l-3.4,2.3h-0.1l-0.1,0.1l-1.1,2.3l-8,11.5L408,74
			v3.3h-3.3l-0.1,0.1l-8.1,6.9l-0.1,0.1v0.2l2.3,11.5v2.5l0.2,0.1l4.6,1.2l0.2,0.1l0.1-0.1l5.5-5.4l5.6,12.3l0.1,0.2l0.2-0.1
			l4.6-1.1l0.1-0.1l0.1-0.1l2.3-5.7l2.3-2.3l0,0l0,0l4.6-5.7l0.2-0.2l-0.3-0.2l-4.5-3.3l2.2-6.6l5.7-4.5l0.1-0.1v-0.1l3.4-9h1.9l1,2
			l-2.2,4.5l0,0l0,0l-1.1,3.4l-2.2,2.3l-0.1,0.1l0.1,0.2l1.2,8v0.2l0.1,0.1l4.6,2.3l0.1,0.1l0.1-0.1l9.2-3.4h2.1l0.9,1.9l-4.4,3.3
			l-5.7,1.1l-0.2,0.1v2.7l0.2,0.1l3.2,1l-1,3h-3.5v0.3l-0.1,2.6l-0.4,2.2l-1.7,3.3l-0.1,0.2l-3.5,1l-0.5-1.3l-0.1-0.2h-0.3l-6.9,1.2
			l0,0l-6.9,2.3l-0.2,0.1v1l-5.4-1.1h-0.1H414l-3.3,1.1l-3.2-2.1v-3.3l1.1-3.4v-0.1v-5.3l-0.5,0.5l-3.4,3.4h-0.1v0.1l-2.3,4.6
			l-0.1,0.1l0.1,0.1l1.1,2.2v2.3l0.1,0.1l0.9,0.9l-0.9,0.9l-3.4,1.1l-0.2,0.1l-3.3,1.1h-0.1l-0.1,0.1l-3.3,3.4h-1.2l-0.1,0.1
			l-0.9,0.9l-0.1-0.1l-0.2,0.3l-0.2,0.2h0.1l-2.1,3.2l-2.2,1.1h-0.1v0.1l-2.3,3.4l-3.3,2.2l-2.1-1.1l-0.1-0.1h-1.4l-0.1,0.2
			l-1.1,3.3h-2l-1.1-1.1l-0.1-0.1H371l-0.1,0.2l-1.2,3.5l0,0v2.6h3.6l4.4,5.5l-1.1,3.3v0.1v6.5c-1.4-0.3-4.9-1-4.9-1l-6.5-1.1
			l-3.1-0.7l-0.2-0.1l-0.1,0.2l-1.1,1.9l-2.1,0.5h-0.2v0.2l-0.1,4.5v4.7l-2.2,7.9l0,0v1.3l0.1,0.1l1,1.1l1.1,5.5l0.1,0.3l0.3-0.1
			l4.2-1.1l2.1,3.2v0.1h0.1l2.2,1.1l0.2,0.1l0.2-0.2l2.1-3.3l4.9-0.8h0.1l0.1-0.1l3.6-3.2l2.7-2.8l0.1-0.1v-0.1l-0.9-5.2l1.4-3
			l3.3-1.5h1.1l0.1-0.1l2.2-1.1l0.1-0.1l0.1-0.1l1-4.2h0.5l0.1-0.2l1.1-2.1l6.7,1.1h0.1l0.1-0.1l3.4-2.3h2.3h0.1l2.2-1.1l2.1,1.1
			l5.7,8l0,0v0.1l6.9,4.6l1.1,1.1l1.2,6.8v0.3h1.6l0.1-0.2l2.3-3.4l0.1-0.1l-0.1-0.1l-1.1-3.2l2-1h2.5v-1.6l-0.1-0.1l-4.6-3.5
			l-0.1-0.1h-1.1l-1.1-1.1l0,0l0,0l-5.7-3.4l-2.2-6.7l1-3l0.3,0.2l0.1,0.1h0.2h0.1l1.4,1.8l0.2,0.3l0.3-0.3l0.8-0.8l1.1,2.4v0.1h0.1
			l2.5,2.5l2,1.7l0,0l0,0l4.4,2.7l0.1,0.1l0.9,0.6l-0.1-0.2l0.3,0.2l0,0l2.3,1.2v4.5l0,0l1.2,4.6v0.2h1.2l2.2,4.4l0.1,0.2h3.5
			l0.8,0.8l-0.8,0.8h-1.4l0.1,0.4l1.2,3.5l0.1,0.2h2.6l0.1-0.1l3.5-2.3l0.2-0.1v-1.4l-0.1-0.1l-3.4-4.5v-3.3l3.3-3.3h5.9v-0.5
			l1.7-1.2l3.2-1.3l0.3-0.1l-0.2-0.3l-2.7-3.9v-3.1h1.1l0.1-0.2l1.1-3.3l0.9-0.2l0.1,0.3l0.2-0.4h0.2l-0.1-0.2l4.4-7.2l5,1.1
			l-0.4,1.7l-0.1,0.2l0.1,0.1l2.7,3l0.2,0.2l0.2-0.1l4.6-2.9l0.3-0.2l-0.2-0.2l-2.9-4.1l8.2-1.3l-1.6,7v0.2l0.2,0.1l7.3,4.9l4.8,3.5
			l-0.1,3.3l-12.3,1.1l-3.4-2.2l-0.1-0.1l-0.1,0.1l-13.8,3.4l-3.1-0.2h-0.1l-0.1,0.1l-2.6,2.5l-4.6,4.6l-0.2,0.2l0.1,0.2l3.4,5.7
			l1.1,4.5l0.1,0.2h2.4l2.2,2.2l0.1,0.1h0.1l4.6-1.1h0.1l0.1-0.1l1-1l5.6,2.2h0.1h0.1l6.7-1.1l1,2v6.8l-1.1,2.1l0,0l-0.1,0.2
			l-0.2,0.4l0,0l-3.2,8.6h-1h-0.1l-2.1,1l-1-2l-0.1-0.1h-0.1L466,198l-0.2-0.1l-0.1,0.1l-3.3,3.3l-10-3.3l0,0h-0.3l-0.3-0.1v0.1
			h-5.3l-1.2-2.3h-6h-0.1l-2.3,1.2l-0.1,0.1l-0.1,0.1l-1.1,3.5v0.1l0.1,0.1l1,2.1l-1.9,0.9l-11.4-6.8l0,0h-0.1l-9.2-2.3l-5.6-2.2v-2
			l2.1-1l0.2-0.1V181l-0.2-0.1l-3.4-2.3l-0.1-0.1h-0.2l-3.4,1.1l-17.2,1.2h-0.1l-11.4,4.6h-10.4l-0.1,0.1L354,195.8l-0.1,0.1v0.1
			l-2.3,9.1l-8,6.8l-2.2,1.1h-0.1l-0.1,0.1l-0.8,0.4h0.6l-7.9,15.8l0,0l-3.4,9h-0.1v0.2l-0.1,0.3h0.1v2.1v0.1l1.1,2.2l1.2,10.2
			l-2.3,5.7l-2.3,5.8l-0.1,0.2l0.1,0.1l2.2,2.2v5.3h-0.2l0.2,0.4v0.2h0.1l1.1,2.2l2.3,3.4l0,0l4.5,7.9l-0.1,0.1l0.2,0.2l0.2,0.3
			l0.1-0.1l3.2,3.2l2.3,3.5l0,0l1.1,1.1l0,0l0.2,0.1l0.4,0.4v-0.1l7.7,5.5l2.3,2.3l0.2,0.1l0.2-0.1l2.3-1.1l5.7-1.2h7.8l0,0h0.3h0.3
			l0,0l8.6-1.1v0.2l0.4-0.3h0.2v-0.1l3.2-2.2h3.1v0.1l0.3-0.1h0.3v-0.1l4.1-1l3.4,7.8l0.1,0.2h0.2l6.7-1.1l4.5,5.6l1.1,2.2l-1.1,4.5
			l0,0l-2.3,8.1l-0.1,0.1l0.1,0.1l6.9,11.5l0,0l1.9,3.3l0.8,2.4h-0.1l0.1,0.2l0.1,0.4l0.1-0.1l0.3,0.5l0.1,0.2l1.3,2.3l1.1,2.2v5.7
			l2.3,14.8l-3.4,4.5l-0.1,0.1v6.8l-2.2,1.1l-0.2,0.1v8.3l0.1,0.1l4.6,6.9l7.9,31.7l0,0l0,0l1.3,2.7l2.3,6.9c0,0,2,8.1,2.3,9.1
			l-1.1,2.2l-0.1,0.1v0.1l2.3,8.1l0.1,0.2h3.8l2.3-2.3l16-3.4l0,0l2.3-1.2l0,0l0,0l4.6-3.5l0,0l0,0l1.2-1.2l0,0l0,0l5.7-9.2l3.4-4.6
			l0.1-0.1v-0.1l1.1-8l1.1-3.4l2.2-2.1h3.5l0.1-0.2l1.2-2.3l0,0l2.3-6.9v-0.1v-0.1l-2.3-9.2v-2.1l1-1h2.4l0.1-0.2l1.1-2.3l1.1-1.1
			c0,0,8.3-7.2,9.1-8h2.4l0.1-0.2l1.1-2.3v-0.1l0,0l1.2-11.5v-0.1v-0.1l-2.3-4.5v-8.1l-0.1-0.1l-1.1-1.1l-1.1-9.1l0,0v-0.1l-1.1-3.3
			l2.2-5.6l1.1-1.1l0.1-0.1v-4.6l2.3-4.5l2.2-3.3h1.2l0.1-0.1l8-11.4l4.5-1.2h0.1l0.1-0.1l4.6-9.2l5.8-10.3l0,0v-0.1l3.5-17.2v-0.2
			l-0.1-0.1l-1.2-1.2l-0.1-0.1l-0.2,0.1l-17.1,5.7l-2-2l0.1-0.1l-0.3-0.1l-0.3-0.2l-0.1,0.1l-1.9-1V273v-0.1l-1-2.1l-0.1-0.2
			l-0.2-0.3l-1-2l-0.1-0.1l-0.1-0.1l-3.4-2.3l-4.6-4.6l-0.1-0.1h-2.2l-2.2-8.8l0,0l-0.1-0.2l-0.1-0.4h-0.1l-2.1-5.3v-2.3V244
			l-3.4-6.9l-1-3.1h0.1l-0.2-0.4l-0.1-0.2l0,0L474,210.6l-0.9-3.5l3.9,3.8l0.4,0.4l0.1-0.5l1.1-5.5h1.8v9.1l0.2,0.1l2.2,1.1
			l5.7,11.4l0.1,0.1l0.1,0.1l2.2,1.1l2.3,10.2v0.1l0.1,0.1l12.6,16v4.4l-0.1,0.1l0.1,0.1v0.8l0.2-0.3l2.1,4.2v2.3v0.1l1.2,2.3v0.1
			v0.1l1.2,1.2l0.1,0.1h1.3h0.1l12.6-4.6l0,0l0,0l10.4-6.9l0.2-0.1v-2.3l0.9-1h2l0.1,0.2l0.3-0.2h0.3l-0.1-0.2l6.7-4.5l0.1-0.1v-0.1
			l10.4-16.1l0.1-0.2l-0.2-0.2l-9.2-10.4l-1.2-1.1l-2.3-2.3l-0.1-0.1h-1.4l-0.1,0.1l-3.4,5.6h-7.6v-4.4l-0.1-0.1l-2.3-2.3l-0.3-0.3
			l-0.2,0.4l-1.7,5.2v-2.9l-0.1-0.1l-1.5-2.3l2,0.3l0.4,0.1v-0.4l-0.2-2.4l-0.1-0.2l-0.2-0.1l-2.4-0.4l-0.4-0.1l0.1,0.4l0.2,2
			l-0.2-0.3l-4.6-9.2l-1-4.2h4.1l4.5,6.8v0.1h0.1l3.5,2.3l0.1,0.1h2.3l5.7,4.5l0.2,0.2l0.2-0.2l4.4-3.3l0.9,0.9l2.3,4.5l0.1,0.2h5.9
			l6.6,1.1v0.1h0.3l0.3,0.1v-0.1h12.3l5.5,5.5l-0.2,0.3h0.5l0.2,0.2l0.1-0.2h3.2l0.8,0.9l-2.1,2.1l-0.2,0.2l0.2,0.2l5.7,5.7l0.1,0.1
			h2.5l0.1-0.1l1.2-1.1v-0.1v-0.1l1.1-3.3h1.8l1.1,12.4v0.1l0,0l6.9,18.4c0,0,2.1,6.4,2.3,6.9v3.5l0.1,0.1l3.4,2.2l2.3,9.1v0.1
			l0.1,0.1l1.2,1.1l0.1,0.1h2.6l0.1-0.1l3.4-5.7l1.1-1.1l0.1-0.1V279l1.2-11.5v-1.2v-0.1l-1.1-9l2.1-1.1h0.1l0,0l1.1-1.2l0.1-0.1
			l2.3-3.5l1.1-1.1l0,0l0,0l4.6-9.2l2.1-2.1l0.9,0.9l0.3,0.3l0.2-0.4l2.3-4.6l1.2-1.2v-2.1h6.9v-3.4h1.9l2.1,1v4.5v0.1l1.1,2.1
			l-0.1,0.1l0.1,0.2l0.1,0.4l0.2-0.2l8.9,10v7l0.2,0.1l3.5,1.2h0.2l0.1-0.2l3.3-4.3l0.8,0.9l2.3,4.5l1.1,4.6l0,0l3.5,8l1.1,11.4
			l-1.1,3.4l-0.1,0.1l0.1,0.1l1.2,2.3l0,0v0.1l3.4,3.4v2.3l0.1,0.1l0.9,0.7l0.1,4.5H676l0.4,0.5l5.7,6.9l3.4,5.7l0.1,0.1h0.1
			l3.4,1.1l2.3,1.2l0.4,0.2v-2.8v-0.1l-1.1-2.2v-2.3l-1.2-6.9l0,0v-0.1l-0.9-1.8l0.3,0.1l-0.6-0.6v-0.1h-0.1l-4.5-4.5l-0.1-0.1h-1.1
			l-3.3-4.4v-1.1l-0.1-0.1l-2.3-3.4v-15.9l1-1h0.8l1.1,3.3l0.1,0.2h3.5l8,7.9l1.1,2.2l-1.1,4.5l-0.1,0.4h1.6l0.1-0.1l11.5-10.4
			l0.1-0.1v-0.2l-1.1-13.8V259l-0.1-0.1l-12.6-16l1.1-5.6l3.3-5.6h3.1l1.1,2.1l0.1,0.2h2.8v-3.5l11.3-5.6h4.7l0.1-0.1l1.2-1.2l0,0
			l0,0l6.9-12.6v-0.1v0.1l1.2-11.5v-0.1l-0.1-0.1l-9.2-16.1v-0.1l-5.7-5.7l1.1-11.1h2.4L716,166l-1.2-3.5l-0.1-0.2h-4.9l-0.1,0.1
			l-2.1,2.1l-6.5-4.3l5.5-8.7l1.9,0.9v3.5l0.2,0.1l3.5,1.1l0.1,0.1l0.1-0.1l3.5-2.3l0.1-0.1v-0.1l0.6,1.2l0.1,0.2h3.4v4.4l0.1,0.1
			l1.2,1.2l0.2,0.2l1.2-1.2l3.7,2.7l0.6,5.1v0.1l0.1,0.1l2.2,2.2l1.1,3.4l0.1,0.1l0.1,0.1l1.1,1.2l0.1,0.1h2.5l0.1-0.1l3.5-3.5
			l0.1-0.1v-3.7l-0.1-0.1l-5.6-8.5l0,0l-0.2-0.2l-0.2-0.2l0,0l-1-1.4l0,0l0,0l-1.1-1.1l-0.1-0.1h-2.2l-1.1-4.3l1.1-2.2l0.1-0.1v-0.1
			l-1.1-4.5l1.1-3.4l0.1-0.1l-0.1-0.1l-1-1.6l0.8-0.3l0.3-0.1l3.1-1l4.5,1.1l0.3,0.1l0.1-0.3l2.3-11.5v-0.1l-1.1-12.7v-0.1v-0.1
			l-10.4-17.2l-0.1-0.1l-0.1-0.1l-8.1-3.5l-0.2-0.1l-0.1,0.1l-3.3,2.2l-7.6-5.4l3.3-3.3v-0.1l-1.2-12.4L726,71l2.2,2.2l0.2,0.2
			l0.2-0.1l6.9-4.6l0.5-0.3l-0.6-0.2l-3.2-1.1l2.1-7.4l4.3,3.2l0.5,0.3v-6.5l6.3,9.5v9.2l0.1,0.1l8.1,11.5l0,0l0,0l12.7,11.5
			l0.5,0.4v-5.3v-0.1l-2.3-6.9v-3.5V83l-2.2-3.2l1-1l0.3-0.3l-0.3-0.2l-3.5-2.3l-0.1-0.1h-2.2v-2.2l-0.1-0.1l-4.5-3.4l-1.1-5.4
			l5.5-3.3h2.5v-0.2l1.1-9.2l2.3-3.4l0.1-0.1V46l-0.4,0.1l-3.3,1.1l-6.6-3.3l1.1-3.2l0.1-0.1l-0.1-0.1l-0.9-1.9h4.1L769.8,41z
			 M467.3,343.1V334l0,0l0.1-0.6l1.6,0.8v6.8l1.9,7.6L467.3,343.1z M475.2,325.1L475.2,325.1l0.1-0.1l0.5-0.5h-0.2l2-4.1l3.2-1.1
			l2.1,1l1,2l-0.9,0.9h-0.1l-0.1,0.2l-0.3,0.3l0.1,0.1l-2.1,4.2l-2.2,1.1h-3.2l-1-3.1L475.2,325.1z M523.4,176.2H519l-3.3-5.5
			l1.1-8.1v-0.1l-0.1-0.1l-2.9-4.1l0,0l-6.3-10.6l-1.1-4.4l2.6-2l7.3-3.6l6.6,3.5l-1.4,3.5l-3.1-0.9l-0.2-0.1l-0.1,0.1l-3.2,3.6
			l-0.2,0.2l0.1,0.2l6.3,8.3l1.2,1.7l0.1,0.2h0.2l2.3-0.4l2.7,3.3l-2.7,1.4l-0.2,0.1l0.1,0.2l3.1,12.5L523.4,176.2z M541.9,146.8
			L541.9,146.8l-0.1,0.2l-0.2,0.3h0.1l-0.5,3.3l-4.8-0.9l0.3-5.3l1.1-1.4l2.2-1.9l2.7,4.2L541.9,146.8z"/>
		
			<linearGradient id="SVGID_37_" gradientUnits="userSpaceOnUse" x1="731.8" y1="526.3961" x2="731.8" y2="89.4054" gradientTransform="matrix(1 0 0 -1 0 534)">
			<stop  offset="1.502404e-03" style="stop-color:#008694"/>
			<stop  offset="1" style="stop-color:#662D90"/>
		</linearGradient>
		<polygon class="st37" points="733.3,215.5 733.2,215.4 733.1,215.3 730.8,214.2 730.5,214 730.4,214.3 729.2,218.9 729.2,219 
			729.2,219.1 730.4,223.7 730.4,223.7 730.4,223.7 731.6,226 731.8,226.5 732.1,226 734.4,221.4 734.4,221.3 734.4,221.2 		"/>
	</g>
	<g>
		
			<linearGradient id="SVGID_38_" gradientUnits="userSpaceOnUse" x1="365.25" y1="526.3961" x2="365.25" y2="89.4054" gradientTransform="matrix(1 0 0 -1 0 534)">
			<stop  offset="1.502404e-03" style="stop-color:#008694"/>
			<stop  offset="1" style="stop-color:#662D90"/>
		</linearGradient>
		<polygon class="st38" points="361.7,181.4 361.8,181.5 361.9,181.5 363.2,181.5 363.2,183.6 363.2,183.6 363.2,183.7 363.9,185.7 
			361.9,185.7 361.7,185.7 361.7,185.8 361.7,188.8 361.7,188.9 361.8,189 363.1,189.6 360.3,191.7 360.3,191.7 360.2,191.7 
			359.5,193.2 359.4,193.5 359.7,193.5 360.4,193.5 360.5,193.5 360.5,193.5 363.5,192 364.9,192 365.1,192 365.1,191.8 
			365.1,191.3 368.7,191.3 368.7,191.3 368.8,191.2 369.5,190.4 369.6,190.4 369.6,190.4 371.1,186.7 371.1,186.6 371.1,186.5 
			365.9,178.3 366.6,175.4 366.6,175.4 366.6,175.4 366.6,174.6 366.6,174.5 366.5,174.5 364.4,173 364.4,171.6 364.4,171.5 
			364.2,171.5 362.7,171.5 362.6,171.5 362.5,171.6 360.2,176.8 360.2,176.9 360.2,176.9 		"/>
		
			<linearGradient id="SVGID_39_" gradientUnits="userSpaceOnUse" x1="383.6" y1="526.3961" x2="383.6" y2="89.4054" gradientTransform="matrix(1 0 0 -1 0 534)">
			<stop  offset="1.502404e-03" style="stop-color:#008694"/>
			<stop  offset="1" style="stop-color:#662D90"/>
		</linearGradient>
		<polygon class="st39" points="383.6,214.4 383.7,214.4 383.8,214.3 384.5,212.8 384.5,212.8 384.5,212.7 384.5,211.2 384.5,210.8 
			384.2,211.1 382.7,212.6 382.7,212.6 382.7,212.7 382.7,214.2 382.7,214.4 382.9,214.4 		"/>
	</g>
	<g>
		
			<linearGradient id="SVGID_40_" gradientUnits="userSpaceOnUse" x1="658.95" y1="526.3961" x2="658.95" y2="89.4054" gradientTransform="matrix(1 0 0 -1 0 534)">
			<stop  offset="1.502404e-03" style="stop-color:#008694"/>
			<stop  offset="1" style="stop-color:#662D90"/>
		</linearGradient>
		<polygon class="st40" points="657.1,333.1 657.1,333.1 657.1,333.1 659.4,333.8 659.5,333.9 659.6,333.8 662.6,330.1 662.6,330 
			662.6,329.9 662.6,328.4 662.6,328.3 662.4,328.3 660.9,328.3 660.7,328.3 660.7,328.4 660.7,329.1 658.7,331.2 658.1,330.6 
			658,330.4 657.9,330.5 655.6,332 655.3,332.2 655.6,332.3 		"/>
		
			<linearGradient id="SVGID_41_" gradientUnits="userSpaceOnUse" x1="662.85" y1="526.3961" x2="662.85" y2="89.4054" gradientTransform="matrix(1 0 0 -1 0 534)">
			<stop  offset="1.502404e-03" style="stop-color:#008694"/>
			<stop  offset="1" style="stop-color:#662D90"/>
		</linearGradient>
		<polygon class="st41" points="661.8,323.8 661.5,323.5 661.5,324 661.5,325.5 661.5,325.5 661.5,325.6 663,327.8 663.2,328.1 
			663.4,327.8 664.1,326.3 664.2,326.2 664.1,326.1 		"/>
	</g>
	<g>
		
			<linearGradient id="SVGID_42_" gradientUnits="userSpaceOnUse" x1="248.3" y1="526.3961" x2="248.3" y2="89.4054" gradientTransform="matrix(1 0 0 -1 0 534)">
			<stop  offset="1.502404e-03" style="stop-color:#008694"/>
			<stop  offset="1" style="stop-color:#662D90"/>
		</linearGradient>
		<polygon class="st42" points="248.5,444.1 248.4,444 248.3,444 248,444 247.7,443.3 247.4,443.4 247.4,444.2 247.4,444.4 
			247.6,444.4 247.8,444.4 248.9,446.5 249.2,446.4 249.2,445.7 249.2,445.6 249.2,445.6 		"/>
		
			<linearGradient id="SVGID_43_" gradientUnits="userSpaceOnUse" x1="244.65" y1="526.3961" x2="244.65" y2="89.4054" gradientTransform="matrix(1 0 0 -1 0 534)">
			<stop  offset="1.502404e-03" style="stop-color:#008694"/>
			<stop  offset="1" style="stop-color:#662D90"/>
		</linearGradient>
		<polygon class="st43" points="245.7,430.2 245.5,429.9 244,427.7 243.6,427.8 244.4,430 244.4,430.2 244.5,430.2 245.3,430.2 		
			"/>
		
			<linearGradient id="SVGID_44_" gradientUnits="userSpaceOnUse" x1="245.55" y1="526.3961" x2="245.55" y2="89.4054" gradientTransform="matrix(1 0 0 -1 0 534)">
			<stop  offset="1.502404e-03" style="stop-color:#008694"/>
			<stop  offset="1" style="stop-color:#662D90"/>
		</linearGradient>
		<polygon class="st44" points="246.4,435.8 246.2,435.2 245.5,432.9 245.3,432.3 245.1,432.9 244.8,434.2 244.7,434.3 244.8,434.4 
			245.9,435.4 		"/>
		
			<linearGradient id="SVGID_45_" gradientUnits="userSpaceOnUse" x1="258.25" y1="526.3961" x2="258.25" y2="89.4054" gradientTransform="matrix(1 0 0 -1 0 534)">
			<stop  offset="1.502404e-03" style="stop-color:#008694"/>
			<stop  offset="1" style="stop-color:#662D90"/>
		</linearGradient>
		<polygon class="st45" points="256.5,456.7 256.1,456.8 256.4,457 258.6,459.2 258.7,459.3 258.8,459.3 260.3,459.3 260.4,459.3 
			260.4,459.1 260.4,456.9 260.4,456.1 260.4,455.9 260.2,455.9 		"/>
		
			<linearGradient id="SVGID_46_" gradientUnits="userSpaceOnUse" x1="252.65" y1="526.3961" x2="252.65" y2="89.4054" gradientTransform="matrix(1 0 0 -1 0 534)">
			<stop  offset="1.502404e-03" style="stop-color:#008694"/>
			<stop  offset="1" style="stop-color:#662D90"/>
		</linearGradient>
		<polygon class="st46" points="252.9,451.5 252.9,451.5 252.8,451.5 251.3,451.5 250.8,451.5 251.2,451.8 253.4,454 253.5,454.1 
			253.7,454 254.4,453.3 254.5,453.1 254.4,453 		"/>
		
			<linearGradient id="SVGID_47_" gradientUnits="userSpaceOnUse" x1="262.25" y1="526.3961" x2="262.25" y2="89.4054" gradientTransform="matrix(1 0 0 -1 0 534)">
			<stop  offset="1.502404e-03" style="stop-color:#008694"/>
			<stop  offset="1" style="stop-color:#662D90"/>
		</linearGradient>
		<polygon class="st47" points="262.6,459 262.6,458.9 262.5,458.9 261,458.9 260.8,458.9 260.8,459.1 260.8,459.9 260.8,460 
			261,460 263.2,460 263.7,460 263.4,459.7 		"/>
		
			<linearGradient id="SVGID_48_" gradientUnits="userSpaceOnUse" x1="265.1" y1="526.3961" x2="265.1" y2="89.4054" gradientTransform="matrix(1 0 0 -1 0 534)">
			<stop  offset="1.502404e-03" style="stop-color:#008694"/>
			<stop  offset="1" style="stop-color:#662D90"/>
		</linearGradient>
		<polygon class="st48" points="263.4,453 263.4,452.9 263.3,452.9 263,452.8 263,453 260.9,453.7 260.8,453.8 260.8,453.9 
			260.8,454.6 260.8,454.7 260.8,454.7 261.5,456.1 260.9,456.7 260.8,456.8 260.8,456.9 261.6,458.4 261.6,458.6 261.8,458.6 
			263.8,458.6 263.8,458.6 264,458.6 264.2,458.6 264.2,458.5 269.3,457.8 269.4,457.8 269.4,457.6 269.4,456.9 269.4,456.8 
			269.3,456.7 		"/>
		
			<linearGradient id="SVGID_49_" gradientUnits="userSpaceOnUse" x1="399.6" y1="526.3961" x2="399.6" y2="89.4054" gradientTransform="matrix(1 0 0 -1 0 534)">
			<stop  offset="1.502404e-03" style="stop-color:#008694"/>
			<stop  offset="1" style="stop-color:#662D90"/>
		</linearGradient>
		<polygon class="st49" points="397.7,120.3 397.7,120.3 397.8,120.3 402.3,120.3 402.4,120.3 402.4,120.2 403.9,118 404.1,117.8 
			403.9,117.7 402.4,117 402.3,116.9 402.3,117 397.8,117.7 397.8,117.7 397.7,117.7 395.5,118.5 395.1,118.6 395.5,118.8 		"/>
		
			<linearGradient id="SVGID_50_" gradientUnits="userSpaceOnUse" x1="391.45" y1="526.3961" x2="391.45" y2="89.3961" gradientTransform="matrix(1 0 0 -1 0 534)">
			<stop  offset="1.502404e-03" style="stop-color:#008694"/>
			<stop  offset="1" style="stop-color:#662D90"/>
		</linearGradient>
		<polygon class="st50" points="387.2,121 387.2,121 387.2,121 388.7,122.5 388.8,122.6 388.9,122.5 390.3,121.8 390.9,122.4 
			390.9,123.8 390.2,126 390.1,126.2 390.3,126.3 393.2,127.8 393.4,127.9 393.5,127.7 394.2,124.7 396.5,121.7 396.6,121.6 
			396.4,121.5 392.7,118.5 392.6,118.4 392.5,118.5 391,119.2 386.6,119.2 386.3,119.2 386.4,119.5 		"/>
		
			<linearGradient id="SVGID_51_" gradientUnits="userSpaceOnUse" x1="399.85" y1="526.3961" x2="399.85" y2="89.4054" gradientTransform="matrix(1 0 0 -1 0 534)">
			<stop  offset="1.502404e-03" style="stop-color:#008694"/>
			<stop  offset="1" style="stop-color:#662D90"/>
		</linearGradient>
		<polygon class="st51" points="398.6,122.1 398.6,122.5 398.6,122.6 398.4,122.6 398.4,124.6 398.4,124.8 398.6,124.8 400.8,124.8 
			401.3,124.8 400.9,124.5 398.9,122.4 		"/>
	</g>
	<g>
		
			<linearGradient id="SVGID_52_" gradientUnits="userSpaceOnUse" x1="722.05" y1="526.3961" x2="722.05" y2="89.4054" gradientTransform="matrix(1 0 0 -1 0 534)">
			<stop  offset="1.502404e-03" style="stop-color:#008694"/>
			<stop  offset="1" style="stop-color:#662D90"/>
		</linearGradient>
		<polygon class="st52" points="717.8,305 717.8,305 712.1,310.7 708.8,310.7 708.5,310.7 708.5,311 708.5,312 706.3,314.2 
			706.2,314.3 706.2,314.5 707.4,319.1 710.8,329.5 710.9,329.6 711,329.6 714.4,330.8 715.4,333 715.5,333.1 715.7,333.1 
			723.6,333.1 724.7,334.2 724.8,334.3 724.9,334.3 727.2,334.3 727.3,334.3 727.4,334.2 732,329.6 732.1,329.5 732.1,329.4 
			732.1,326 733.2,323.8 733.2,323.7 733.3,323.7 735.5,314.5 735.6,314.5 735.5,314.4 733.3,303 736.6,299.7 736.7,299.6 
			736.7,299.6 737.8,297.3 737.9,297.1 737.8,297 730.9,291.2 730.6,291 730.4,291.3 726,296.8 725.8,296.7 725.8,297.1 
			725.6,297.3 725.8,297.4 725.8,299.3 723.7,300.3 723.7,300.3 723.6,300.4 722.9,300.7 723.1,300.8 		"/>
		
			<linearGradient id="SVGID_53_" gradientUnits="userSpaceOnUse" x1="760.55" y1="526.3961" x2="760.55" y2="89.4054" gradientTransform="matrix(1 0 0 -1 0 534)">
			<stop  offset="1.502404e-03" style="stop-color:#008694"/>
			<stop  offset="1" style="stop-color:#662D90"/>
		</linearGradient>
		<polygon class="st53" points="806.7,463 806.8,463 806.9,462.9 817.2,448 817.3,447.9 817.3,447.9 819.6,434.1 819.6,434 
			819.6,434 818.5,423.6 818.5,420.2 818.5,420.1 818.4,420.1 816.1,416.7 816.1,406.4 816.1,406.3 816.1,406.2 810.4,400.6 
			810.4,382.3 810.4,382.1 810.2,382 806.9,380.9 805.8,367.3 805.8,367.1 805.6,367.1 803.3,365.9 803,365.8 802.9,366.1 
			796.1,392.3 794.1,392.3 782.8,382.2 788.5,370.9 788.6,370.6 788.3,370.5 776.8,367.1 776.6,367 776.4,367.2 775.4,369.4 
			770.9,370.5 770.8,370.5 770.7,370.6 763.9,380.8 756.1,377.4 755.9,377.3 755.8,377.5 736.3,399.2 733,399.2 732.9,399.2 
			732.8,399.3 714.5,408.4 713.4,408.4 713.2,408.4 713.1,408.6 708.5,422.4 708.5,422.5 708.5,422.6 709.6,426.8 707.6,426.8 
			707.4,426.8 707.4,427 706.2,430.5 706.2,430.6 706.2,430.6 708.5,440.9 706.2,453.5 701.7,459.1 701.5,459.4 701.7,459.6 
			706.3,463 706.4,463.1 706.6,463 714.6,460.8 724.9,460.8 725,460.8 725,460.7 736.5,455 749,453.9 756.9,457.2 756.9,466.2 
			756.9,466.7 757.3,466.4 765.4,461.4 760.4,469.5 760.1,469.9 760.6,469.9 764,469.9 764.2,469.9 764.3,469.8 767.1,466.1 
			766.1,475.3 763.8,477.5 763.6,477.7 763.8,477.9 771.9,486 772.1,486.2 772.3,486 774.4,483.9 776.5,487.1 776.6,487.2 
			776.8,487.2 788.3,483.7 788.4,483.7 788.5,483.6 803.4,464.1 		"/>
		
			<linearGradient id="SVGID_54_" gradientUnits="userSpaceOnUse" x1="770.95" y1="526.3961" x2="770.95" y2="89.4054" gradientTransform="matrix(1 0 0 -1 0 534)">
			<stop  offset="1.502404e-03" style="stop-color:#008694"/>
			<stop  offset="1" style="stop-color:#662D90"/>
		</linearGradient>
		<polygon class="st54" points="772.3,495.8 771.1,493.1 770.9,492.8 770.6,493 768.5,494.7 768.4,494.8 768.4,494.9 767.2,499.5 
			766.1,502.9 766,503.1 766.1,503.2 768.4,505.5 768.6,505.7 768.8,505.6 771.1,504.4 771.1,504.4 771.1,504.4 775.7,500.9 
			775.9,500.8 775.9,500.7 775.9,496.1 775.9,495.8 775.6,495.8 		"/>
		
			<linearGradient id="SVGID_55_" gradientUnits="userSpaceOnUse" x1="821.1" y1="526.3961" x2="821.1" y2="89.4054" gradientTransform="matrix(1 0 0 -1 0 534)">
			<stop  offset="1.502404e-03" style="stop-color:#008694"/>
			<stop  offset="1" style="stop-color:#662D90"/>
		</linearGradient>
		<polygon class="st55" points="833.4,502.9 833.2,502.5 832.9,502.8 821.4,512 821.4,512 821.3,512.1 820.3,514.2 817,514.2 
			816.9,514.2 816.8,514.3 806.5,521.2 806.4,521.3 806.4,521.4 806.4,526 806.4,526.3 806.6,526.3 813.5,526.3 813.7,526.3 
			813.7,526.2 816,523.9 824,518.2 827.5,517.1 827.6,517 827.6,516.9 828.8,513.5 835.6,507.8 835.8,507.7 835.7,507.5 		"/>
		
			<linearGradient id="SVGID_56_" gradientUnits="userSpaceOnUse" x1="846.9" y1="526.3961" x2="846.9" y2="89.4054" gradientTransform="matrix(1 0 0 -1 0 534)">
			<stop  offset="1.502404e-03" style="stop-color:#008694"/>
			<stop  offset="1" style="stop-color:#662D90"/>
		</linearGradient>
		<polygon class="st56" points="855.2,493.6 851.8,490.3 853,481.2 853,481.1 853,481.1 851.8,477.6 851.7,477.4 851.5,477.4 
			850.4,477.4 850.1,477.4 850.1,477.7 849,490.2 843.3,497 841.2,497 841,497 840.9,497.2 838.6,507.5 838.5,507.9 838.9,507.9 
			840,507.9 840.1,507.9 840.2,507.8 850.5,497.5 853.8,497.5 854,497.5 854.1,497.4 855.3,493.9 855.3,493.7 		"/>
		
			<linearGradient id="SVGID_57_" gradientUnits="userSpaceOnUse" x1="756.95" y1="526.3961" x2="756.95" y2="89.4054" gradientTransform="matrix(1 0 0 -1 0 534)">
			<stop  offset="1.502404e-03" style="stop-color:#008694"/>
			<stop  offset="1" style="stop-color:#662D90"/>
		</linearGradient>
		<polygon class="st57" points="764.3,172.1 764.3,171.9 765.4,167.5 766.2,167.5 767.3,168.6 767.6,168.9 767.8,168.5 768.9,166.2 
			769,166.1 768.9,166.1 767.8,160.3 767.8,160.2 767.7,160.2 765.5,158 765.5,157 766.5,156 766.7,155.8 766.6,155.7 763.2,147.6 
			763.1,147.5 763.1,147.5 757.3,141.8 757,141.4 756.9,141.9 755.7,146.5 755.7,146.6 755.7,146.7 758,152.4 758,159.1 
			754.6,162.5 754.6,162.5 754.6,162.7 754.6,164.8 752.4,167 750.1,168.1 750,168.2 750,168.2 745.4,174 744.9,174.6 745.7,174.4 
			754.7,172.2 755.7,174.3 755.8,174.5 756.1,174.4 764.1,172.1 		"/>
		
			<linearGradient id="SVGID_58_" gradientUnits="userSpaceOnUse" x1="747.35" y1="526.3961" x2="747.35" y2="89.4054" gradientTransform="matrix(1 0 0 -1 0 534)">
			<stop  offset="1.502404e-03" style="stop-color:#008694"/>
			<stop  offset="1" style="stop-color:#662D90"/>
		</linearGradient>
		<polygon class="st58" points="748.1,177.3 747.8,177.3 743.3,178.5 743,178.5 743,178.8 743,182.2 743,182.5 743.3,182.5 
			745.4,182.5 745.4,185.7 745.4,185.7 745.4,185.8 746.5,188.1 746.6,188.3 746.9,188.2 750.3,187.1 750.5,187 750.5,186.9 
			751.7,183.5 751.7,183.3 751.6,183.2 748.2,177.5 		"/>
		
			<linearGradient id="SVGID_59_" gradientUnits="userSpaceOnUse" x1="751.95" y1="526.3961" x2="751.95" y2="89.4054" gradientTransform="matrix(1 0 0 -1 0 534)">
			<stop  offset="1.502404e-03" style="stop-color:#008694"/>
			<stop  offset="1" style="stop-color:#662D90"/>
		</linearGradient>
		<polygon class="st59" points="752.8,175.1 752.6,174.9 752.3,175.1 750,177.4 749.9,177.6 750,177.8 752.3,181.2 752.7,181.8 
			752.8,181.1 754,176.5 754,176.4 753.9,176.3 		"/>
		
			<linearGradient id="SVGID_60_" gradientUnits="userSpaceOnUse" x1="756.65" y1="526.3961" x2="756.65" y2="89.4054" gradientTransform="matrix(1 0 0 -1 0 534)">
			<stop  offset="1.502404e-03" style="stop-color:#008694"/>
			<stop  offset="1" style="stop-color:#662D90"/>
		</linearGradient>
		<polygon class="st60" points="751.1,136.1 751.1,136.2 751.1,140.8 751.1,141.1 751.4,141.1 753.7,141.1 753.8,141.1 754,140.9 
			755,138.8 759.4,138.8 759.6,138.8 759.7,138.7 763.1,134.1 763.3,133.9 763.1,133.7 758.5,129.1 758.4,129.1 758.4,129 
			750.3,126.8 750,126.6 750,127 750,130.5 750,130.5 750,130.6 752.2,135 751.2,136 		"/>
	</g>
	<g>
		
			<linearGradient id="SVGID_61_" gradientUnits="userSpaceOnUse" x1="315.7" y1="526.3961" x2="315.7" y2="89.4054" gradientTransform="matrix(1 0 0 -1 0 534)">
			<stop  offset="1.502404e-03" style="stop-color:#008694"/>
			<stop  offset="1" style="stop-color:#662D90"/>
		</linearGradient>
		<polygon class="st61" points="340.2,52.2 339.3,52 328.4,49.8 333.5,45.8 334.5,46.7 334.5,46.8 334.5,46.8 341.4,51.4 
			341.7,51.5 341.8,51.3 345.3,45.5 345.4,45.3 345.2,45.1 340.6,41.7 340.4,41.6 340.3,41.7 338.4,42.6 338.4,39.9 347.3,39.9 
			347.5,39.9 347.6,39.7 352.2,29.4 352.4,29 351.9,29 344.3,29 346.3,23.9 353,26.1 353.4,26.2 353.4,25.8 353.4,18.9 353.4,18.6 
			353.1,18.6 347.6,18.6 347.6,16.8 357.8,13.4 358,13.4 358,13.2 358,12.2 359,11.2 361.1,11.2 363.3,12.3 363.5,12.4 363.6,12.3 
			367,10 367.4,9.7 367,9.5 361.3,6.1 361.2,6 361,6 347.4,10.6 346.7,9.9 353.2,7.7 353.1,7.1 340.2,7.1 354.3,3.1 354.6,3 
			354.5,2.7 353.3,0.4 353.3,0.3 353.1,0.3 301.3,0.3 301.2,0.3 301.1,0.3 294.3,6 291,4.8 290.9,4.8 290.8,4.9 277,14.1 
			264.4,15.2 264,15.2 264.2,15.6 265.3,19 265.3,19.1 265.4,19.1 266.5,20.3 266.6,20.4 266.7,20.4 271.1,20.4 271.1,22.1 
			266.7,22.1 266.4,22.1 266.4,22.4 266.4,24.7 266.4,24.7 266.5,24.8 267.6,27.1 267.7,27.3 267.9,27.3 274.8,27.3 279.2,28.4 
			281.4,33.9 280.3,41.9 280.2,42.4 280.6,42.2 283.8,41.2 284.8,46.2 281.7,46.2 281.2,46.2 281.4,46.7 282.6,49 282.6,49.1 
			282.7,49.1 284.8,50.1 283.7,53.3 282.7,55.5 278.3,55.5 278.1,55.5 278,55.6 274.6,60.1 274.5,60.2 274.5,60.3 274.5,66.1 
			274.5,66.2 274.6,66.3 275.7,67.3 275.7,71.7 273.5,72.7 273.3,72.8 273.4,73.1 276.8,84.6 276.9,84.8 277.1,84.8 280.4,84.8 
			282.6,89.2 282.7,89.4 282.9,89.3 286.4,88.2 286.5,88.2 286.5,88.1 296.9,72 303.7,68.6 303.7,68.6 303.8,68.6 305.9,66.4 
			308.1,67.5 308.2,67.6 308.4,67.4 311.8,64 319.8,58.4 324.2,59.5 324.3,59.5 324.4,59.4 339.4,52.6 		"/>
		
			<linearGradient id="SVGID_62_" gradientUnits="userSpaceOnUse" x1="411.15" y1="526.3961" x2="411.15" y2="89.4054" gradientTransform="matrix(1 0 0 -1 0 534)">
			<stop  offset="1.502404e-03" style="stop-color:#008694"/>
			<stop  offset="1" style="stop-color:#662D90"/>
		</linearGradient>
		<polygon class="st62" points="413.2,110.2 413.2,109.8 413.2,107.5 413.2,107.3 413.2,107.3 410.8,105 410.5,104.6 410.4,105.1 
			409.2,108.5 409.1,108.8 409.4,108.9 412.8,110.1 		"/>
		
			<linearGradient id="SVGID_63_" gradientUnits="userSpaceOnUse" x1="418.2" y1="526.3961" x2="418.2" y2="89.4054" gradientTransform="matrix(1 0 0 -1 0 534)">
			<stop  offset="1.502404e-03" style="stop-color:#008694"/>
			<stop  offset="1" style="stop-color:#662D90"/>
		</linearGradient>
		<polygon class="st63" points="421.2,180.4 421.3,180 422.6,174.5 422.6,174.2 422.3,174.2 414.1,172.7 413.8,172.7 413.8,173 
			413.8,174.2 413.8,174.3 413.9,174.4 420.8,180.1 		"/>
		
			<linearGradient id="SVGID_64_" gradientUnits="userSpaceOnUse" x1="405" y1="526.3961" x2="405" y2="89.4054" gradientTransform="matrix(1 0 0 -1 0 534)">
			<stop  offset="1.502404e-03" style="stop-color:#008694"/>
			<stop  offset="1" style="stop-color:#662D90"/>
		</linearGradient>
		<polygon class="st64" points="403.4,165 403.4,169.6 403.4,170 403.8,169.8 406.4,168.8 406.6,168.7 406.6,168.5 406.3,164.9 
			406.3,164.7 406,164.7 403.7,164.7 403.4,164.7 		"/>
	</g>
	<g>
		
			<linearGradient id="SVGID_65_" gradientUnits="userSpaceOnUse" x1="450.25" y1="526.3961" x2="450.25" y2="89.4054" gradientTransform="matrix(1 0 0 -1 0 534)">
			<stop  offset="1.502404e-03" style="stop-color:#008694"/>
			<stop  offset="1" style="stop-color:#662D90"/>
		</linearGradient>
		<polygon class="st65" points="446.5,184 446.7,184.1 453.8,185.4 454,185.4 454.1,185.2 454.5,183.1 454.6,182.8 454.3,182.8 
			446.3,182.2 445.9,182.2 446,182.6 446.5,183.9 		"/>
		
			<linearGradient id="SVGID_66_" gradientUnits="userSpaceOnUse" x1="741" y1="526.3961" x2="741" y2="89.4054" gradientTransform="matrix(1 0 0 -1 0 534)">
			<stop  offset="1.502404e-03" style="stop-color:#008694"/>
			<stop  offset="1" style="stop-color:#662D90"/>
		</linearGradient>
		<polygon class="st66" points="736.4,240.5 736.2,240.6 735.1,241.8 735,241.9 735,242 735,252.2 733.9,253.3 733.7,253.5 
			733.9,253.7 738.5,259.4 738.5,259.4 738.5,259.4 739.7,260.6 739.7,260.6 739.7,260.6 743.2,262.9 743.2,263 743.3,263 
			747.9,263 748.3,263 748.2,262.6 747.1,259.2 747,259 746.8,259 744.6,259 742.4,257.9 741.3,253.6 743.6,250.2 743.7,250.1 
			743.6,250 741.3,243 741.3,242.9 741.2,242.9 736.6,240.6 		"/>
		
			<linearGradient id="SVGID_67_" gradientUnits="userSpaceOnUse" x1="745.7" y1="526.3961" x2="745.7" y2="89.4054" gradientTransform="matrix(1 0 0 -1 0 534)">
			<stop  offset="1.502404e-03" style="stop-color:#008694"/>
			<stop  offset="1" style="stop-color:#662D90"/>
		</linearGradient>
		<polygon class="st67" points="744.2,268.9 744.2,269.6 744.2,274.2 744.2,274.9 744.7,274.4 747,272.1 747.2,271.9 747,271.7 
			744.7,269.4 		"/>
		
			<linearGradient id="SVGID_68_" gradientUnits="userSpaceOnUse" x1="747.9" y1="526.3961" x2="747.9" y2="89.4054" gradientTransform="matrix(1 0 0 -1 0 534)">
			<stop  offset="1.502404e-03" style="stop-color:#008694"/>
			<stop  offset="1" style="stop-color:#662D90"/>
		</linearGradient>
		<polygon class="st68" points="747.3,268.4 747.3,268.4 748.9,269.8 749.4,270.3 749.4,269.6 749.4,268.4 749.4,268.4 749.3,268.3 
			748.2,266 748,265.7 747.7,266 746.6,267.1 746.4,267.3 746.6,267.5 747.3,268.3 		"/>
		
			<linearGradient id="SVGID_69_" gradientUnits="userSpaceOnUse" x1="752.5" y1="526.3961" x2="752.5" y2="89.4054" gradientTransform="matrix(1 0 0 -1 0 534)">
			<stop  offset="1.502404e-03" style="stop-color:#008694"/>
			<stop  offset="1" style="stop-color:#662D90"/>
		</linearGradient>
		<polygon class="st69" points="754,269.6 754,266.2 754,265.7 753.6,265.9 751.3,267 751,267.2 751.1,267.5 751.6,268.2 
			751.6,268.2 751.6,268.2 753.5,269.8 754,270.2 		"/>
		
			<linearGradient id="SVGID_70_" gradientUnits="userSpaceOnUse" x1="747.95" y1="526.3961" x2="747.95" y2="89.4054" gradientTransform="matrix(1 0 0 -1 0 534)">
			<stop  offset="1.502404e-03" style="stop-color:#008694"/>
			<stop  offset="1" style="stop-color:#662D90"/>
		</linearGradient>
		<polygon class="st70" points="749,280.2 749.5,280.5 749.4,279.9 748.2,275.3 748,274.3 747.6,275.3 746.5,278.7 746.4,278.9 
			746.7,279 		"/>
		
			<linearGradient id="SVGID_71_" gradientUnits="userSpaceOnUse" x1="754.85" y1="526.3961" x2="754.85" y2="89.4054" gradientTransform="matrix(1 0 0 -1 0 534)">
			<stop  offset="1.502404e-03" style="stop-color:#008694"/>
			<stop  offset="1" style="stop-color:#662D90"/>
		</linearGradient>
		<polygon class="st71" points="752.2,292.8 752.5,292.9 757.1,294 757.4,294.1 757.4,293.7 757.4,290.8 759.3,291.7 759.6,291.8 
			759.7,291.6 760.9,289.3 760.9,289.2 760.9,289.1 758.6,279.9 758.5,279.7 758.4,279.7 756.1,278.5 755.9,278.4 755.8,278.6 
			752.4,283.1 749,284.3 748.8,284.3 748.8,284.5 748.8,288 748.8,288.3 749.1,288.3 752.2,288.3 752.2,292.6 		"/>
		
			<linearGradient id="SVGID_72_" gradientUnits="userSpaceOnUse" x1="734.1" y1="526.3961" x2="734.1" y2="89.4054" gradientTransform="matrix(1 0 0 -1 0 534)">
			<stop  offset="1.502404e-03" style="stop-color:#008694"/>
			<stop  offset="1" style="stop-color:#662D90"/>
		</linearGradient>
		<polygon class="st72" points="735,272.1 735,273 735,277.5 730.5,282 730.3,282.2 730.4,282.4 731.6,284.7 731.8,285.1 732,284.7 
			735.5,280.1 735.5,280.1 735.5,280.1 736.7,277.8 737.8,276.7 737.9,276.5 737.8,276.3 735.5,272.9 		"/>
		
			<linearGradient id="SVGID_73_" gradientUnits="userSpaceOnUse" x1="752.6" y1="526.3961" x2="752.6" y2="89.4054" gradientTransform="matrix(1 0 0 -1 0 534)">
			<stop  offset="1.502404e-03" style="stop-color:#008694"/>
			<stop  offset="1" style="stop-color:#662D90"/>
		</linearGradient>
		<polygon class="st73" points="752.6,271.3 752.3,271.7 751.3,273.5 751.2,273.6 751.3,273.8 753.5,276.7 754,277.4 754,276.5 
			754,274.2 754,274.1 754,274.1 752.8,271.8 		"/>
		
			<linearGradient id="SVGID_74_" gradientUnits="userSpaceOnUse" x1="681.2" y1="526.3961" x2="681.2" y2="89.4054" gradientTransform="matrix(1 0 0 -1 0 534)">
			<stop  offset="1.502404e-03" style="stop-color:#008694"/>
			<stop  offset="1" style="stop-color:#662D90"/>
		</linearGradient>
		<polygon class="st74" points="693.8,342.4 694,342.3 697.4,340 697.6,339.9 697.6,339.7 697.6,331.7 697.6,331.6 697.5,331.5 
			684.8,313.1 679.1,306.2 679.1,306.2 679,306.1 676.8,305 673.4,299.3 673.3,299.2 673.2,299.2 665.1,298.1 664.8,298 
			664.8,298.3 664.8,299.5 664.8,299.6 664.8,299.7 671.7,306.5 671.7,309.9 671.7,310 671.8,310.1 674,311.2 676.3,316.8 
			676.3,316.9 676.3,316.9 682,326 682,330.5 682,330.6 682.1,330.7 693.6,342.2 		"/>
		
			<linearGradient id="SVGID_75_" gradientUnits="userSpaceOnUse" x1="698.15" y1="526.3961" x2="698.15" y2="89.4054" gradientTransform="matrix(1 0 0 -1 0 534)">
			<stop  offset="1.502404e-03" style="stop-color:#008694"/>
			<stop  offset="1" style="stop-color:#662D90"/>
		</linearGradient>
		<polygon class="st75" points="697.1,324 697,324.7 696.6,326.7 696.5,327 696.7,327 699.4,328.5 699.8,328.1 697.5,324.6 		"/>
		
			<linearGradient id="SVGID_76_" gradientUnits="userSpaceOnUse" x1="746.2" y1="526.3961" x2="746.2" y2="89.4054" gradientTransform="matrix(1 0 0 -1 0 534)">
			<stop  offset="1.502404e-03" style="stop-color:#008694"/>
			<stop  offset="1" style="stop-color:#662D90"/>
		</linearGradient>
		<polygon class="st76" points="750.8,322.3 750.3,322.2 743.7,321.1 744.8,318 745.8,315.9 752.5,317 752.6,317.1 752.7,317 
			756.1,314.7 756.3,314.6 756.3,314.4 756.3,312.2 756.3,311.7 755.9,311.9 753.6,313 744.5,313 744.4,313 744.4,313 742.1,314.2 
			742,314.2 741.9,314.3 739.6,318.9 739.6,319 739.6,319 739.6,321.3 736.1,332.8 736.1,332.9 736.2,333 738.4,335.3 739.6,343.2 
			739.6,343.6 740,343.4 742.3,342.3 742.5,342.2 742.5,342.1 743.6,332.9 743.6,332.9 743.6,332.8 743.6,332.7 746.5,337.6 
			746.6,337.7 746.8,337.7 747.9,337.7 748.2,337.7 748.2,337.5 749.4,330.6 749.4,330.4 749.3,330.3 746,327.1 750.4,322.7 		"/>
		
			<linearGradient id="SVGID_77_" gradientUnits="userSpaceOnUse" x1="765.8" y1="526.3961" x2="765.8" y2="89.4054" gradientTransform="matrix(1 0 0 -1 0 534)">
			<stop  offset="1.502404e-03" style="stop-color:#008694"/>
			<stop  offset="1" style="stop-color:#662D90"/>
		</linearGradient>
		<polygon class="st77" points="764.9,320.2 765.6,323.7 765.8,324.6 766.2,323.8 767.8,320.3 767.8,320.3 767.8,320.2 767.8,315.6 
			767.8,315.5 767.8,315.5 765.5,309.7 765.3,309.3 765,309.6 763.8,310.8 763.8,310.9 763.8,311 		"/>
		
			<linearGradient id="SVGID_78_" gradientUnits="userSpaceOnUse" x1="769.8" y1="526.3961" x2="769.8" y2="89.4054" gradientTransform="matrix(1 0 0 -1 0 534)">
			<stop  offset="1.502404e-03" style="stop-color:#008694"/>
			<stop  offset="1" style="stop-color:#662D90"/>
		</linearGradient>
		<polygon class="st78" points="768.7,331.4 768.6,331.4 765.1,332.5 764.7,332.7 765,333 766.1,334.2 766.2,334.3 766.4,334.3 
			769.5,334.1 773.2,335.4 773.3,335.5 773.5,335.3 774.6,334.2 774.9,333.9 774.5,333.7 768.8,331.4 		"/>
		
			<linearGradient id="SVGID_79_" gradientUnits="userSpaceOnUse" x1="733.45" y1="526.3961" x2="733.45" y2="89.4054" gradientTransform="matrix(1 0 0 -1 0 534)">
			<stop  offset="1.502404e-03" style="stop-color:#008694"/>
			<stop  offset="1" style="stop-color:#662D90"/>
		</linearGradient>
		<polygon class="st79" points="736.5,353.8 736.5,353.3 730.7,352.1 730.4,352 730.4,352.4 730.4,354.7 730.4,355 730.7,355 		"/>
		
			<linearGradient id="SVGID_80_" gradientUnits="userSpaceOnUse" x1="742.55" y1="526.3976" x2="742.55" y2="89.407" gradientTransform="matrix(1 0 0 -1 0 534)">
			<stop  offset="1.502404e-03" style="stop-color:#008694"/>
			<stop  offset="1" style="stop-color:#662D90"/>
		</linearGradient>
		<polygon class="st80" points="747.1,355 747.1,354.7 747.1,353.5 747.1,353.2 746.8,353.2 739.9,353.2 739.8,353.2 739.7,353.3 
			738.5,354.5 738,355 738.7,355 746.8,355 		"/>
		
			<linearGradient id="SVGID_81_" gradientUnits="userSpaceOnUse" x1="738.15" y1="526.3961" x2="738.15" y2="89.4054" gradientTransform="matrix(1 0 0 -1 0 534)">
			<stop  offset="1.502404e-03" style="stop-color:#008694"/>
			<stop  offset="1" style="stop-color:#662D90"/>
		</linearGradient>
		<polygon class="st81" points="736.3,359 736.3,359.2 736.5,359.3 739.8,360.7 740.2,360.9 740.2,360.4 740.2,359.3 740.2,359.1 
			740,359 736.5,357.8 736.1,357.7 736.1,358.2 		"/>
		
			<linearGradient id="SVGID_82_" gradientUnits="userSpaceOnUse" x1="700.15" y1="526.3961" x2="700.15" y2="89.4054" gradientTransform="matrix(1 0 0 -1 0 534)">
			<stop  offset="1.502404e-03" style="stop-color:#008694"/>
			<stop  offset="1" style="stop-color:#662D90"/>
		</linearGradient>
		<polygon class="st82" points="700.6,328.5 700.7,328.5 701.9,328.5 702.3,328.5 702.1,328.1 699.8,323.5 699.8,323.3 699.6,323.3 
			698.4,323.3 698,323.3 698.2,323.8 700.5,328.4 		"/>
		
			<linearGradient id="SVGID_83_" gradientUnits="userSpaceOnUse" x1="708.05" y1="526.3961" x2="708.05" y2="89.4054" gradientTransform="matrix(1 0 0 -1 0 534)">
			<stop  offset="1.502404e-03" style="stop-color:#008694"/>
			<stop  offset="1" style="stop-color:#662D90"/>
		</linearGradient>
		<polygon class="st83" points="715.6,353.8 715.7,353.8 715.8,353.8 721.5,352.7 721.6,352.7 721.7,352.6 722.8,351.4 722.9,351.4 
			722.9,351.2 722.9,350.1 722.9,349.8 722.7,349.8 718.2,348.7 717.1,346.5 717.1,346.4 717,346.4 712.4,344.1 712.2,344 
			712.1,344.1 709.9,345.2 698.5,342.9 698.5,342.9 698.4,342.9 697.3,342.9 697.2,342.9 697.1,343 693.6,346.5 693.2,346.8 
			693.7,346.9 698.2,348 699.3,350.2 699.4,350.4 699.6,350.4 708.7,350.4 		"/>
		
			<linearGradient id="SVGID_84_" gradientUnits="userSpaceOnUse" x1="802.15" y1="526.3961" x2="802.15" y2="89.4054" gradientTransform="matrix(1 0 0 -1 0 534)">
			<stop  offset="1.502404e-03" style="stop-color:#008694"/>
			<stop  offset="1" style="stop-color:#662D90"/>
		</linearGradient>
		<polygon class="st84" points="778.8,328.4 778.9,328.5 779,328.5 779.9,328.5 779.9,329.2 777.7,330.3 777.4,330.5 777.6,330.7 
			779.8,332.9 778.8,335 778.7,335.2 778.8,335.3 779.9,336.5 780.2,336.7 780.4,336.5 782.5,334.3 794.9,342.2 796.1,352.8 
			796.2,353 796.3,353.1 800.8,354.9 806.5,358.4 806.9,358.6 806.9,358.1 806.9,356 810.2,353.8 812.4,352.7 816.8,356 
			820.2,362.9 820.3,363 820.4,363 827.3,364.2 827.9,364.3 827.6,363.7 820.8,351.2 823,346.8 823.1,346.6 822.9,346.4 
			817.3,341.9 817.3,338.6 817.3,338.5 817.2,338.4 813.7,334.9 813.7,334.9 813.7,334.9 803.5,329.2 803.5,329.1 803.3,329.1 
			802.9,328.9 802.9,329.1 799.8,329.1 797.6,328 795.3,325.7 795.2,325.7 795.1,325.7 794,325.7 793.8,325.7 793.8,325.8 
			789.3,331.3 783.9,329.2 783.9,323.7 783.9,323.5 783.8,323.4 779.2,320 778.9,319.8 778.8,320 776.5,323.5 776.4,323.5 
			776.4,323.7 776.4,325.9 776.4,326.1 776.5,326.1 		"/>
		
			<linearGradient id="SVGID_85_" gradientUnits="userSpaceOnUse" x1="761.3" y1="526.3961" x2="761.3" y2="89.4054" gradientTransform="matrix(1 0 0 -1 0 534)">
			<stop  offset="1.502404e-03" style="stop-color:#008694"/>
			<stop  offset="1" style="stop-color:#662D90"/>
		</linearGradient>
		<polygon class="st85" points="762,335.3 762.2,335 763.4,333.9 763.6,333.7 763.4,333.5 762.2,332.3 762.2,332.3 762,332.3 
			759.7,332.3 759,332.3 759.5,332.8 761.8,335 		"/>
		
			<linearGradient id="SVGID_86_" gradientUnits="userSpaceOnUse" x1="755.85" y1="526.3961" x2="755.85" y2="89.4054" gradientTransform="matrix(1 0 0 -1 0 534)">
			<stop  offset="1.502404e-03" style="stop-color:#008694"/>
			<stop  offset="1" style="stop-color:#662D90"/>
		</linearGradient>
		<polygon class="st86" points="760.7,356.1 761.7,355.7 760.6,355.6 757.6,355.3 757.5,355.3 757.4,355.3 750.1,359 750,359.1 
			750,359.3 750,360.4 750,360.9 750.4,360.7 		"/>
		
			<linearGradient id="SVGID_87_" gradientUnits="userSpaceOnUse" x1="531.1" y1="526.3961" x2="531.1" y2="89.4054" gradientTransform="matrix(1 0 0 -1 0 534)">
			<stop  offset="1.502404e-03" style="stop-color:#008694"/>
			<stop  offset="1" style="stop-color:#662D90"/>
		</linearGradient>
		<polygon class="st87" points="532.4,401.8 532.3,401.4 532,401.5 529.6,402.7 529.5,402.8 529.5,403 529.8,405.6 529.8,405.8 
			530,405.8 532.3,406.1 532.7,406.2 532.7,405.8 		"/>
		
			<linearGradient id="SVGID_88_" gradientUnits="userSpaceOnUse" x1="547.55" y1="526.3961" x2="547.55" y2="89.4054" gradientTransform="matrix(1 0 0 -1 0 534)">
			<stop  offset="1.502404e-03" style="stop-color:#008694"/>
			<stop  offset="1" style="stop-color:#662D90"/>
		</linearGradient>
		<polygon class="st88" points="546.6,388.9 546.3,388.7 546.2,389.1 545.5,392.7 545.4,393 545.7,393.1 548,393.3 548.2,393.4 
			548.3,393.2 549.6,390.7 549.7,390.5 549.5,390.4 		"/>
		
			<linearGradient id="SVGID_89_" gradientUnits="userSpaceOnUse" x1="509.55" y1="526.3961" x2="509.55" y2="89.4054" gradientTransform="matrix(1 0 0 -1 0 534)">
			<stop  offset="1.502404e-03" style="stop-color:#008694"/>
			<stop  offset="1" style="stop-color:#662D90"/>
		</linearGradient>
		<polygon class="st89" points="507.2,368.9 507.4,368.9 509.7,369.2 509.9,369.2 510,369.1 511.9,366.3 512.2,365.9 511.6,365.9 
			507.2,365.8 506.9,365.7 506.9,366.1 507.2,368.6 		"/>
	</g>
	<g>
		
			<linearGradient id="SVGID_90_" gradientUnits="userSpaceOnUse" x1="417.75" y1="526.3961" x2="417.75" y2="89.4054" gradientTransform="matrix(1 0 0 -1 0 534)">
			<stop  offset="1.502404e-03" style="stop-color:#008694"/>
			<stop  offset="1" style="stop-color:#662D90"/>
		</linearGradient>
		<polygon class="st90" points="416.3,183.2 416.4,183.7 417,186.3 417.1,186.9 417.5,186.4 418.9,184.7 419.2,184.4 418.8,184.2 
			416.8,183.4 		"/>
		
			<linearGradient id="SVGID_91_" gradientUnits="userSpaceOnUse" x1="147.4001" y1="526.3961" x2="147.4001" y2="89.4054" gradientTransform="matrix(1 0 0 -1 0 534)">
			<stop  offset="1.502404e-03" style="stop-color:#008694"/>
			<stop  offset="1" style="stop-color:#662D90"/>
		</linearGradient>
		<path class="st91" d="M276.2,340.8v-0.1l-0.1-0.1l-13.8-9.2h-0.1h-0.1l-12.6-2.3l-4.5-2.3l-4.6-4.6v-0.1l0,0l-2.3-1.1l-0.2-0.1
			l-0.1,0.1l-3.4,2.2H231l0,0l-0.1,0.1l-1.9,0.9v-0.6l2.2-2.2l0,0v-0.1l1.1-2.2l4.5-2.3l0.4-0.2l-0.3-0.3l-3.4-3.4l-4.5-9l0.1-0.1
			l-0.2-0.1l-0.1-0.3l-0.1,0.2l-7.8-4.5l-2.3-2.3l-0.1-0.1l-0.1,0.1l-5.6,1.1l-7.7-8.8l0,0l-0.3-0.3l0,0l-0.2-0.2l0,0l-9-9l-0.1-0.1
			h-0.1l-5.8-1.2h-0.1h-0.1l-2.2,1.1l-9-2.3l-4.6-5.7l-0.2-0.2l-0.2,0.2l-1.1,1.1l-0.1,0.1v0.1v1.1v0.1l0.1,0.1l0.8,0.8l-3,1
			l-0.1,0.1l-0.1,0.1l-1.1,2.3v0.1v0.1v3.3l-1.7,0.9v-5.1v-0.2v-0.5v-0.5l2.3-3.4l0.2-0.3l-0.3-0.2l-2.3-1.1l-0.1-0.1l-0.1,0.1
			l-9.2,4.6h-0.1l-0.1,0.1l-5.6,9L146,282l-0.1-0.1h-0.1l-9,1.1l-3.3-5.5l2.3-17l0.2-0.1l-0.2-0.2l0.1-0.4l-0.3,0.2l-4.4-4.4
			l-0.1-0.1H131l-8-1.1l0,0l-1.7-0.4l0.7-1.5v-0.1v-0.1v-4.5l6.9-13.7l0.2-0.4l-0.5,0.1l-11.5,1.1h-0.2l-0.1,0.2l-1.2,4.6
			c0,0-0.8,2.6-1.1,3.3l-10,1.1l-6.7-8.9l2.3-13.7l2.3-6.8l11.4-14.8h7.9l8,4.6l0.3,0.2l0.1-0.4l1.1-5.4l4.3,1.1l9,2.2l2.3,17.1v0.3
			h0.2h2.3h0.1l0.1-0.1l2.3-2.3l0.1-0.1V217l1.1-5.8l0,0l0,0v-10.3l4.5-10.1h2.1h0.1h0.1l13.8-10.4l0.1-0.1v-0.1v-8l2.9-5.8l0,0
			l1.2,4.6l0.1,0.6l0.4-0.5l5.8-8.1l0,0l0,0l1.1-3.3l10.2-1.1h0.1l0.1-0.2l1.1-2.3v-0.2l-0.1-0.2l-1-1l2.2-5.4h3.2h0.1l0.1-0.1
			l9.1-5.7h1.9v0.8l-1.1,2.2v0.1v0.1v3.4v0.5l0.4-0.2l11.5-5.8l0.3-0.2l-0.3-0.3l-5.7-5.6V134v-0.1v-0.1l-0.9-1.9h3h0.2l0.1-0.2
			l1.1-2.3l0.2-0.3l-0.3-0.1l-4.6-1.2H216l-0.1,0.1L201,138.3l-2,1l-1-3l18.2-12.5h17.2h0.1h0.1l12.7-6.9l0.1-0.1l0.1-0.1l1.1-3.4
			l0.1-0.3l-0.3-0.1l-5.8-1.1l-0.1-0.1l-0.1,0.1l-3.3,2.2l-0.8-0.8l4.4-5.5l0.1-0.1v-0.1v-4.6v-0.2l-0.2-0.1l-2.1-1.1v-4.4
			l-1.1-11.5l-0.1-0.5l-0.4,0.3l-6.7,5.6l-5.4-4.3l2.2-4.4V82l-0.2-0.1l-6.9-5.8l0,0l0,0l-6.9-3.4l-0.3-0.1l-0.1,0.3l-5.7,13.7
			l-4.5,2.3l-0.2,0.1l0,0L202,99.2l-10.2,4.5l-0.2,0.1v0.2v6.8l-2.3,5.6l-1.1,1.1l-2.1,1l-0.9-0.9v-3.3v-0.1l-0.1-0.1L183,112
			l3.4-7.9l0.1-0.2l-0.2-0.1l-5.7-4.6l-5.7-6.9l-0.1-0.1h-0.1h-4.4l-1-2l2.2-3.3l0.1-0.2l-0.2-0.2l-1.1-1.1v-2.1l5.6-6.8l12.6-6.9
			l0.6-0.3l-0.6-0.2l-6.8-2.2l-0.9-2.8l7.5,2.2l0,0h0.1h8.1h0.2l0.1-0.2l1.1-2.3l0.1-0.3l-0.3-0.1l-4.2-2.1l2.9-1.9l4.4,2.2l0.1,0.1
			h0.1l5.7-2.3h1.1l0,0l0,0l9.2-2.3l0.1-0.1l0.1-0.1l3.5-8.1l0.1-0.3l-0.3-0.1l-5.8-1.1l-0.2-0.1l-0.1,0.1l-6.6,6.6l-3.2-8.6
			l2.2-2.2l0.1-0.1v0v-6.9v-0.5l-0.4,0.3l-10.3,5.7l-0.2,0.1l0.1,0.2l1.1,3.4v1l-7.5,8.5V51l0,0l-0.1-0.1l-1.1-1.1h-0.1h-0.1
			l-3.5-1.2h-0.2l-0.1,0.1l-2.2,2.2l-9-3.4h-0.1h-0.1h-5.7h-0.1l-0.1,0.1l-4.4,4.4l-2.1-3.2l-0.1-0.1h-0.1l-6.5-1.1l2-3.1l0.2-0.3
			l-0.3-0.2l-9.9-5.8l-0.1-0.1h-0.1l-3.2,1.1l-2.2-3.3l-0.2-0.3l-0.2,0.3l-1,1l-4.4-1.1h-0.1h-0.1l-14.8,2.3l-4.2-3.2v-0.1l-0.3-0.2
			l-0.2-0.1l0,0l-13.6-8h-0.1h-0.1l-15,1.2H86l0,0l-11.4,4.5L69,27.7l-0.3-0.2L68.5,28l-1.1,2.3v0.1v0.1v7.9l-3.1,2l-2.1-3.2L62,37
			l-0.3,0.2L51.3,44l-0.5,0.3l0.6,0.2l7.6,2.2l-4.2,4.1l-5.6-1.1h-0.1H49l-11.5,5.8l-0.1,0.1l-0.1,0.1L33.9,66l-0.1,0.3l0.3,0.1
			l5.2,2.1l-11,6.6l-9.2,2.3H19h0l-1.2,1.1L17.4,79h0.7h11.5h0.1h0.1l20.7-10.4l0.2-0.1v-0.2v-2.1L62,61.7h1l0.8,0.8l-7.7,3.3
			L56,65.9V66l-1.2,2.3l-0.1,0.3l0.3,0.1l2.3,1.2l0.1,0.1l0.1-0.1l9.1-4.5l7.9,4.5l3.4,8l0.1,0.3l0.3-0.1l4.2-2.1v1.8L80,86.7
			c0,0-0.9,4.8-1.1,5.6l0,0v0.1l0,0L78.8,93l0,0l-1.1,6.3l-1.2,8.1v0.1l0.1,0.1l4.5,7.9l-4.3,7.5l-2-3.1l-0.1-0.1h-0.1h-2.3H72
			l-0.1,0.1l-17.3,31l0,0v0.1v8v0.1v0.1l1.1,3.2l-3.2,1l-0.2,0.1v0.2v10.4v0.1l0.1,0.1l5.7,6.8v3.1v0.3v0.3v7.7l0,0l0,0l1.1,9
			l-2.1,1.1l-0.3,0.1L57,203l2.3,3.4c0,0,3,3.9,3.4,4.5v10.3v0.1v0.1L65,226l0.2,0.4l0.3-0.3l2.3-2.3l0.1-0.1l-0.1-0.2l-2.3-6.9
			v-10.3l0,0v-0.1l-3.4-11.4l2.1-6.3l2,2.9l2.3,13.7l0,0l0,0l3.5,11.5l0,0l0,0l4.6,10.3l-1.1,10.3v0.1l0.1,0.1l11.4,14l0,0l0,0
			l9.2,4.6l0.1,0.1l0.1-0.1l3.4-1.1c0,0,3.5-0.9,4.4-1.1l4.4,6.6v0.1l0.1,0.1l0.3,0.4l0.1-0.1l2,2l0,0l0,0l3.2,2.2v0.1l0.3,0.1
			l0.2,0.2v-0.1l5.5,2.2l0.1,0.1l0.1-0.1l1.9-1v0.6l-1.1,2.2l-0.1,0.1v0.1l3.5,9.2l1.2,3.4v0.1l0,0l1.1,1.1l0.2,0.1l0.2-0.1l2.1-1.1
			l4.3,4.3l-0.2,0.2h0.4l0.2,0.2l0.1-0.2h0.8l3.4,4.5l0.1,0.2l0.2-0.1l2.3-1.2l0.2-0.1v-0.2v-2.1l3-1l3.3,5.5v17.1l-2.3,4.5
			c0,0.1-2.3,3.4-2.3,3.4l-4.6,8.1v0.1v0.1v5.7v0.5l0.4-0.2l1.9-0.9v2.8l-2,2.1l-0.3-0.2l0.1,0.5l-0.2,0.2l0.2,0.1l1.1,9.1v0.1
			l0.1,0.1l6.9,6.8l2.3,6.8l9.2,21.9v0.1h0.1l10.4,6.9c0,0,5.2,4.2,5.7,4.5l1.1,2.2l3.4,29.9l5.8,50.6l0,0v0.1l2.3,5.7v4.5v0.2
			l0.2,0.1l3.5,1.1l2.1,1.1l3.4,15.6h-1.9H194l-0.1,0.2l-1.1,2.3l-0.1,0.2l0.2,0.2l4.5,3.4v3.3v0.1l0.1,0.1l2.3,3.4l1.1,4.5v0.1
			l0.1,0.1l3.4,3.4v1v0.1l0.1,0.1l2.3,2.3l0.1,0.1h0.1h2.1l1,2.1v1.1v0.2l0.2,0.1l2.3,1.1h0.1h0.1h2.3h0.3v-0.4v-3.3l2.2-2.2
			l0.1-0.1V527v-0.9V526v-0.3v-0.9v-0.1v-0.1l-2.3-4.5l3.4-10.3l0,0v-0.1v-3.4v-0.2l-0.2-0.1l-6.5-3.3l4.2-3.2l0.1-0.1v-0.2v-12.6
			v-0.1l-0.1-0.1l-1.1-1.2l-0.1-0.1H215h-2.1l-1-4h3l1.1,1.1l0.2,0.2l0.2-0.2l2.3-2.3l0.1-0.1v0.2v-2.3v-0.1l-0.1-0.1l-1.1-1.1v-1.9
			h4.3h0.1l0.1-0.1l5.8-3.4l0.1-0.1v-0.1l2.3-6.9l0.1-0.2l-0.2-0.1l-5.7-3.4l-2.3-6.8l-0.6-3.2l1.1,3.4l0,0l0,0l1.2,2.3l0.1,0.1
			l0.1,0.1l3.4,1.1h0.1l0,0h2.3h0.1h0.1l3.5-1.1l0.1-0.1v-0.1l3.4-5.7l1-1l0.1,0.1l0.1-0.3l0.2-0.2l-0.1-0.1l3.3-6.6l1.1-1.1
			l0.1-0.1v-0.1l1.1-4.5l1.1-1.1l0.1-0.1V435l-1.1-15.9l18.3-11.4l0.1-0.1v-0.1l4.6-20.7v-0.1l0,0l-1.1-14.8l2.2-3.3l2.2-1.1h0.1
			v-0.1l6.9-14.9v-0.1v-0.1L276.2,340.8z M176.1,383.3v-1.9h0.8l3.1,2.1l-1.9,1.9L176.1,383.3z"/>
		
			<linearGradient id="SVGID_92_" gradientUnits="userSpaceOnUse" x1="234.95" y1="526.3961" x2="234.95" y2="89.4054" gradientTransform="matrix(1 0 0 -1 0 534)">
			<stop  offset="1.502404e-03" style="stop-color:#008694"/>
			<stop  offset="1" style="stop-color:#662D90"/>
		</linearGradient>
		<polygon class="st92" points="233.5,319.7 233.4,319.7 231.9,321.6 231.4,322.1 232.1,322.1 233.4,321.9 233.4,321.9 233.4,321.9 
			236.9,320.8 237,320.7 237.1,320.6 238.2,318.3 238.5,317.6 237.8,317.9 233.5,319.6 		"/>
	</g>
	<g>
		
			<linearGradient id="SVGID_93_" gradientUnits="userSpaceOnUse" x1="508.95" y1="526.3961" x2="508.95" y2="89.4054" gradientTransform="matrix(1 0 0 -1 0 534)">
			<stop  offset="1.502404e-03" style="stop-color:#008694"/>
			<stop  offset="1" style="stop-color:#662D90"/>
		</linearGradient>
		<path class="st93" d="M508.4,46.2l-0.2,0.1l-1.1,1.1l-0.2,0.2l0.2,0.2l3.4,3.4l0.5,0.5V51v-3.4v-0.2l-0.2-0.1L508.4,46.2
			L508.4,46.2z M508.5,46.9l1.9,1v2.6l-2.8-2.7L508.5,46.9z"/>
		
			<linearGradient id="SVGID_94_" gradientUnits="userSpaceOnUse" x1="738.1501" y1="526.3961" x2="738.1501" y2="89.4054" gradientTransform="matrix(1 0 0 -1 0 534)">
			<stop  offset="1.502404e-03" style="stop-color:#008694"/>
			<stop  offset="1" style="stop-color:#662D90"/>
		</linearGradient>
		<path class="st94" d="M747.1,112.4v-0.3v-1.2v-0.1l-0.1-0.1l-5.8-4.6c0,0-4.2-3.2-4.6-3.4l-8.1-10.3l-0.1-0.1h-0.1h-1.1h-0.3v0.3
			v4.6v0.1l0.1,0.1l4.6,5.8l0,0l0,0l5.7,5.7l4.6,10.3v0.1l0.1,0.1l5.8,4.6l0.3,0.3l0.1-0.4l1.1-4.6l0.1-0.2l-0.1-0.1l-5.4-6.4h2.8
			L747.1,112.4L747.1,112.4z"/>
		
			<linearGradient id="SVGID_95_" gradientUnits="userSpaceOnUse" x1="725.9501" y1="526.3961" x2="725.9501" y2="89.4054" gradientTransform="matrix(1 0 0 -1 0 534)">
			<stop  offset="1.502404e-03" style="stop-color:#008694"/>
			<stop  offset="1" style="stop-color:#662D90"/>
		</linearGradient>
		<path class="st95" d="M728.4,21.5L728.4,21.5l0.1-0.1l1.2-1.1l0.5-0.5h-0.7h-4.6h-0.1l-0.1,0.1l-2.3,2.3l-0.7,0.7l0.9-0.2
			L728.4,21.5z M725,20.4h3.8l-0.6,0.6l-4.7,0.9L725,20.4z"/>
		
			<linearGradient id="SVGID_96_" gradientUnits="userSpaceOnUse" x1="498.45" y1="526.3961" x2="498.45" y2="89.4054" gradientTransform="matrix(1 0 0 -1 0 534)">
			<stop  offset="1.502404e-03" style="stop-color:#008694"/>
			<stop  offset="1" style="stop-color:#662D90"/>
		</linearGradient>
		<polygon class="st96" points="497.9,47.9 498,48 498.2,48 505.1,46.8 506.1,46.7 505.1,46.3 499.5,44 498.4,38.4 498.4,38.3 
			498.3,38.2 495.9,37.1 495.8,37 495.6,37.1 491,41.7 490.8,41.9 491,42.2 		"/>
		
			<linearGradient id="SVGID_97_" gradientUnits="userSpaceOnUse" x1="506.3" y1="526.3961" x2="506.3" y2="89.4054" gradientTransform="matrix(1 0 0 -1 0 534)">
			<stop  offset="1.502404e-03" style="stop-color:#008694"/>
			<stop  offset="1" style="stop-color:#662D90"/>
		</linearGradient>
		<polygon class="st97" points="500.3,35.3 500.5,35.4 500.6,35.2 507.5,28.4 515.5,26.1 516.1,26 515.6,25.6 512.1,23.3 512,23.2 
			511.8,23.3 506.2,25.5 502.8,24.4 502.6,24.3 502.5,24.5 496.7,33.7 496.5,34 496.9,34.2 		"/>
		
			<linearGradient id="SVGID_98_" gradientUnits="userSpaceOnUse" x1="555.1" y1="526.3961" x2="555.1" y2="89.4054" gradientTransform="matrix(1 0 0 -1 0 534)">
			<stop  offset="1.502404e-03" style="stop-color:#008694"/>
			<stop  offset="1" style="stop-color:#662D90"/>
		</linearGradient>
		<polygon class="st98" points="552,13.3 552,13.4 552.2,13.4 557.9,14.6 558.2,14.7 558.2,14.5 560.5,9.9 560.6,9.7 560.5,9.5 
			558.2,7.2 558,7.1 557.9,7.2 555.7,8.3 552.4,6.1 552.2,5.9 552,6.1 549.7,8.4 549.6,8.5 549.7,8.7 		"/>
		
			<linearGradient id="SVGID_99_" gradientUnits="userSpaceOnUse" x1="567.25" y1="526.3961" x2="567.25" y2="89.4054" gradientTransform="matrix(1 0 0 -1 0 534)">
			<stop  offset="1.502404e-03" style="stop-color:#008694"/>
			<stop  offset="1" style="stop-color:#662D90"/>
		</linearGradient>
		<polygon class="st99" points="565.8,15.7 566,15.9 566.2,15.7 570.9,11.1 571.1,10.9 570.9,10.7 569.7,9.5 569.6,9.4 569.5,9.4 
			564.9,9.4 564.7,9.4 564.6,9.6 563.5,13.1 563.4,13.3 563.5,13.4 		"/>
		
			<linearGradient id="SVGID_100_" gradientUnits="userSpaceOnUse" x1="655.3" y1="526.3961" x2="655.3" y2="89.4054" gradientTransform="matrix(1 0 0 -1 0 534)">
			<stop  offset="1.502404e-03" style="stop-color:#008694"/>
			<stop  offset="1" style="stop-color:#662D90"/>
		</linearGradient>
		<polygon class="st100" points="659.3,18.1 659.7,18.1 659.6,17.7 658.4,13.1 658.3,12.8 658.1,12.9 651.2,14.1 650.9,14.1 
			650.9,14.3 650.9,16.6 650.9,16.9 651.2,16.9 		"/>
		
			<linearGradient id="SVGID_101_" gradientUnits="userSpaceOnUse" x1="643.25" y1="526.3961" x2="643.25" y2="89.4054" gradientTransform="matrix(1 0 0 -1 0 534)">
			<stop  offset="1.502404e-03" style="stop-color:#008694"/>
			<stop  offset="1" style="stop-color:#662D90"/>
		</linearGradient>
		<polygon class="st101" points="641.8,20.3 641.9,20.4 642.1,20.4 645.6,19.2 645.9,19.1 645.7,18.8 643.4,15.3 643.3,15.1 
			643,15.2 640.7,16.4 640.6,16.5 640.6,16.6 640.6,18.9 640.6,19.1 640.7,19.1 		"/>
	</g>
	<g>
		
			<linearGradient id="SVGID_102_" gradientUnits="userSpaceOnUse" x1="143.8" y1="526.3998" x2="143.8" y2="89.4091" gradientTransform="matrix(1 0 0 -1 0 534)">
			<stop  offset="1.502404e-03" style="stop-color:#008694"/>
			<stop  offset="1" style="stop-color:#662D90"/>
		</linearGradient>
		<circle class="st102" cx="143.8" cy="241.2" r="3.2"/>
		
			<linearGradient id="SVGID_103_" gradientUnits="userSpaceOnUse" x1="149.3" y1="526.3961" x2="149.3" y2="89.4054" gradientTransform="matrix(1 0 0 -1 0 534)">
			<stop  offset="1.502404e-03" style="stop-color:#008694"/>
			<stop  offset="1" style="stop-color:#662D90"/>
		</linearGradient>
		<polygon class="st103" points="163.3,241.1 163.4,241 164.5,238.7 164.7,238.5 164.4,238.3 143.7,226.8 143.6,226.7 143.5,226.8 
			136.6,227.9 136.5,227.9 136.4,228.1 134.1,232.7 133.9,233.1 134.4,233.1 137.8,233.1 137.9,233.1 138,233.1 141.3,230.8 
			142.3,230.8 153.6,238.7 153.6,242 153.6,242.3 154,242.3 163.2,241.1 		"/>
		
			<linearGradient id="SVGID_104_" gradientUnits="userSpaceOnUse" x1="137" y1="526.3961" x2="137" y2="89.4054" gradientTransform="matrix(1 0 0 -1 0 534)">
			<stop  offset="1.502404e-03" style="stop-color:#008694"/>
			<stop  offset="1" style="stop-color:#662D90"/>
		</linearGradient>
		<polygon class="st104" points="136.9,234.2 136.7,234.7 135.5,237 135.5,237.1 135.5,237.2 135.8,238.2 135.9,238.5 136.2,238.4 
			138.2,237.4 138.5,237.2 138.4,237 137.2,234.7 		"/>
		
			<linearGradient id="SVGID_105_" gradientUnits="userSpaceOnUse" x1="202.3" y1="526.3961" x2="202.3" y2="89.4054" gradientTransform="matrix(1 0 0 -1 0 534)">
			<stop  offset="1.502404e-03" style="stop-color:#008694"/>
			<stop  offset="1" style="stop-color:#662D90"/>
		</linearGradient>
		<polygon class="st105" points="203.2,276.8 203.5,276.7 203.4,276.4 202.8,274.4 202.8,274.2 202.6,274.2 201.4,274.2 
			201.1,274.2 201.1,274.5 201.1,276.8 201.1,277.1 201.5,277.1 		"/>
		
			<linearGradient id="SVGID_106_" gradientUnits="userSpaceOnUse" x1="202.9" y1="526.3961" x2="202.9" y2="89.4054" gradientTransform="matrix(1 0 0 -1 0 534)">
			<stop  offset="1.502404e-03" style="stop-color:#008694"/>
			<stop  offset="1" style="stop-color:#662D90"/>
		</linearGradient>
		<polygon class="st106" points="202,269.4 201.7,269.4 201.7,269.7 201.7,272.1 201.7,272.4 202,272.3 203.7,272.1 204.1,272 
			204,271.7 203.4,269.7 203.4,269.4 203.1,269.4 		"/>
		
			<linearGradient id="SVGID_107_" gradientUnits="userSpaceOnUse" x1="202" y1="526.3961" x2="202" y2="89.4054" gradientTransform="matrix(1 0 0 -1 0 534)">
			<stop  offset="1.502404e-03" style="stop-color:#008694"/>
			<stop  offset="1" style="stop-color:#662D90"/>
		</linearGradient>
		<polygon class="st107" points="202.9,268.4 203.2,268.4 203.1,268.1 202.5,266 202.5,265.9 202.3,265.9 201.1,265.9 200.8,265.9 
			200.8,266.2 200.8,268.4 200.8,268.8 201.2,268.7 		"/>
		
			<linearGradient id="SVGID_108_" gradientUnits="userSpaceOnUse" x1="201.25" y1="526.3961" x2="201.25" y2="89.4054" gradientTransform="matrix(1 0 0 -1 0 534)">
			<stop  offset="1.502404e-03" style="stop-color:#008694"/>
			<stop  offset="1" style="stop-color:#662D90"/>
		</linearGradient>
		<polygon class="st108" points="202.4,259.5 202.8,259.3 202.5,259 200.2,256.8 199.7,256.3 199.7,257 199.7,260.4 199.7,260.9 
			200.1,260.6 		"/>
		
			<linearGradient id="SVGID_109_" gradientUnits="userSpaceOnUse" x1="203" y1="526.3961" x2="203" y2="89.4054" gradientTransform="matrix(1 0 0 -1 0 534)">
			<stop  offset="1.502404e-03" style="stop-color:#008694"/>
			<stop  offset="1" style="stop-color:#662D90"/>
		</linearGradient>
		<polygon class="st109" points="204.1,256 203.6,254 203.5,253.8 203.3,253.8 202.1,253.8 201.8,253.8 201.8,254.1 201.8,256.4 
			201.8,256.7 202.2,256.7 203.9,256.4 204.2,256.3 		"/>
		
			<linearGradient id="SVGID_110_" gradientUnits="userSpaceOnUse" x1="202.45" y1="526.3961" x2="202.45" y2="89.4054" gradientTransform="matrix(1 0 0 -1 0 534)">
			<stop  offset="1.502404e-03" style="stop-color:#008694"/>
			<stop  offset="1" style="stop-color:#662D90"/>
		</linearGradient>
		<polygon class="st110" points="203.6,263.5 203,261.5 202.9,261.3 202.7,261.3 201.5,261.3 201.3,261.3 201.3,261.6 201.3,263.8 
			201.3,264.2 201.6,264.1 203.3,263.8 203.6,263.8 		"/>
		
			<linearGradient id="SVGID_111_" gradientUnits="userSpaceOnUse" x1="200.15" y1="526.3961" x2="200.15" y2="89.4054" gradientTransform="matrix(1 0 0 -1 0 534)">
			<stop  offset="1.502404e-03" style="stop-color:#008694"/>
			<stop  offset="1" style="stop-color:#662D90"/>
		</linearGradient>
		<polygon class="st111" points="200,252.6 200.1,252.6 200.2,252.5 201.3,251.4 201.8,250.9 201.1,250.9 198.8,250.9 198.5,250.9 
			198.5,251.2 198.5,252.4 198.5,252.6 198.8,252.6 		"/>
		
			<linearGradient id="SVGID_112_" gradientUnits="userSpaceOnUse" x1="194.9" y1="526.3961" x2="194.9" y2="89.4054" gradientTransform="matrix(1 0 0 -1 0 534)">
			<stop  offset="1.502404e-03" style="stop-color:#008694"/>
			<stop  offset="1" style="stop-color:#662D90"/>
		</linearGradient>
		<polygon class="st112" points="197.7,248.6 192,247.5 191,247.3 191.7,247.9 194,250.2 194.1,250.4 194.3,250.3 197.8,249.2 
			198.8,248.8 		"/>
		
			<linearGradient id="SVGID_113_" gradientUnits="userSpaceOnUse" x1="186.4" y1="526.3961" x2="186.4" y2="89.4054" gradientTransform="matrix(1 0 0 -1 0 534)">
			<stop  offset="1.502404e-03" style="stop-color:#008694"/>
			<stop  offset="1" style="stop-color:#662D90"/>
		</linearGradient>
		<polygon class="st113" points="183.5,244.9 183.5,245.4 183.5,248.9 183.5,249.2 183.9,249.2 188.5,249.2 189.3,249.2 
			188.6,248.7 184,245.2 		"/>
		
			<linearGradient id="SVGID_114_" gradientUnits="userSpaceOnUse" x1="167.75" y1="526.3961" x2="167.75" y2="89.4054" gradientTransform="matrix(1 0 0 -1 0 534)">
			<stop  offset="1.502404e-03" style="stop-color:#008694"/>
			<stop  offset="1" style="stop-color:#662D90"/>
		</linearGradient>
		<polygon class="st114" points="168.9,236.5 169.4,236.5 169.1,236.1 168,233.8 167.7,233.3 167.5,233.8 166.3,236.1 166.1,236.5 
			166.6,236.5 		"/>
	</g>
</g>
</svg>
