<?xml version="1.0" encoding="utf-8"?>
<!-- Generator: Adobe Illustrator 22.1.0, SVG Export Plug-In . SVG Version: 6.00 Build 0)  -->
<svg version="1.1" id="Layer_1" xmlns="http://www.w3.org/2000/svg" xmlns:xlink="http://www.w3.org/1999/xlink" x="0px" y="0px"
	 viewBox="0 0 72.2 72.2" style="enable-background:new 0 0 72.2 72.2;" xml:space="preserve">
<style type="text/css">
	.Drop_x0020_Shadow{fill:none;}
	.Outer_x0020_Glow_x0020_5_x0020_pt{fill:none;}
	.Jive_GS{fill:#A6D0E4;}
	.st0{fill:none;stroke:#FFF800;stroke-width:4;stroke-miterlimit:10;}
	.st1{fill:url(#SVGID_1_);stroke:url(#SVGID_2_);stroke-width:0.75;stroke-miterlimit:10;}
</style>
<circle class="st0" cx="36.1" cy="36.1" r="34.1"/>
<linearGradient id="SVGID_1_" gradientUnits="userSpaceOnUse" x1="36.0771" y1="15.8291" x2="36.0771" y2="54.5199">
	<stop  offset="0.6127" style="stop-color:#FBED21"/>
	<stop  offset="1" style="stop-color:#8BC53F"/>
</linearGradient>
<linearGradient id="SVGID_2_" gradientUnits="userSpaceOnUse" x1="36.0771" y1="15.4541" x2="36.0771" y2="54.8949">
	<stop  offset="0.6479" style="stop-color:#FBED21"/>
	<stop  offset="1" style="stop-color:#8BC53F"/>
</linearGradient>
<path class="st1" d="M55.2,29.9c-1-1.9-3.2-2.9-5.9-2.9c-2,0-4.1,0.6-6.1,1.7c-3,1.7-5.9,4.7-7.3,7.4c-0.9,1.8-2.2,3.2-3.8,4.3
	c-1.2,0.8-2.4,1.4-3.6,2c0.1-0.1,0.1-0.3,0.2-0.4c0.5-1,1.1-2.1,1.7-3.1c0.9-1.6,2.3-2.9,4-3.8c1.5-0.8,3.1-2.1,4.6-3.7
	c1-1.1,1.9-2.4,2.5-3.5c0.6-1.2,1.1-2.5,1.3-3.7l0-0.1l0,0c0.6-3.5-0.5-6.5-2.8-7.7c-2.3-1.2-5.5-0.4-8,2.1c-0.9,0.9-1.7,2-2.3,3.2
	c-0.6,1.2-1.1,2.6-1.5,4c-0.5,2.1-0.7,4.2-0.5,5.9c0.2,1.9-0.1,3.8-0.8,5.4c-0.9,2.1-2.1,4.1-3.5,6c-0.4,0.6-0.9,1.3-1.2,1.9
	c-0.1,0.2-0.2,0.5-0.4,0.7c0,0-0.1,0.1-0.1,0.1l-4.4,3.1c-0.8,0.6-1.1,1.7-0.6,2.5c0.3,0.6,1,1,1.7,1c0.3,0,0.5-0.1,0.8-0.2l0,0
	c-0.2,0.8,0.2,1.6,1,2c0.3,0.1,0.6,0.2,0.9,0.2c0.3,0,0.6-0.1,0.9-0.2c0.3-0.2,0.5-0.4,0.7-0.6l2.7-4.1c1-0.5,2-1.1,2.9-1.8
	c1.9-1.4,4-2.7,6.1-3.7c1.4-0.7,3-1,4.6-1c0.3,0,0.7,0,1,0c0.4,0,0.8,0.1,1.2,0.1c0,0,0,0,0,0c2.9,0,6.5-0.9,9-2.3
	c2.3-1.3,4.1-3.1,5.1-5.1C56,33.6,56.1,31.6,55.2,29.9z M39.6,17c1.9,1,2.9,3.5,2.5,6.4c-1.2-1.1-2.7-2.2-4.3-3
	c-1.6-0.8-3.3-1.5-4.9-1.8C35.1,16.6,37.7,16,39.6,17z M30.2,22c0.6-1.1,1.3-2.1,2.1-2.9c1.7,0.3,3.5,1,5.2,1.9
	c1.7,0.9,3.2,2,4.5,3.2c-0.2,1.1-0.6,2.3-1.2,3.4c-0.5,1-1.3,2.1-2.1,3.1c-1.3-1.2-2.8-2.4-4.5-3.2c-1.7-0.9-3.5-1.5-5.3-1.9
	C29.2,24.3,29.7,23.1,30.2,22z M28.7,26.2c1.7,0.3,3.4,1,5.1,1.8c1.6,0.9,3.2,2,4.4,3.1c-1.3,1.4-2.8,2.6-4.1,3.3
	c-0.4,0.2-0.9,0.5-1.3,0.8c-0.7-0.5-1.4-0.9-2.1-1.3c-0.7-0.4-1.5-0.7-2.3-1c0-0.5,0-1-0.1-1.5C28.1,30,28.3,28.1,28.7,26.2z
	 M23.9,43.5c1.4-1.9,2.6-4,3.5-6.1c0.5-1.1,0.8-2.3,0.9-3.6c0.7,0.3,1.3,0.6,2,0.9c0.6,0.3,1.3,0.7,1.9,1.1c-1,0.8-1.8,1.7-2.4,2.8
	c-0.6,1-1.2,2.1-1.7,3.1c-0.2,0.4-0.4,0.8-0.5,1.2c-0.6,0.3-1.2,0.5-1.8,0.7c-1,0.4-1.9,0.8-2.8,1.3C23.3,44.5,23.6,44,23.9,43.5z
	 M21.9,53.3c-0.1,0.2-0.2,0.3-0.4,0.4c-0.4,0.2-0.8,0.2-1.1,0c-0.5-0.3-0.8-0.9-0.5-1.5l0.1-0.3l4-1.8L21.9,53.3z M33.9,43.4
	c-2.2,1.1-4.3,2.3-6.3,3.8c-1.2,0.9-2.5,1.7-3.9,2.3l-4.9,2.2c-0.2,0.1-0.3,0.1-0.5,0.1c-0.4,0-0.9-0.2-1.1-0.6
	c-0.3-0.6-0.1-1.3,0.4-1.6l4.4-3.1c0.1-0.1,0.5-0.3,0.5-0.3l0,0c1.1-0.7,2.3-1.3,3.5-1.8c2.3-0.9,4.5-2,6.5-3.3
	c1.1-0.7,2-1.6,2.8-2.6c0.4,0.6,0.8,1.2,1.2,1.9c0.4,0.7,0.7,1.3,1,2C36.3,42.5,35,42.8,33.9,43.4z M41,42.4c-0.4,0-0.8,0-1.1,0
	c-0.4,0-0.7-0.1-1.1-0.1c-0.1,0-0.3,0-0.4,0c-0.3-0.8-0.7-1.6-1.1-2.3c-0.4-0.8-0.9-1.5-1.4-2.2c0.3-0.4,0.5-0.9,0.8-1.3
	c0.7-1.5,1.9-3,3.3-4.4c1.3,1.2,2.4,2.8,3.4,4.5c0.9,1.7,1.6,3.5,2,5.2C43.9,42.2,42.3,42.4,41,42.4z M49.6,40.1
	c-1.1,0.6-2.3,1.1-3.6,1.5c-0.4-1.8-1.1-3.7-2.1-5.4c-1-1.7-2.2-3.3-3.5-4.6c1-0.9,2.1-1.7,3.2-2.3c1.1-0.6,2.3-1.1,3.4-1.3
	c1.3,1.3,2.5,2.8,3.5,4.6c1,1.7,1.7,3.6,2.1,5.3C51.7,38.7,50.7,39.5,49.6,40.1z M54.4,35.3c-0.3,0.7-0.7,1.3-1.2,1.9
	c-0.4-1.7-1.1-3.4-2-5c-0.9-1.6-2-3.1-3.2-4.4c0.5-0.1,0.9-0.1,1.4-0.1c2.4,0,4.4,0.9,5.3,2.6C55.4,31.7,55.3,33.5,54.4,35.3z"/>
</svg>
