<?xml version="1.0" encoding="utf-8"?>
<!-- Generator: Adobe Illustrator 22.1.0, SVG Export Plug-In . SVG Version: 6.00 Build 0)  -->
<svg version="1.1" id="Layer_1" xmlns="http://www.w3.org/2000/svg" xmlns:xlink="http://www.w3.org/1999/xlink" x="0px" y="0px"
	 viewBox="0 0 72.2 72.2" style="enable-background:new 0 0 72.2 72.2;" xml:space="preserve">
<style type="text/css">
	.Drop_x0020_Shadow{fill:none;}
	.Outer_x0020_Glow_x0020_5_x0020_pt{fill:none;}
	.Jive_GS{fill:#A6D0E4;}
	.st0{opacity:0.92;fill:none;stroke:#FF0000;stroke-width:4;stroke-miterlimit:10;}
	.st1{opacity:0.92;fill:url(#SVGID_1_);}
</style>
<g id="piano">
	<circle class="st0" cx="36.2" cy="36.2" r="34.1"/>
	<linearGradient id="SVGID_1_" gradientUnits="userSpaceOnUse" x1="35.5222" y1="24.4347" x2="35.5222" y2="47.0759">
		<stop  offset="0.3305" style="stop-color:#FE0402"/>
		<stop  offset="0.9044" style="stop-color:#F05A24"/>
	</linearGradient>
	<path class="st1" d="M56.4,25.1c0-0.4-0.3-0.7-0.7-0.7H15.4c-0.4,0-0.7,0.3-0.7,0.7v21.2c0,0.4,0.3,0.7,0.7,0.7h40.3
		c0.4,0,0.7-0.3,0.7-0.7V25.1z M55,25.8v2.8H16.1v-2.8H55z M20,30.1h2.3v9.6H20V30.1z M23,41.2c0.4,0,0.7-0.3,0.7-0.7V30.1h2.1v10.3
		c0,0.2,0.1,0.4,0.2,0.5c0.1,0.1,0.3,0.2,0.5,0.2h1.2v4.5h-5.8v-4.5H23z M27.2,39.7v-9.6h2.2v9.6H27.2z M29.1,41.2h1.1
		c0.2,0,0.4-0.1,0.5-0.2c0.1-0.1,0.2-0.3,0.2-0.5V30.1h4v15.6h-5.7V41.2z M36.2,30.1h4v10.3c0,0.2,0.1,0.4,0.2,0.5
		c0.1,0.1,0.3,0.2,0.5,0.2H42v4.5h-5.7V30.1z M41.6,39.7v-9.6h2.2v9.6H41.6z M43.4,41.2h1.2c0.2,0,0.4-0.1,0.5-0.2
		c0.1-0.1,0.2-0.3,0.2-0.5V30.1h2.1v10.3c0,0.4,0.3,0.7,0.7,0.7h1.1v4.5h-5.8V41.2z M48.8,39.7v-9.6h2.3v9.6H48.8z M16.1,30.1h2.5
		v10.3c0,0.4,0.3,0.7,0.7,0.7h1.1v4.5h-4.3V30.1z M50.6,45.7v-4.5h1.1c0.4,0,0.7-0.3,0.7-0.7V30.1H55v15.6H50.6z"/>
</g>
</svg>
