<?xml version="1.0" encoding="utf-8"?>
<!-- Generator: Adobe Illustrator 22.1.0, SVG Export Plug-In . SVG Version: 6.00 Build 0)  -->
<svg version="1.1" id="Layer_1" xmlns="http://www.w3.org/2000/svg" xmlns:xlink="http://www.w3.org/1999/xlink" x="0px" y="0px"
	 viewBox="0 0 72.2 72.2" style="enable-background:new 0 0 72.2 72.2;" xml:space="preserve">
<style type="text/css">
	.Drop_x0020_Shadow{fill:none;}
	.Outer_x0020_Glow_x0020_5_x0020_pt{fill:none;}
	.Jive_GS{fill:#A6D0E4;}
	.st0{opacity:0.92;fill:none;stroke:#FF00CF;stroke-width:4;stroke-miterlimit:10;}
	.st1{fill:url(#SVGID_1_);}
</style>
<g>
	<circle class="st0" cx="36.2" cy="36.2" r="34.1"/>
	
		<linearGradient id="SVGID_1_" gradientUnits="userSpaceOnUse" x1="37.5906" y1="-246.0271" x2="37.5906" y2="-280.6196" gradientTransform="matrix(0.9997 0 0 -0.9997 -0.1382 -228.2799)">
		<stop  offset="0.4327" style="stop-color:#EC1E79"/>
		<stop  offset="0.9994" style="stop-color:#662D90"/>
	</linearGradient>
	<path class="st1" d="M50,36.2h-9.2c-1.1,0-2,0.9-2,2v0.1c0,0.9,0.6,1.6,1.4,1.9v3.5c0,0.7-0.6,1.3-1.3,1.3c0,0,0,0-0.1,0
		c-0.7,0-1.3-0.6-1.3-1.3v-8.6h0.2c0.4,0.7,1.2,1,1.9,0.8c0.8-0.2,1.2-1,1.2-1.8c-0.1-0.8-0.7-1.4-1.5-1.5c-0.8-0.1-1.5,0.5-1.7,1.2
		h-0.1v-2.5h0.2c0.4,0.7,1.2,1,1.9,0.8c0.8-0.2,1.2-1,1.2-1.8c-0.1-0.8-0.7-1.4-1.5-1.5c-0.8-0.1-1.5,0.5-1.7,1.2h-0.1v-2.5h0.2
		c0.4,0.7,1.2,1,1.9,0.8c0.8-0.2,1.2-1,1.2-1.8c-0.1-0.8-0.7-1.4-1.5-1.5c-0.8-0.1-1.5,0.5-1.7,1.2h-0.1V26c0-0.6-0.1-1.2-0.2-1.8
		h0.4c0.4,0.7,1.2,1,1.9,0.8c0.8-0.2,1.2-1,1.2-1.8c-0.1-0.8-0.7-1.4-1.5-1.5c-0.8-0.1-1.5,0.5-1.7,1.2H37c-0.6-1.7-1.8-3-3.4-4
		c-1.6-0.9-3.6-1.4-5.8-1.4H27c0-0.2-0.1-0.3-0.2-0.4c-0.1-0.1-0.3-0.1-0.4-0.1l-3,0.4c-0.3,0-0.5,0.3-0.5,0.6v2.4
		c0,0.3,0.2,0.5,0.5,0.6l3,0.4c0.2,0,0.3,0,0.5-0.1c0.1-0.1,0.1-0.2,0.2-0.3h0.5c1.5,0,3.1,1.5,3.1,3.5v1.7h-0.1c-1.1,0-2,0.9-2,2
		v14.9c0,1.1,0.9,2.1,2,2.1h0.3c0.8,4.6,4.9,8,9.6,8c2.6,0,5.2-1,7.1-2.8c2-1.9,3.2-4.3,3.2-6.9v-3.2c0.9-0.2,1.5-1,1.5-2v-0.1
		C52.1,37.1,51.1,36.2,50,36.2z M39.6,34.4c0,0.3-0.2,0.5-0.5,0.5c0.1-0.2,0.1-0.3,0.1-0.5c-0.1-0.2-0.2-0.3-0.4-0.4
		c0.1-0.1,0.3-0.1,0.5-0.1C39.5,34,39.6,34.2,39.6,34.4L39.6,34.4z M39.6,30.7c0,0.3-0.2,0.5-0.5,0.5c0.1-0.2,0.1-0.3,0.1-0.5
		c-0.1-0.2-0.2-0.3-0.4-0.4c0.1-0.1,0.3-0.1,0.5-0.1C39.5,30.4,39.6,30.6,39.6,30.7L39.6,30.7z M39.6,27.1c0,0.3-0.2,0.5-0.5,0.5
		c0.1-0.2,0.1-0.3,0.1-0.5c-0.1-0.2-0.2-0.3-0.4-0.4c0.1-0.1,0.3-0.1,0.5-0.1C39.5,26.8,39.6,26.9,39.6,27.1L39.6,27.1z M25.8,20.3
		L24,20.1v-1.4l1.8-0.3V20.3z M39.6,23.5c0,0.3-0.2,0.5-0.5,0.5c0.1-0.2,0.1-0.3,0.1-0.5c-0.1-0.2-0.2-0.3-0.4-0.4
		C39,23,39.2,23,39.4,23C39.5,23.1,39.6,23.3,39.6,23.5L39.6,23.5z M29.5,43.2V28.3c0-0.5,0.4-0.9,0.9-0.9h0.1v16.1
		c0,0.2,0,0.3,0,0.5h-0.2C29.9,44.1,29.5,43.7,29.5,43.2z M46.6,49.6c-1.7,1.6-4.1,2.5-6.3,2.5c-4.7,0-8.5-3.8-8.5-8.5v-19
		c0-1.1-0.4-2.3-1.2-3.2c-0.8-0.9-1.9-1.5-3-1.5H27v-1.1h0.8c2,0,3.8,0.4,5.2,1.3c1.3,0.7,2.2,1.8,2.8,3c-0.3,0.1-0.4,0.4-0.4,0.7
		c0.1,0.3,0.3,0.5,0.6,0.5h0.2c0.1,0.6,0.2,1.2,0.2,1.8v0.7H36c-0.3,0-0.6,0.3-0.6,0.6c0,0.3,0.3,0.6,0.6,0.6h0.4v2.5H36
		c-0.3,0-0.6,0.3-0.6,0.6s0.3,0.6,0.6,0.6h0.4V34H36c-0.3,0-0.6,0.3-0.6,0.6c0,0.3,0.3,0.6,0.6,0.6h0.4v8.6c0,1.4,1.1,2.5,2.4,2.5
		c0,0,0.1,0,0.1,0c1.4,0,2.5-1.1,2.5-2.5v-3.3h8v3.2C49.4,45.8,48.4,47.9,46.6,49.6z M50.9,38.3c0,0.5-0.4,0.9-0.9,0.9h-9.2
		c-0.5,0-0.9-0.4-0.9-0.9v-0.1c0-0.5,0.4-0.9,0.9-0.9H50c0.5,0,0.9,0.4,0.9,0.9V38.3z"/>
</g>
</svg>
